<svg xmlns="http://www.w3.org/2000/svg">
<defs>
<font id="OpenDyslexicAlta-Regular" horiz-adv-x="1327" >
  <font-face 
    font-family="OpenDyslexicAlta"
    font-weight="400"
    font-stretch="normal"
    units-per-em="2048"
    panose-1="0 0 5 0 0 0 0 0 0 0"
    ascent="1638"
    descent="-410"
    x-height="1120"
    cap-height="1493"
    bbox="-49 -536 2673 2111"
    underline-thickness="50"
    underline-position="-238"
    unicode-range="U+0020-FB02"
  />
<missing-glyph horiz-adv-x="1323" 
d="M1174 1444v-1806h-1024v1806h1024zM1060 1329h-795v-1397h795v1397z" />
    <glyph glyph-name=".notdef" horiz-adv-x="1323" 
d="M1174 1444v-1806h-1024v1806h1024zM1060 1329h-795v-1397h795v1397z" />
    <glyph glyph-name=".null" horiz-adv-x="0" 
 />
    <glyph glyph-name="nonmarkingreturn" horiz-adv-x="682" 
 />
    <glyph glyph-name="space" unicode=" " horiz-adv-x="799" 
 />
    <glyph glyph-name="exclam" unicode="!" horiz-adv-x="571" 
d="M412 0h-253l20 254h213zM150 481l19 357l20 655h193l10 -655l30 -357h-272z" />
    <glyph glyph-name="quotedbl" unicode="&#x22;" horiz-adv-x="900" 
d="M150 906l11 587h179l11 -587h-201zM550 906l10 587h180l11 -587h-201z" />
    <glyph glyph-name="numbersign" unicode="#" horiz-adv-x="1700" 
d="M664 567h293l82 334h-291zM625 1055l102 415h162l-104 -415h292l105 415h160l-103 -415h312v-154h-351l-82 -334h318v-153h-357l-104 -414h-160l103 414h-293l-103 -414h-161l104 414h-315v153h352l84 334h-322v154h361z" />
    <glyph glyph-name="dollar" unicode="$" horiz-adv-x="1267" 
d="M700 9l15 -303l-180 3l24 301q-203 6 -409 99l4 240q203 -132 410 -137l7 395q-209 39 -304 126.5t-102 239.5q3 163 113.5 255t314.5 102l4 235l100 -2l-4 -232q189 -11 349 -68l-3 -155q-161 87 -348 98l-8 -466q228 -39 328 -121.5t107 -237.5q-3 -166 -116 -263
t-302 -109zM565 750l10 450q-124 -13 -196 -75.5t-72 -151.5q0 -86 66.5 -144t191.5 -79zM675 578l10 -373q41 7 59 10t49.5 10t45.5 13.5t33.5 18.5t27.5 26t14.5 34t6.5 45q0 87 -61 139.5t-185 76.5z" />
    <glyph glyph-name="percent" unicode="%" horiz-adv-x="2019" 
d="M1526 657q-87 0 -136.5 -69t-49.5 -191q0 -121 49.5 -190.5t136.5 -69.5q85 0 134.5 69.5t49.5 190.5t-49.5 190.5t-134.5 69.5zM1526 784q158 0 251 -110t93 -297q0 -186 -93.5 -296t-250.5 -110q-160 0 -253 109.5t-93 296.5q0 188 93.5 297.5t252.5 109.5zM494 1393
q-86 0 -135.5 -73t-49.5 -200q0 -129 49 -201.5t136 -72.5t136.5 72.5t49.5 201.5q0 126 -50 199.5t-136 73.5zM624 -29h-161l943 1549h161zM494 1520q158 0 252 -110t94 -296q0 -189 -93.5 -298t-252.5 -109t-251.5 109.5t-92.5 297.5q0 186 93 296t251 110z" />
    <glyph glyph-name="ampersand" unicode="&#x26;" horiz-adv-x="1704" 
d="M1005 295l-534 548q-178 -158 -178 -333q0 -147 107 -245t268 -98q191 0 337 128zM590 955l548 -540q55 82 74.5 168t26.5 218h186q-17 -186 -34 -259q-33 -145 -115 -257l279 -285h-252l-143 147q-206 -176 -463 -176q-241 0 -394 137.5t-153 352.5q0 254 268 452
q-98 129 -98 248q0 162 111 260.5t295 98.5q164 0 333 -72l-70 -142q-177 96 -313 96q-105 0 -170.5 -55.5t-65.5 -143.5q0 -51 30 -102q27 -50 120 -146z" />
    <glyph glyph-name="parenleft" unicode="(" horiz-adv-x="723" 
d="M527 1561l160 -14q-314 -443 -333 -884q12 -276 51.5 -495.5t142.5 -437.5l-210 14q-188 469 -188 936q37 440 377 881z" />
    <glyph glyph-name="parenright" unicode=")" horiz-adv-x="723" 
d="M196 1587l159 -14q121 -232 169.5 -460t49.5 -473q0 -107 -23.5 -218t-72.5 -230.5t-94 -210t-118 -225.5l-229 14q301 429 343 887q0 257 -40 481.5t-144 448.5z" />
    <glyph glyph-name="asterisk" unicode="*" horiz-adv-x="1271" 
d="M688 1143l376 243l18 -139l-359 -194l399 -155l-98 -138l-336 203l40 -347l-154 -30v377l-296 -243l-98 138l359 195l-389 154l88 139l336 -203l-40 337l154 40v-377z" />
    <glyph glyph-name="plus" unicode="+" horiz-adv-x="1581" 
d="M707 727v557h168v-557h557v-170h-557v-557h-168v557h-557v170h557z" />
    <glyph glyph-name="comma" unicode="," horiz-adv-x="652" 
d="M150 -288l102 320v212h251v-212l-224 -320h-129z" />
    <glyph glyph-name="hyphen" unicode="-" horiz-adv-x="845" 
d="M689 488l-539 -9l7 164l539 10z" />
    <glyph glyph-name="period" unicode="." horiz-adv-x="598" 
d="M449 0h-299v323h299v-323z" />
    <glyph glyph-name="slash" unicode="/" horiz-adv-x="1027" 
d="M380 -198l-230 8l578 1664l150 -5z" />
    <glyph glyph-name="zero" unicode="0" horiz-adv-x="1331" 
d="M676 1440q-313 0 -313 -550q0 -286 69 -417.5t224 -131.5q154 0 233.5 135t100.5 414q0 550 -314 550zM676 1520q250 0 378 -197.5t128 -577.5q-10 -379 -143 -576.5t-383 -197.5t-378 197.5t-128 576.5q10 380 143 577.5t383 197.5z" />
    <glyph glyph-name="one" unicode="1" horiz-adv-x="1188" 
d="M1039 0h-860v280h330v1029l-359 -72v184l357 72h202v-1213h330v-280z" />
    <glyph glyph-name="two" unicode="2" horiz-adv-x="1247" 
d="M603 290h495v-290h-948v290q161 133 335 265q165 126 243 210t121 168q38 76 38 148q0 119 -83.5 194t-217.5 75q-187 0 -426 -133v204q248 99 422 99q232 0 370 -116t138 -310q0 -94 -35.5 -176.5t-124.5 -192.5q-31 -35 -159 -167q-134 -140 -168 -268z" />
    <glyph glyph-name="three" unicode="3" horiz-adv-x="1282" 
d="M825 805q143 -11 225.5 -108t82.5 -243q0 -238 -150.5 -360.5t-433.5 -122.5q-186 0 -399 74v315q171 -99 393 -99q190 0 290 85q99 86 99 138q0 106 -95 178.5t-255 72.5h-174v166h182q149 0 228 59.5t79 171.5q0 115 -81.5 176.5t-233.5 61.5q-166 0 -387 -74v160
q228 64 405 64q230 0 364 -104.5t134 -282.5q0 -124 -71 -209.5t-202 -118.5z" />
    <glyph glyph-name="four" unicode="4" horiz-adv-x="1387" 
d="M314 590h500l10 797zM150 422v125l621 946h254l10 -903h203v-168h-203l20 -422h-271l20 422h-654z" />
    <glyph glyph-name="five" unicode="5" horiz-adv-x="1265" 
d="M213 743v750h793v-150h-628v-386q128 30 196 30q250 0 396 -137t146 -371q0 -241 -150 -374.5t-423 -133.5q-186 0 -393 64v313q179 -97 389 -97q82 0 153.5 26t116 65.5t70 83.5t25.5 83q0 154 -94.5 231t-270.5 77q-163 0 -326 -74z" />
    <glyph glyph-name="six" unicode="6" horiz-adv-x="1330" 
d="M683 827q-136 0 -215.5 -93t-79.5 -255q0 -101 79.5 -159.5t215.5 -58.5t215.5 58.5t79.5 159.5q0 162 -79.5 255t-215.5 93zM1084 1460v-184q-156 74 -307 74q-200 0 -305.5 -135t-120.5 -408q59 87 148 133.5t196 46.5q225 0 355.5 -136.5t130.5 -371.5
q0 -230 -136 -369t-362 -139q-259 0 -396 198.5t-137 575.5q0 354 168 564.5t451 210.5q147 0 315 -60z" />
    <glyph glyph-name="seven" unicode="7" horiz-adv-x="1249" 
d="M917 1343h-767v150h950v-86l-372 -1407h-361z" />
    <glyph glyph-name="eight" unicode="8" horiz-adv-x="1363" 
d="M682 729q-144 0 -226.5 -77t-82.5 -212q0 -82 86.5 -150.5t222.5 -68.5t223 69t87 150q0 135 -82.5 212t-227.5 77zM480 795q-127 32 -191 119.5t-64 218.5q0 164 120.5 265.5t336.5 101.5q217 0 337 -101.5t120 -265.5q0 -131 -63.5 -218.5t-190.5 -119.5
q149 -34 239 -134t90 -241q0 -215 -141.5 -332t-390.5 -117t-390.5 117t-141.5 332q0 141 90.5 241t239.5 134zM406 1174q0 -116 72.5 -181t203.5 -65q130 0 203.5 65t73.5 181q0 98 -75 162t-202 64q-128 0 -202 -63.5t-74 -162.5z" />
    <glyph glyph-name="nine" unicode="9" horiz-adv-x="1329" 
d="M246 31v304q156 -74 307 -74q72 0 123.5 6t100.5 22.5t82 46t59.5 76.5t41 114t19.5 158q-58 -86 -147 -132t-197 -46q-224 0 -354.5 135.5t-130.5 370.5q0 230 136 369t362 139q259 0 395.5 -198.5t136.5 -576.5q0 -353 -167.5 -563.5t-450.5 -210.5q-148 0 -316 60z
M631 806q74 0 122.5 4t97.5 17.5t77 39t45 70t17 107.5q0 161 -97 254.5t-262 93.5q-166 0 -263 -93.5t-97 -254.5q0 -53 10.5 -92.5t34 -65.5t52 -42t73 -24.5t86.5 -11t104 -2.5z" />
    <glyph glyph-name="colon" unicode=":" horiz-adv-x="560" 
d="M411 0h-261v306h261v-306zM411 816h-261v285h261v-285z" />
    <glyph glyph-name="semicolon" unicode=";" horiz-adv-x="628" 
d="M479 803h-243v293h243v-293zM150 -328l91 355v191h234v-191l-182 -355h-143z" />
    <glyph glyph-name="less" unicode="&#x3c;" horiz-adv-x="1636" 
d="M170 817l1317 351l-16 -181l-1060 -276l997 -453l-21 -241l-1237 574z" />
    <glyph glyph-name="equal" unicode="=" horiz-adv-x="1581" 
d="M1432 762h-1282v168h1282v-168zM1432 352h-1282v200h1282v-200z" />
    <glyph glyph-name="greater" unicode="&#x3e;" horiz-adv-x="1636" 
d="M171 378l1058 274l-994 455l16 182l1236 -575l-19 -226l-1318 -351z" />
    <glyph glyph-name="question" unicode="?" horiz-adv-x="1086" 
d="M597 -10h-263v284h263v-284zM601 524v-123h-261v154q0 105 29.5 174t116.5 153l100 89q85 70 117 105t41 81q0 93 -67 161t-172 68q-156 0 -355 -137v158q186 113 390 113q183 0 290 -96.5t107 -256.5q0 -70 -41 -136t-131 -163l-78 -86q-31 -53 -46 -73
q-31 -43 -37 -103q-3 -30 -3 -82z" />
    <glyph glyph-name="at" unicode="@" horiz-adv-x="2069" 
d="M747 619q0 -128 71 -201t195 -73q123 0 193.5 73.5t70.5 200.5q0 125 -72 199t-194 74q-121 0 -192.5 -73.5t-71.5 -199.5zM1322 84v154q-117 -150 -318 -150q-172 0 -279.5 124.5t-107.5 324.5t108 325t279 125q200 0 318 -151v131h143v-736q146 22 228.5 133.5
t82.5 288.5q0 215 -127 375q-104 131 -253.5 200.5t-325.5 69.5q-251 0 -445 -129q-157 -102 -245.5 -267.5t-88.5 -358.5q0 -79 13 -139.5t46 -119.5t73.5 -109t111.5 -125q101 -100 226.5 -141.5t291.5 -41.5q279 0 482 158l90 -181q-125 -97 -272.5 -148.5t-299.5 -51.5
q-185 0 -349 65.5t-292 190.5t-195 289.5t-67 353.5q0 182 68 347t194 290q129 127 298 194.5t358 67.5q212 0 393.5 -87t304.5 -247q154 -202 154 -451q0 -263 -159 -415t-439 -158z" />
    <glyph glyph-name="A" unicode="A" horiz-adv-x="1667" 
d="M560 481h549l-275 828zM423 0h-273l590 1493h189l589 -1493h-290l-56 243h-673z" />
    <glyph glyph-name="B" unicode="B" horiz-adv-x="1378" 
d="M676 713h-324v-417h324q170 0 245 50t75 184q0 50 -78 117q-80 66 -242 66zM651 1357h-299v-480h299q293 0 293 225q0 117 -74.5 186t-218.5 69zM686 0h-536v1493h466q231 0 356 -96t125 -273q0 -137 -64 -218t-188 -101q194 -32 289 -131.5t95 -255.5
q0 -199 -145 -308.5t-398 -109.5z" />
    <glyph glyph-name="C" unicode="C" horiz-adv-x="1503" 
d="M1354 1378v-213q-202 189 -463 189q-256 0 -392 -156.5t-136 -452.5q4 -254 133.5 -361t394.5 -107q261 0 463 189v-351q-212 -144 -475 -144q-339 0 -534 207.5t-195 566.5q0 360 195 567.5t534 207.5q267 0 475 -142z" />
    <glyph glyph-name="D" unicode="D" horiz-adv-x="1554" 
d="M606 1327h-244v-951h244q158 0 258 17.5t169 65t105.5 119t63.5 190.5q0 282 -145 420.5t-451 138.5zM565 0h-415v1493h415q434 0 637 -180.5t203 -564.5q0 -386 -204 -567t-636 -181z" />
    <glyph glyph-name="E" unicode="E" horiz-adv-x="1261" 
d="M1112 0h-962v1493h944v-170h-742v-442h711v-170h-711v-401h760v-310z" />
    <glyph glyph-name="F" unicode="F" horiz-adv-x="1157" 
d="M402 0h-252l40 1493h818v-180h-616l-20 -430h582v-210h-572z" />
    <glyph glyph-name="G" unicode="G" horiz-adv-x="1603" 
d="M1224 373v161h-320v216h550v-611q-236 -168 -559 -168q-351 0 -548 204.5t-197 569.5q0 366 197 570.5t548 204.5q294 0 520 -142v-195q-224 191 -503 191q-549 0 -549 -609q5 -137 39 -228t104.5 -144t167 -74.5t238.5 -21.5q240 0 312 76z" />
    <glyph glyph-name="H" unicode="H" horiz-adv-x="1457" 
d="M382 0h-232l20 1493h212v-712h694v712h212l20 -1493h-232v501h-694v-501z" />
    <glyph glyph-name="I" unicode="I" horiz-adv-x="541" 
d="M392 0h-242q11 174 18 381.5t9.5 356.5t6.5 390t6 365h172q1 -104 4 -455.5t8.5 -582t17.5 -455.5z" />
    <glyph glyph-name="J" unicode="J" horiz-adv-x="925" 
d="M510 76l54 1419l212 -14l-54 -1418q-5 -268 -108.5 -379.5t-342.5 -115.5l-117 12l-4 330l102 -22q125 6 190 61t68 127z" />
    <glyph glyph-name="K" unicode="K" horiz-adv-x="1504" 
d="M412 0h-262l40 1493h202l-20 -631l670 631h260l-741 -696l794 -797h-476l-507 719z" />
    <glyph glyph-name="L" unicode="L" horiz-adv-x="1238" 
d="M1069 0h-919l20 1493h202l-10 -1183h727z" />
    <glyph glyph-name="M" unicode="M" horiz-adv-x="1705" 
d="M406 0h-256l30 1493h301l371 -886l393 886h281l30 -1493h-257l40 1311l-365 -1074h-243l-365 1074z" />
    <glyph glyph-name="N" unicode="N" horiz-adv-x="1449" 
d="M406 0h-256l40 1463h252l642 -1179l30 1209h186v-1493h-292l-662 1249z" />
    <glyph glyph-name="O" unicode="O" horiz-adv-x="1681" 
d="M842 1356q-220 0 -349.5 -164.5t-129.5 -446.5q0 -113 32.5 -190.5t98 -120.5t149 -61t199.5 -18t199 18t148 61t97.5 120.5t32.5 190.5q0 282 -128.5 446.5t-348.5 164.5zM842 1520q314 0 502 -210.5t188 -564.5q0 -353 -188 -563.5t-502 -210.5q-315 0 -503.5 210
t-188.5 564t188.5 564.5t503.5 210.5z" />
    <glyph glyph-name="P" unicode="P" horiz-adv-x="1313" 
d="M675 1407h-253l-20 -561h273q151 0 233.5 73t82.5 208q0 134 -82.5 207t-233.5 73zM392 0h-242l60 1493h446q251 0 379.5 -113.5t128.5 -332.5q0 -224 -129.5 -345.5t-378.5 -121.5h-244z" />
    <glyph glyph-name="Q" unicode="Q" horiz-adv-x="1750" 
d="M842 1356q-220 0 -349.5 -164.5t-129.5 -446.5q0 -88 25.5 -157.5t62 -110t87 -68.5t91.5 -38.5t83 -15.5l94 -14l83 139q120 -55 242 -71q188 104 188 336q0 282 -128.5 446.5t-348.5 164.5zM1285 87l316 -351h-474l-211 239q-59 -4 -84 -4q-202 0 -356.5 94.5
t-240 270.5t-85.5 409q0 354 188.5 564.5t503.5 210.5q314 0 502 -210.5t188 -564.5q0 -100 -15 -189.5t-37.5 -154t-57.5 -126.5t-65.5 -102t-71.5 -86z" />
    <glyph glyph-name="R" unicode="R" horiz-adv-x="1462" 
d="M858 700q127 -42 250 -292l205 -408h-287l-151 383q-73 148 -142 198t-191 50h-150v-631h-242v1493h456q229 0 353.5 -108.5t124.5 -321.5q0 -139 -59.5 -232.5t-166.5 -130.5zM626 1387h-254v-550h254q119 0 217 68.5t98 157.5q0 92 -26.5 157.5t-73.5 100.5t-99.5 50.5
t-115.5 15.5z" />
    <glyph glyph-name="S" unicode="S" horiz-adv-x="1350" 
d="M1111 1444v-197q-228 109 -414 109q-165 0 -254.5 -64t-89.5 -182q0 -100 60.5 -150.5t224.5 -80.5l122 -25q225 -43 333 -151t108 -291q0 -217 -145.5 -329t-426.5 -112q-215 0 -473 95v318q248 -139 473 -139q161 0 261 64t100 138q0 66 -72.5 126t-216.5 89l-123 24
q-226 45 -327 141t-101 267q0 198 139.5 312t384.5 114q210 0 437 -76z" />
    <glyph glyph-name="T" unicode="T" horiz-adv-x="1562" 
d="M680 1343l-530 -20v170h1263v-170l-530 20l40 -1343h-283z" />
    <glyph glyph-name="U" unicode="U" horiz-adv-x="1442" 
d="M150 561v932h213l-20 -767q-6 -236 87.5 -343.5t291.5 -107.5q197 0 290 107.5t87 343.5l-19 767h213v-932q0 -292 -144.5 -441t-426.5 -149q-283 0 -427.5 149t-144.5 441z" />
    <glyph glyph-name="V" unicode="V" horiz-adv-x="1667" 
d="M1518 1493l-519 -1493h-329l-520 1493h211l473 -1117l474 1117h210z" />
    <glyph glyph-name="W" unicode="W" horiz-adv-x="2189" 
d="M798 0h-314l-334 1493h194l304 -1072l353 692h177l324 -712l343 1092h195l-375 -1493h-294l-275 806z" />
    <glyph glyph-name="X" unicode="X" horiz-adv-x="1577" 
d="M150 0l513 697l-445 796h217l371 -635l373 635h217l-460 -797l492 -696h-327l-310 535l-313 -535h-328z" />
    <glyph glyph-name="Y" unicode="Y" horiz-adv-x="1558" 
d="M638 0v511l-488 982h217l414 -764l411 764h217l-498 -982v-511h-273z" />
    <glyph glyph-name="Z" unicode="Z" horiz-adv-x="1518" 
d="M1094 1323h-921v170h1173v-154l-944 -1039h967v-300h-1219v284z" />
    <glyph glyph-name="bracketleft" unicode="[" horiz-adv-x="673" 
d="M574 -270h-424v1826h424v-143h-240v-1460h240v-223z" />
    <glyph glyph-name="backslash" unicode="\" horiz-adv-x="930" 
d="M571 -206l-421 1698l170 -5l461 -1701z" />
    <glyph glyph-name="bracketright" unicode="]" horiz-adv-x="673" 
d="M100 1413v143h424v-1826h-424v213h239v1470h-239z" />
    <glyph glyph-name="asciicircum" unicode="^" horiz-adv-x="1581" 
d="M150 936l563 557h156l563 -557h-311l-330 455l-330 -455h-311z" />
    <glyph glyph-name="underscore" unicode="_" horiz-adv-x="1363" 
d="M150 -264h1064v-179h-1064v179z" />
    <glyph glyph-name="a" unicode="a" horiz-adv-x="1245" 
d="M967 950l-1 170h158l-3 -1119l-154 -2v169q-114 -197 -359 -197q-204 0 -331 162.5t-127 425.5t127 425.5t331 162.5q245 0 359 -197zM282 579q23 -147 93 -210t215 -63q78 0 123.5 10t79.5 41.5t50.5 86.5t26.5 149q11 420 -275 420q-146 0 -229.5 -115.5t-83.5 -318.5z
" />
    <glyph glyph-name="b" unicode="b" horiz-adv-x="1301" 
d="M1035 601q-6 199 -81 307t-218 108q-147 0 -230 -111t-83 -313q6 -47 10 -73t12.5 -60t18 -51.5t25.5 -39t37.5 -32t51.5 -20.5t69 -13.5t89 -3.5q66 5 112.5 20t86 48t64 91t36.5 143zM259 203q-18 39 -31 214.5t-29.5 551.5t-28.5 587h185l-20 -586q56 96 142.5 136.5
t215.5 40.5q204 0 331.5 -162.5t127.5 -425.5t-127.5 -425.5t-331.5 -162.5q-108 0 -183.5 15t-124 46.5t-77 71.5t-49.5 99z" />
    <glyph glyph-name="c" unicode="c" horiz-adv-x="1185" 
d="M1036 1077v-162q-157 86 -315 86q-177 0 -272 -117t-95 -325q14 -142 95.5 -201.5t263.5 -69.5q13 0 61.5 -1t69.5 0t59 5t68.5 14t60.5 26l4 -289q-154 -72 -335 -72q-253 0 -402 159t-149 429q0 274 150.5 431t412.5 157q173 0 323 -70z" />
    <glyph glyph-name="d" unicode="d" horiz-adv-x="1320" 
d="M967 950l20 606h184l-20 -1556h-184v168q-114 -197 -359 -197q-204 0 -331 162.5t-127 425.5t127 425.5t331 162.5q245 0 359 -197zM282 579q23 -147 93 -210t215 -63q79 0 128.5 10.5t88.5 40.5t57 87t21 149q-11 420 -290 420q-146 0 -229.5 -115.5t-83.5 -318.5z" />
    <glyph glyph-name="e" unicode="e" 
d="M1178 676v-70h-836q1 -88 20 -151t50 -102t83.5 -62t107.5 -33t135 -14q75 0 108.5 1t93.5 6.5t107.5 20t94.5 39.5l4 -254q-204 -86 -415 -86q-270 10 -425.5 162t-155.5 416q10 278 154.5 438t395.5 160q228 -10 343.5 -122t134.5 -349zM362 766l656 1q-8 48 -33.5 97
t-64.5 91t-96.5 68.5t-122.5 26.5q-74 0 -139 -25.5t-108 -66t-67.5 -91t-24.5 -101.5z" />
    <glyph glyph-name="f" unicode="f" horiz-adv-x="963" 
d="M639 1536l164 -20v-153l-166 20q-72 0 -99 -32t-27 -132l10 -99h293v-183h-293l30 -937h-265l30 937h-166v183h166l10 78q0 90 24.5 157t68 105.5t98.5 57t122 18.5z" />
    <glyph glyph-name="g" unicode="g" horiz-adv-x="1320" 
d="M887 584q0 200 -82.5 310t-231.5 110q-148 0 -230.5 -110t-82.5 -310q7 -67 17.5 -113.5t29 -78.5t38.5 -50.5t55.5 -28.5t69.5 -12.5t89 -2.5q69 0 112 4t88.5 20.5t70.5 46.5t41 83.5t16 131.5zM987 1120h184l-30 -981q-6 -193 -39 -323t-99.5 -208t-159.5 -111
t-228 -33q-191 0 -350 59v328q157 -86 321 -86q69 0 128 23t99 58.5t71 82.5t47.5 90.5t25.5 86.5v61q-51 -74 -141 -120.5t-208 -46.5q-206 0 -332 157t-126 416q0 260 125.5 417t332.5 157q246 0 359 -197z" />
    <glyph glyph-name="h" unicode="h" horiz-adv-x="1277" 
d="M1108 676l20 -676h-234l30 670q8 183 -54.5 260t-193.5 77q-147 0 -234 -103.5t-87 -270.5l20 -633h-225l40 1556h185l-20 -610q131 201 362 201q193 0 292 -119.5t99 -351.5z" />
    <glyph glyph-name="i" unicode="i" horiz-adv-x="533" 
d="M384 0h-234q35 512 30 1120h164q-19 -543 40 -1120zM354 1323h-184l10 233h164z" />
    <glyph glyph-name="j" unicode="j" horiz-adv-x="733" 
d="M319 95l48 1020l174 -3l-40 -1140q-4 -215 -87.5 -319t-263.5 -111l-100 2l5 276l79 -1q46 4 72.5 11t49.5 23t34 47.5t18.5 77t10.5 117.5zM584 1323h-184l10 233h164z" />
    <glyph glyph-name="k" unicode="k" horiz-adv-x="1323" 
d="M395 0h-245l40 1556h185l-10 -879l379 443h235l-424 -524l619 -596h-380l-429 527z" />
    <glyph glyph-name="l" unicode="l" horiz-adv-x="637" 
d="M488 0h-338q9 682 50 1466h174q-36 -700 -40 -1238l154 -1v-227z" />
    <glyph glyph-name="m" unicode="m" horiz-adv-x="1984" 
d="M1079 905q70 126 157 184t214 58q175 0 270 -122.5t95 -348.5l20 -676h-275l70 700q0 168 -44 242.5t-157 74.5q-138 0 -214.5 -106t-84.5 -278l-30 -633h-255l90 710q0 162 -57 239.5t-176 77.5q-139 0 -228 -114t-89 -280l20 -633h-255l50 1120h185l-20 -174
q123 201 360 201q124 0 218.5 -63t135.5 -179z" />
    <glyph glyph-name="n" unicode="n" horiz-adv-x="1307" 
d="M1128 676l30 -676h-264l40 680q0 162 -53.5 239.5t-174.5 77.5q-165 0 -248 -93t-83 -261l30 -643h-255l30 1130h185v-134q41 32 73.5 53.5t80 46.5t100.5 38t108 13q381 0 401 -471z" />
    <glyph glyph-name="o" unicode="o" 
d="M664 1011q-148 0 -234 -112.5t-86 -307.5q0 -77 15 -131.5t40 -87.5t67 -51.5t87.5 -25t110.5 -6.5q64 0 109 6.5t87 25t67.5 51.5t40.5 87.5t15 131.5q0 193 -86 306.5t-233 113.5zM664 1147q240 0 377 -156t137 -432q0 -275 -137 -431.5t-377 -156.5
q-241 0 -377.5 156.5t-136.5 431.5q0 276 136.5 432t377.5 156z" />
    <glyph glyph-name="p" unicode="p" horiz-adv-x="1359" 
d="M393 168l-8 -594h-235l89 686v843h185l-31 -153q114 197 358 197q204 0 331.5 -162.5t127.5 -425.5t-127.5 -425.5t-331.5 -162.5q-244 0 -358 197zM1092 591q0 203 -83.5 318.5t-229.5 115.5t-229.5 -115.5t-83.5 -318.5q0 -99 22 -163.5t67.5 -97t99.5 -44.5t134 -12
q79 0 130.5 11.5t93 45t60.5 97t19 163.5z" />
    <glyph glyph-name="q" unicode="q" horiz-adv-x="1487" 
d="M272 585q0 -99 19.5 -161.5t63 -94t94 -41.5t131.5 -10q65 0 109 6t87 24.5t68 51.5t40 89t15 136q0 203 -84 318.5t-230 115.5t-229.5 -115.5t-83.5 -318.5zM1171 -423l-260 -3l56 594q-114 -197 -359 -197q-204 0 -331 162.5t-127 425.5t127 425.5t331 162.5
q245 0 359 -197l30 170h178l-63 -1186l226 -216z" />
    <glyph glyph-name="r" unicode="r" horiz-adv-x="978" 
d="M828 1117l1 -189q-28 16 -57 20.5t-81 4.5q-293 0 -293 -393l40 -560h-288q62 342 75.5 543.5t2.5 566.5h170v-114q167 131 347 131q30 0 83 -10z" />
    <glyph glyph-name="s" unicode="s" horiz-adv-x="1155" 
d="M946 1087v-154q-157 80 -336 80q-136 0 -210 -47t-74 -131q0 -75 54.5 -116t201.5 -74l63 -14q198 -42 279.5 -114t81.5 -208q0 -156 -124 -247t-339 -91q-179 0 -393 70v270q203 -106 397 -106q250 0 250 150q-32 59 -57 88q-23 26 -195 64l-64 15q-175 37 -249 102.5
t-74 192.5q0 158 112 244t318 86t358 -60z" />
    <glyph glyph-name="t" unicode="t" horiz-adv-x="998" 
d="M285 1120l10 278h195l-10 -278h259v-143h-259l-10 -488q0 -93 16.5 -138t55 -61t118.5 -16h189v-274h-189q-215 0 -300 80.5t-85 288.5l10 608h-135v143h135z" />
    <glyph glyph-name="u" unicode="u" horiz-adv-x="1247" 
d="M150 442v678h154v-511q10 -162 68.5 -240t179.5 -78q147 0 229.5 93.5t92.5 260.5l20 475h204l-20 -1120h-184l10 172q-132 -201 -361 -201q-193 0 -293 120t-100 351z" />
    <glyph glyph-name="v" unicode="v" horiz-adv-x="1389" 
d="M830 0h-270l-410 1120h195l350 -820l350 820h195z" />
    <glyph glyph-name="w" unicode="w" horiz-adv-x="1802" 
d="M690 0h-247l-293 1120h184l230 -784l209 414h257l210 -414l229 784h184l-293 -1120h-257l-201 508z" />
    <glyph glyph-name="x" unicode="x" horiz-adv-x="1425" 
d="M711 661l337 459h187l-395 -595l436 -525h-297l-256 390l-276 -390h-297l445 536l-388 584h197z" />
    <glyph glyph-name="y" unicode="y" horiz-adv-x="1389" 
d="M1045 1120h195l-472 -1224q-49 -109 -92 -177t-91 -104t-94 -48.5t-113 -12.5h-167v244h128q37 0 65 8t54 29.5t43 40t49 58.5l79 159l-479 1027h195l396 -651z" />
    <glyph glyph-name="z" unicode="z" horiz-adv-x="1208" 
d="M862 983h-667v137h864v-168l-632 -705h622v-247h-899v268z" />
    <glyph glyph-name="braceleft" unicode="{" horiz-adv-x="1058" 
d="M860 -143l68 -1l-2 -204l-62 1q-128 3 -204 19.5t-123 61.5t-64.5 112.5t-20.5 183.5l4 238q-7 154 -56.5 211.5t-188.5 60.5l-61 1l2 143l61 -1q99 5 151.5 28t77 76.5t26.5 154.5l4 240q1 76 9.5 129t29.5 94t50.5 65.5t79.5 40.5t109.5 23t146.5 9l62 -1l-3 -143
l-68 1q-53 -2 -86.5 -6t-61.5 -14.5t-42 -24.5t-24 -40.5t-13 -58t-4 -81.5l-4 -248q-3 -156 -49 -226.5t-158 -93.5q107 -28 147.5 -97.5t47.5 -211.5l-4 -248q4 -45 9.5 -72t19.5 -52.5t38 -38.5t62 -21t94 -9z" />
    <glyph glyph-name="bar" unicode="|" horiz-adv-x="509" 
d="M240 1565h170l-40 -1038l-30 -1010h-190z" />
    <glyph glyph-name="braceright" unicode="}" horiz-adv-x="910" 
d="M180 -334h-63v154h70q73 0 114.5 8.5t67.5 35t34.5 68.5t8.5 117v248q0 146 45 217t156 98q-111 25 -156 96.5t-45 227.5v248q0 142 -42.5 185.5t-182.5 43.5h-70v143h63q129 0 206 -15.5t126 -58.5t66.5 -111.5t17.5 -182.5v-240q0 -149 54 -206.5t196 -57.5h62v-143
h-62q-142 0 -196 -58t-54 -209v-239q0 -114 -17.5 -182.5t-66.5 -112t-126 -59t-206 -15.5z" />
    <glyph glyph-name="asciitilde" unicode="~" horiz-adv-x="1581" 
d="M1432 817v-158q-142 -106 -189 -135q-105 -62 -192 -62q-110 0 -256 89q-7 3 -16 6q-14 6 -22 8q-154 82 -249 82q-52 0 -115.5 -32t-98.5 -59t-123 -102q-14 -11 -21 -17v208q105 79 194.5 113.5t186.5 34.5q110 0 257 -60q23 -9 37 -14q156 -62 249 -62q86 0 170.5 38
t187.5 122z" />
    <glyph glyph-name="uni00A0" unicode="&#xa0;" horiz-adv-x="1602" 
 />
    <glyph glyph-name="exclamdown" unicode="&#xa1;" horiz-adv-x="600" 
d="M180 1533h183l30 -274h-243zM385 1015l32 -356l34 -655l-263 -8l-14 655l9 357z" />
    <glyph glyph-name="cent" unicode="&#xa2;" horiz-adv-x="1195" 
d="M650 202l14 806q-148 -15 -231.5 -132.5t-87.5 -320.5q-2 -145 78.5 -239t226.5 -114zM1046 1061l-2 -142q-142 84 -277 91l-15 -814q135 7 281 81l-5 -250q-130 -55 -280 -67l-5 -284l-102 2l5 288q-240 24 -370 179.5t-126 413.5q5 258 140 408.5t377 168.5l5 287
l102 -2l-4 -287q147 -11 276 -73z" />
    <glyph glyph-name="sterling" unicode="&#xa3;" horiz-adv-x="1312" 
d="M1163 1443l-5 -182q-153 86 -271 87q-103 -6 -158.5 -37t-83.5 -107.5t-32 -218.5l-6 -215l391 -7l-3 -123l-391 7l-12 -435l557 -9l-6 -220l-993 17l6 220l236 -4l12 435l-199 3l3 123l199 -3l7 238q7 259 116 374.5t344 121.5q124 -2 289 -65z" />
    <glyph glyph-name="currency" unicode="&#xa4;" horiz-adv-x="1417" 
d="M947 993l207 209l114 -115l-206 -206q73 -118 73 -240q0 -123 -78 -235l209 -207l-114 -113l-207 207q-116 -78 -236 -78q-117 0 -239 74l-207 -207l-113 115l207 206q-74 125 -74 238q0 124 76 236l-207 206l115 115l207 -207q107 76 235 76q120 0 238 -74zM978 643
q0 112 -77.5 189t-191.5 77q-112 0 -191 -77.5t-79 -188.5q0 -112 77 -181t193 -69q115 0 192 69.5t77 180.5z" />
    <glyph glyph-name="yen" unicode="&#xa5;" horiz-adv-x="1456" 
d="M838 578h415v-163h-413l20 -415h-261l30 415h-416v163h416v51l-104 155h-332v123h264l-307 586h210l369 -700l367 700h211l-318 -586h264v-123h-331l-84 -155v-51z" />
    <glyph glyph-name="brokenbar" unicode="&#xa6;" horiz-adv-x="469" 
d="M200 526h170l-30 -1009h-190zM410 1565l-39 -932h-170l39 932h170z" />
    <glyph glyph-name="section" unicode="&#xa7;" horiz-adv-x="1137" 
d="M437 960q-125 -91 -125 -182q0 -76 70 -142q68 -67 319 -202q125 89 125 182q0 75 -71 143q-72 67 -318 201zM887 1462v-164q-167 78 -282 78q-97 0 -151 -40t-54 -111q0 -89 206 -205q24 -14 40 -23q209 -117 277 -196q65 -77 65 -178q0 -177 -185 -283
q119 -99 119 -225q0 -142 -102 -226t-275 -84q-141 0 -315 58v214q174 -78 293 -78q108 0 161.5 29t53.5 101q0 82 -221 205l-25 14q-212 118 -278 197q-64 76 -64 178q0 184 184 283q-118 88 -118 225q0 130 100.5 209.5t265.5 79.5q149 0 305 -58z" />
    <glyph glyph-name="dieresis" unicode="&#xa8;" horiz-adv-x="936" 
d="M787 1350h-218v217h218v-217zM368 1350h-218v217h218v-217z" />
    <glyph glyph-name="copyright" unicode="&#xa9;" horiz-adv-x="1781" 
d="M891 1485q305 0 524 -219q217 -217 217 -525q0 -305 -217 -522q-219 -219 -524 -219t-524 219q-217 217 -217 522q0 308 217 525q219 219 524 219zM891 1382q-263 0 -451 -188q-190 -190 -190 -453q0 -250 190 -420q204 -139 451 -139q249 0 453 139q186 145 186 420
q0 265 -186 453q-188 188 -453 188zM1190 1137v-99q-130 65 -262 65q-146 0 -231 -101t-85 -261q0 -107 89.5 -190t236.5 -83q125 0 252 65v-187q-130 -57 -274 -57q-216 0 -341.5 122t-125.5 330q0 209 125.5 330t341.5 121q141 0 274 -55z" />
    <glyph glyph-name="ordfeminine" unicode="&#xaa;" horiz-adv-x="1011" 
d="M862 469h-688v123h688v-123zM860 1165v-448h-149v112q-92 -131 -281 -131q-128 0 -204 67.5t-76 180.5q0 273 379 273h182v4q0 182 -234 182q-128 0 -266 -68v127q147 56 287 56q183 0 272.5 -88t89.5 -267zM701 1140v29h-127q-161 0 -224 -33q-63 -34 -63 -113
q0 -64 49 -102.5t131 -38.5q104 0 169 72t65 186z" />
    <glyph glyph-name="guillemotleft" unicode="&#xab;" horiz-adv-x="1260" 
d="M584 504l44 120l483 402l-6 -191l-311 -258l292 -278l-48 -229zM150 519l44 120l484 402l-7 -191l-310 -257l291 -279l-48 -229z" />
    <glyph glyph-name="logicalnot" unicode="&#xac;" horiz-adv-x="1611" 
d="M1264 692l-1114 -20v190h1282l30 -575h-248z" />
    <glyph glyph-name="sfthyphen" unicode="&#xad;" horiz-adv-x="838" 
d="M689 479h-539v164h539v-164z" />
    <glyph glyph-name="registered" unicode="&#xae;" horiz-adv-x="1781" 
d="M891 1382q-264 0 -451 -174q-190 -176 -190 -418q0 -240 190 -416q189 -175 451 -175q264 0 453 175q186 172 186 416t-186 418q-188 174 -453 174zM891 1485q305 0 524 -219q217 -217 217 -525q0 -305 -217 -522q-219 -219 -524 -219t-524 219q-217 217 -217 522
q0 308 217 525q219 219 524 219zM914 1121h-123v-276h123q110 0 153.5 31t43.5 106q0 76 -44.5 107.5t-152.5 31.5zM586 338v836h285q350 0 350 -240q0 -86 -52.5 -142t-148.5 -73q22 -7 58 -46q32 -38 79 -112l137 -223h-172l-129 209q-59 96 -95 122q-37 25 -51 25h-56
v-356h-205z" />
    <glyph glyph-name="macron" unicode="&#xaf;" horiz-adv-x="897" 
d="M748 1378h-598v148h598v-148z" />
    <glyph glyph-name="degree" unicode="&#xb0;" horiz-adv-x="933" 
d="M467 1441q-80 0 -135 -50.5t-55 -123.5q0 -72 55 -121.5t135 -49.5t135 49.5t55 121.5t-55.5 123t-134.5 51zM467 1520q136 0 225 -95q92 -90 92 -225q0 -132 -92.5 -223.5t-226.5 -91.5q-135 0 -225 90t-90 225q0 134 92 227t225 93z" />
    <glyph glyph-name="plusminus" unicode="&#xb1;" horiz-adv-x="1581" 
d="M707 897v387h168v-387h557v-170h-557v-387h-168v387h-557v170h557zM1432 0h-1282v190h1282v-190z" />
    <glyph glyph-name="twosuperior" unicode="&#xb2;" horiz-adv-x="897" 
d="M324 833h424v-165h-598v161q48 44 97 87q41 36 90.5 79t78.5 68t62 54.5t50.5 47.5t33.5 37.5t22.5 34t6.5 27.5q0 66 -52 106.5t-137 40.5q-103 0 -246 -70v123q156 56 267 56q144 0 231.5 -66t87.5 -174q0 -61 -63.5 -129.5t-240.5 -219.5q-18 -15 -27 -23
q-55 -48 -87 -75z" />
    <glyph glyph-name="threesuperior" unicode="&#xb3;" horiz-adv-x="918" 
d="M576 1120q92 -18 142.5 -72.5t50.5 -136.5q0 -124 -95 -191t-272 -67q-111 0 -252 41l9 165q102 -53 238 -53q120 0 170 20t50 85q0 150 -219 150h-86v108h94q94 0 142.5 31.5t48.5 91.5q0 58 -50 88.5t-145 30.5q-80 0 -223 -41v115q148 35 256 35q144 0 228.5 -59
t84.5 -158q0 -69 -45 -117t-127 -66z" />
    <glyph glyph-name="acute" unicode="&#xb4;" horiz-adv-x="832" 
d="M320 1320h-170l312 418h221z" />
    <glyph glyph-name="paragraph" unicode="&#xb6;" horiz-adv-x="1432" 
d="M625 1493h438l220 -1690h-361l10 1567h-190v-1567h-322l70 846q-55 9 -112.5 42t-109.5 85t-85 130t-33 165q0 190 130 306t345 116z" />
    <glyph glyph-name="periodcentered" unicode="&#xb7;" horiz-adv-x="510" 
d="M361 584h-211v254h211v-254z" />
    <glyph glyph-name="cedilla" unicode="&#xb8;" horiz-adv-x="713" 
d="M336 0h119q109 -124 109 -215q0 -180 -238 -180q-90 0 -176 24v131q63 -32 155 -32q119 0 119 94q0 59 -88 178z" />
    <glyph glyph-name="onesuperior" unicode="&#xb9;" horiz-adv-x="871" 
d="M722 668h-553v184h204v537l-223 -41v116l230 39h137v-651h205v-184z" />
    <glyph glyph-name="ordmasculine" unicode="&#xba;" horiz-adv-x="1071" 
d="M881 469h-688v123h688v-123zM537 1520q179 0 282 -110.5t103 -301.5t-103 -300.5t-282 -109.5t-283 110t-104 300q0 191 104 301.5t283 110.5zM537 1442q-105 0 -168 -68t-63 -183q0 -113 63 -180.5t168 -67.5t167.5 67.5t62.5 180.5q0 116 -62 183.5t-168 67.5z" />
    <glyph glyph-name="guillemotright" unicode="&#xbb;" horiz-adv-x="1250" 
d="M465 609l-287 283l10 191l447 -442l33 -124l-490 -393l-28 233zM898 586l-287 283l10 191l447 -442l33 -124l-490 -393l-28 233z" />
    <glyph glyph-name="onequarter" unicode="&#xbc;" horiz-adv-x="1971" 
d="M722 668h-553v110h204v611l-223 -41v116l230 39h137v-725h205v-110zM659 -29h-160l932 1549h160zM1234 297h309v419zM1129 188v121l392 528h166v-540h135v-109h-135v-186h-144v186h-414z" />
    <glyph glyph-name="onehalf" unicode="&#xbd;" horiz-adv-x="1980" 
d="M722 668h-553v110h204v611l-223 -41v116l230 39h137v-725h205v-110zM609 -29h-160l932 1549h160zM1407 116h424v-114h-598v110q48 44 97 87q344 305 344 399q0 66 -52 106.5t-137 40.5q-103 0 -246 -70v123q156 56 267 56q144 0 231.5 -66t87.5 -174q0 -140 -331 -423
q-56 -48 -87 -75z" />
    <glyph glyph-name="threequarters" unicode="&#xbe;" horiz-adv-x="1959" 
d="M576 1120q92 -18 142.5 -72.5t50.5 -136.5q0 -124 -95 -191t-272 -67q-111 0 -252 41v121q102 -53 238 -53q108 0 168.5 39.5t60.5 109.5q0 150 -219 150h-86v108h94q94 0 142.5 31.5t48.5 91.5q0 58 -50 88.5t-145 30.5q-80 0 -223 -41v115q148 35 256 35
q144 0 228.5 -59t84.5 -158q0 -69 -45 -117t-127 -66zM687 -29h-160l932 1549h160zM1222 297h309v419zM1117 188v121l392 528h166v-540h135v-109h-135v-186h-144v186h-414z" />
    <glyph glyph-name="questiondown" unicode="&#xbf;" horiz-adv-x="1096" 
d="M507 969v123h160v-156q0 -52 -3.5 -81.5t-21 -61t-32 -49t-58.5 -66.5l-90 -88q-109 -101 -109 -196q0 -89 66 -144t174 -55q157 0 354 137v-248q-186 -113 -389 -113q-184 0 -296 97t-112 256q0 76 37 145t125 154l88 86q78 77 94 125q13 40 13 135zM501 1493h202v-254
h-202v254z" />
    <glyph glyph-name="Agrave" unicode="&#xc0;" horiz-adv-x="1667" 
d="M560 481h549l-275 828zM423 0h-273l590 1493h189l589 -1493h-290l-56 243h-673zM721 1574l-206 374h197l282 -374h-273z" />
    <glyph glyph-name="Aacute" unicode="&#xc1;" horiz-adv-x="1667" 
d="M560 481h549l-275 828zM423 0h-273l590 1493h189l589 -1493h-290l-56 243h-673zM898 1550h-170l312 418h221z" />
    <glyph glyph-name="Acircumflex" unicode="&#xc2;" horiz-adv-x="1667" 
d="M560 481h549l-275 828zM423 0h-273l590 1493h189l589 -1493h-290l-56 243h-673zM665 1492h-139l245 376h148l245 -376h-139l-180 245z" />
    <glyph glyph-name="Atilde" unicode="&#xc3;" horiz-adv-x="1667" 
d="M560 481h549l-275 828zM423 0h-273l590 1493h189l589 -1493h-290l-56 243h-673zM841 1600l-57 55q-42 39 -68 39q-38 0 -56 -36q-19 -39 -20 -119h-125q2 135 53 208.5t142 73.5q71 0 139 -61l57 -55q42 -39 68 -39q38 0 56 37q19 37 20 118h125q-2 -135 -53 -208.5
t-142 -73.5q-71 0 -139 61z" />
    <glyph glyph-name="Adieresis" unicode="&#xc4;" horiz-adv-x="1667" 
d="M560 481h549l-275 828zM423 0h-273l590 1493h189l589 -1493h-290l-56 243h-673zM1163 1580h-218v217h218v-217zM744 1580h-218v217h218v-217z" />
    <glyph glyph-name="Aring" unicode="&#xc5;" horiz-adv-x="1667" 
d="M560 481h549l-275 828zM423 0h-273l590 1493h189l589 -1493h-290l-56 243h-673zM997 1754q0 63 -44 107t-108 44q-65 0 -108.5 -43.5t-43.5 -107.5q0 -65 43.5 -108.5t108.5 -43.5q64 0 108 44t44 108zM1119 1754q0 -115 -79.5 -195t-194.5 -80t-194.5 80t-79.5 195
t79.5 194.5t194.5 79.5t194.5 -79.5t79.5 -194.5z" />
    <glyph glyph-name="AE" unicode="&#xc6;" horiz-adv-x="2172" 
d="M103 0l625 1493h1212v-170h-741v-612h711v-170h-711v-281h760v-260h-963v263h-528l10 -263h-375zM996 431v904h-129l-330 -904h459z" />
    <glyph glyph-name="Ccedilla" unicode="&#xc7;" horiz-adv-x="1503" 
d="M1354 1378v-213q-202 189 -463 189q-256 0 -392 -156.5t-136 -452.5q4 -254 133.5 -361t394.5 -107q261 0 463 189v-351q-212 -144 -475 -144q-339 0 -534 207.5t-195 566.5q0 360 195 567.5t534 207.5q267 0 475 -142zM762 0h119q109 -124 109 -215q0 -180 -238 -180
q-90 0 -176 24v131q63 -32 155 -32q119 0 119 94q0 59 -88 178z" />
    <glyph glyph-name="Egrave" unicode="&#xc8;" horiz-adv-x="1261" 
d="M1112 0h-962v1493h944v-170h-742v-442h711v-170h-711v-401h760v-310zM475 1667l-206 374h197l282 -374h-273z" />
    <glyph glyph-name="Eacute" unicode="&#xc9;" horiz-adv-x="1261" 
d="M1112 0h-962v1493h944v-170h-742v-442h711v-170h-711v-401h760v-310zM652 1643h-170l312 418h221z" />
    <glyph glyph-name="Ecircumflex" unicode="&#xca;" horiz-adv-x="1261" 
d="M1112 0h-962v1493h944v-170h-742v-442h711v-170h-711v-401h760v-310zM419 1585h-139l245 376h148l245 -376h-139l-180 245z" />
    <glyph glyph-name="Edieresis" unicode="&#xcb;" horiz-adv-x="1261" 
d="M1112 0h-962v1493h944v-170h-742v-442h711v-170h-711v-401h760v-310zM917 1673h-218v217h218v-217zM498 1673h-218v217h218v-217z" />
    <glyph glyph-name="Igrave" unicode="&#xcc;" horiz-adv-x="541" 
d="M392 0h-242q11 174 18 381.5t9.5 356.5t6.5 390t6 365h172q1 -104 4 -455.5t8.5 -582t17.5 -455.5zM157 1717l-206 374h197l282 -374h-273z" />
    <glyph glyph-name="Iacute" unicode="&#xcd;" horiz-adv-x="541" 
d="M392 0h-242q11 174 18 381.5t9.5 356.5t6.5 390t6 365h172q1 -104 4 -455.5t8.5 -582t17.5 -455.5zM334 1693h-170l312 418h221z" />
    <glyph glyph-name="Icircumflex" unicode="&#xce;" horiz-adv-x="541" 
d="M392 0h-242q11 174 18 381.5t9.5 356.5t6.5 390t6 365h172q1 -104 4 -455.5t8.5 -582t17.5 -455.5zM101 1635h-139l245 376h148l245 -376h-139l-180 245z" />
    <glyph glyph-name="Idieresis" unicode="&#xcf;" horiz-adv-x="541" 
d="M392 0h-242q11 174 18 381.5t9.5 356.5t6.5 390t6 365h172q1 -104 4 -455.5t8.5 -582t17.5 -455.5zM599 1723h-218v217h218v-217zM180 1723h-218v217h218v-217z" />
    <glyph glyph-name="Eth" unicode="&#xd0;" horiz-adv-x="1770" 
d="M134 844h201v649h416q433 0 636 -180.5t203 -564.5q0 -386 -203.5 -567t-635.5 -181h-416v700h-201v144zM781 1327h-243v-483h336v-144h-336v-394h243q67 0 117 1.5t103 6t91 12t76.5 20t65 30.5t52 42.5t41 56.5t27.5 72.5t17.5 90.5t5.5 110q0 300 -143.5 439.5
t-452.5 139.5z" />
    <glyph glyph-name="Ntilde" unicode="&#xd1;" horiz-adv-x="1449" 
d="M406 0h-256l40 1463h252l642 -1179l30 1209h186v-1493h-292l-662 1249zM733 1743l-57 55q-42 39 -68 39q-38 0 -56 -36q-19 -39 -20 -119h-125q2 135 53 208.5t142 73.5q71 0 139 -61l57 -55q42 -39 68 -39q38 0 56 37q19 37 20 118h125q-2 -135 -53 -208.5t-142 -73.5
q-71 0 -139 61z" />
    <glyph glyph-name="Ograve" unicode="&#xd2;" horiz-adv-x="1681" 
d="M842 1356q-220 0 -349.5 -164.5t-129.5 -446.5q0 -113 32.5 -190.5t98 -120.5t149 -61t199.5 -18t199 18t148 61t97.5 120.5t32.5 190.5q0 282 -128.5 446.5t-348.5 164.5zM842 1520q314 0 502 -210.5t188 -564.5q0 -353 -188 -563.5t-502 -210.5q-315 0 -503.5 210
t-188.5 564t188.5 564.5t503.5 210.5zM717 1717l-206 374h197l282 -374h-273z" />
    <glyph glyph-name="Oacute" unicode="&#xd3;" horiz-adv-x="1681" 
d="M842 1356q-220 0 -349.5 -164.5t-129.5 -446.5q0 -113 32.5 -190.5t98 -120.5t149 -61t199.5 -18t199 18t148 61t97.5 120.5t32.5 190.5q0 282 -128.5 446.5t-348.5 164.5zM842 1520q314 0 502 -210.5t188 -564.5q0 -353 -188 -563.5t-502 -210.5q-315 0 -503.5 210
t-188.5 564t188.5 564.5t503.5 210.5zM894 1693h-170l312 418h221z" />
    <glyph glyph-name="Ocircumflex" unicode="&#xd4;" horiz-adv-x="1681" 
d="M842 1356q-220 0 -349.5 -164.5t-129.5 -446.5q0 -113 32.5 -190.5t98 -120.5t149 -61t199.5 -18t199 18t148 61t97.5 120.5t32.5 190.5q0 282 -128.5 446.5t-348.5 164.5zM842 1520q314 0 502 -210.5t188 -564.5q0 -353 -188 -563.5t-502 -210.5q-315 0 -503.5 210
t-188.5 564t188.5 564.5t503.5 210.5zM661 1635h-139l245 376h148l245 -376h-139l-180 245z" />
    <glyph glyph-name="Otilde" unicode="&#xd5;" horiz-adv-x="1681" 
d="M842 1356q-220 0 -349.5 -164.5t-129.5 -446.5q0 -113 32.5 -190.5t98 -120.5t149 -61t199.5 -18t199 18t148 61t97.5 120.5t32.5 190.5q0 282 -128.5 446.5t-348.5 164.5zM842 1520q314 0 502 -210.5t188 -564.5q0 -353 -188 -563.5t-502 -210.5q-315 0 -503.5 210
t-188.5 564t188.5 564.5t503.5 210.5zM837 1743l-57 55q-42 39 -68 39q-38 0 -56 -36q-19 -39 -20 -119h-125q2 135 53 208.5t142 73.5q71 0 139 -61l57 -55q42 -39 68 -39q38 0 56 37q19 37 20 118h125q-2 -135 -53 -208.5t-142 -73.5q-71 0 -139 61z" />
    <glyph glyph-name="Odieresis" unicode="&#xd6;" horiz-adv-x="1681" 
d="M842 1356q-220 0 -349.5 -164.5t-129.5 -446.5q0 -113 32.5 -190.5t98 -120.5t149 -61t199.5 -18t199 18t148 61t97.5 120.5t32.5 190.5q0 282 -128.5 446.5t-348.5 164.5zM842 1520q314 0 502 -210.5t188 -564.5q0 -353 -188 -563.5t-502 -210.5q-315 0 -503.5 210
t-188.5 564t188.5 564.5t503.5 210.5zM1159 1723h-218v217h218v-217zM740 1723h-218v217h218v-217z" />
    <glyph glyph-name="multiply" unicode="&#xd7;" horiz-adv-x="1404" 
d="M697 832l389 389l169 -171l-387 -389l377 -377l-169 -171l-379 379l-379 -379l-168 171l376 377l-356 359l168 171z" />
    <glyph glyph-name="Oslash" unicode="&#xd8;" horiz-adv-x="1681" 
d="M842 1356q-220 0 -349.5 -164.5t-129.5 -446.5q0 -113 32.5 -190.5t98 -120.5t149 -61t199.5 -18t199 18t148 61t97.5 120.5t32.5 190.5q0 282 -128.5 446.5t-348.5 164.5zM842 1520q314 0 502 -210.5t188 -564.5q0 -353 -188 -563.5t-502 -210.5q-315 0 -503.5 210
t-188.5 564t188.5 564.5t503.5 210.5zM742 -84l-230 8l578 1664l150 -5z" />
    <glyph glyph-name="Ugrave" unicode="&#xd9;" horiz-adv-x="1442" 
d="M150 561v932h213l-20 -767q-6 -236 87.5 -343.5t291.5 -107.5q197 0 290 107.5t87 343.5l-19 767h213v-932q0 -292 -144.5 -441t-426.5 -149q-283 0 -427.5 149t-144.5 441zM597 1717l-206 374h197l282 -374h-273z" />
    <glyph glyph-name="Uacute" unicode="&#xda;" horiz-adv-x="1442" 
d="M150 561v932h213l-20 -767q-6 -236 87.5 -343.5t291.5 -107.5q197 0 290 107.5t87 343.5l-19 767h213v-932q0 -292 -144.5 -441t-426.5 -149q-283 0 -427.5 149t-144.5 441zM774 1693h-170l312 418h221z" />
    <glyph glyph-name="Ucircumflex" unicode="&#xdb;" horiz-adv-x="1442" 
d="M150 561v932h213l-20 -767q-6 -236 87.5 -343.5t291.5 -107.5q197 0 290 107.5t87 343.5l-19 767h213v-932q0 -292 -144.5 -441t-426.5 -149q-283 0 -427.5 149t-144.5 441zM541 1635h-139l245 376h148l245 -376h-139l-180 245z" />
    <glyph glyph-name="Udieresis" unicode="&#xdc;" horiz-adv-x="1442" 
d="M150 561v932h213l-20 -767q-6 -236 87.5 -343.5t291.5 -107.5q197 0 290 107.5t87 343.5l-19 767h213v-932q0 -292 -144.5 -441t-426.5 -149q-283 0 -427.5 149t-144.5 441zM1039 1723h-218v217h218v-217zM620 1723h-218v217h218v-217z" />
    <glyph glyph-name="Yacute" unicode="&#xdd;" horiz-adv-x="1558" 
d="M638 0v511l-488 982h217l414 -764l411 764h217l-498 -982v-511h-273zM831 1693h-170l312 418h221z" />
    <glyph glyph-name="Thorn" unicode="&#xde;" horiz-adv-x="1263" 
d="M352 0h-202v1493h202v-264h254q251 0 379.5 -112.5t128.5 -332.5t-128.5 -333t-379.5 -113h-254v-338zM606 1063h-254v-559h254q141 0 218 73t77 207t-76.5 206.5t-218.5 72.5z" />
    <glyph glyph-name="germandbls" unicode="&#xdf;" horiz-adv-x="1421" 
d="M490 0h-277l60 1137q0 200 119.5 309.5t337.5 109.5q208 0 317.5 -116t112.5 -340q-151 -8 -235 -65.5t-84 -153.5q0 -47 29 -87.5t94 -82.5l57 -37q83 -53 134 -94.5t79.5 -83t38.5 -79.5t10 -91q0 -172 -112.5 -263.5t-323.5 -91.5q-124 0 -273 49v244q158 -59 285 -59
q116 0 176 32.5t60 93.5q0 42 -29 85q-30 42 -131 104l-82 55q-72 93 -94 135q-39 75 -39 150q0 68 14 118t49 94t101 73t164 43q-22 52 -43 91t-39.5 66.5t-41 45.5t-41 28.5t-46.5 15.5t-50.5 6.5t-60.5 1.5q-132 0 -199 -70.5t-87 -239.5z" />
    <glyph glyph-name="agrave" unicode="&#xe0;" horiz-adv-x="1245" 
d="M527 1344l-206 374h197l282 -374h-273zM967 950l-1 170h158l-3 -1119l-154 -2v169q-114 -197 -359 -197q-204 0 -331 162.5t-127 425.5t127 425.5t331 162.5q245 0 359 -197zM282 579q23 -147 93 -210t215 -63q78 0 123.5 10t79.5 41.5t50.5 86.5t26.5 149
q11 420 -275 420q-146 0 -229.5 -115.5t-83.5 -318.5z" />
    <glyph glyph-name="aacute" unicode="&#xe1;" horiz-adv-x="1245" 
d="M704 1320h-170l312 418h221zM967 950l-1 170h158l-3 -1119l-154 -2v169q-114 -197 -359 -197q-204 0 -331 162.5t-127 425.5t127 425.5t331 162.5q245 0 359 -197zM282 579q23 -147 93 -210t215 -63q78 0 123.5 10t79.5 41.5t50.5 86.5t26.5 149q11 420 -275 420
q-146 0 -229.5 -115.5t-83.5 -318.5z" />
    <glyph glyph-name="acircumflex" unicode="&#xe2;" horiz-adv-x="1245" 
d="M471 1262h-139l245 376h148l245 -376h-139l-180 245zM967 950l-1 170h158l-3 -1119l-154 -2v169q-114 -197 -359 -197q-204 0 -331 162.5t-127 425.5t127 425.5t331 162.5q245 0 359 -197zM282 579q23 -147 93 -210t215 -63q78 0 123.5 10t79.5 41.5t50.5 86.5t26.5 149
q11 420 -275 420q-146 0 -229.5 -115.5t-83.5 -318.5z" />
    <glyph glyph-name="atilde" unicode="&#xe3;" horiz-adv-x="1245" 
d="M647 1370l-57 55q-42 39 -68 39q-38 0 -56 -36q-19 -39 -20 -119h-125q2 135 53 208.5t142 73.5q71 0 139 -61l57 -55q42 -39 68 -39q38 0 56 37q19 37 20 118h125q-2 -135 -53 -208.5t-142 -73.5q-71 0 -139 61zM967 950l-1 170h158l-3 -1119l-154 -2v169
q-114 -197 -359 -197q-204 0 -331 162.5t-127 425.5t127 425.5t331 162.5q245 0 359 -197zM282 579q23 -147 93 -210t215 -63q78 0 123.5 10t79.5 41.5t50.5 86.5t26.5 149q11 420 -275 420q-146 0 -229.5 -115.5t-83.5 -318.5z" />
    <glyph glyph-name="adieresis" unicode="&#xe4;" horiz-adv-x="1245" 
d="M969 1350h-218v217h218v-217zM550 1350h-218v217h218v-217zM967 950l-1 170h158l-3 -1119l-154 -2v169q-114 -197 -359 -197q-204 0 -331 162.5t-127 425.5t127 425.5t331 162.5q245 0 359 -197zM282 579q23 -147 93 -210t215 -63q78 0 123.5 10t79.5 41.5t50.5 86.5
t26.5 149q11 420 -275 420q-146 0 -229.5 -115.5t-83.5 -318.5z" />
    <glyph glyph-name="aring" unicode="&#xe5;" horiz-adv-x="1245" 
d="M803 1524q0 63 -44 107t-108 44q-65 0 -108.5 -43.5t-43.5 -107.5q0 -65 43.5 -108.5t108.5 -43.5q64 0 108 44t44 108zM925 1524q0 -115 -79.5 -195t-194.5 -80t-194.5 80t-79.5 195t79.5 194.5t194.5 79.5t194.5 -79.5t79.5 -194.5zM967 950l-1 170h158l-3 -1119
l-154 -2v169q-114 -197 -359 -197q-204 0 -331 162.5t-127 425.5t127 425.5t331 162.5q245 0 359 -197zM282 579q23 -147 93 -210t215 -63q78 0 123.5 10t79.5 41.5t50.5 86.5t26.5 149q11 420 -275 420q-146 0 -229.5 -115.5t-83.5 -318.5z" />
    <glyph glyph-name="ae" unicode="&#xe6;" horiz-adv-x="2217" 
d="M1164 719l655 1q0 55 -22.5 112t-60.5 104.5t-96 78t-124 30.5q-74 0 -138 -29t-108 -76t-71.5 -104t-34.5 -117zM1096 963q152 184 418 184q146 0 259.5 -68t172 -176.5t58.5 -236.5v-90h-846q13 -139 118.5 -235t280.5 -96q205 0 404 106v-264q-92 -39 -140 -57.5
t-128 -38.5t-146 -20q-337 0 -492 240q-145 -240 -432 -240q-189 0 -294 93.5t-105 261.5q0 242 122 341.5t382 99.5h258v18q0 35 -22 76.5t-61 80t-101.5 64t-133.5 25.5q-193 0 -362 -92v130q202 78 381 78q142 0 248.5 -48t160.5 -136zM986 590v33h-183q-95 0 -156 -5
t-110.5 -19t-75.5 -40t-39.5 -65.5t-13.5 -98.5q0 -78 64.5 -124t175.5 -46q159 0 248.5 89.5t89.5 275.5z" />
    <glyph glyph-name="ccedilla" unicode="&#xe7;" horiz-adv-x="1185" 
d="M1036 1077v-162q-157 86 -315 86q-177 0 -272 -117t-95 -325q14 -142 95.5 -201.5t263.5 -69.5q13 0 61.5 -1t69.5 0t59 5t68.5 14t60.5 26l4 -289q-154 -72 -335 -72q-253 0 -402 159t-149 429q0 274 150.5 431t412.5 157q173 0 323 -70zM614 0h119q109 -124 109 -215
q0 -180 -238 -180q-90 0 -176 24v131q63 -32 155 -32q119 0 119 94q0 59 -88 178z" />
    <glyph glyph-name="egrave" unicode="&#xe8;" 
d="M1178 676v-70h-836q1 -88 20 -151t50 -102t83.5 -62t107.5 -33t135 -14q75 0 108.5 1t93.5 6.5t107.5 20t94.5 39.5l4 -254q-204 -86 -415 -86q-270 10 -425.5 162t-155.5 416q10 278 154.5 438t395.5 160q228 -10 343.5 -122t134.5 -349zM362 766l656 1q-8 48 -33.5 97
t-64.5 91t-96.5 68.5t-122.5 26.5q-74 0 -139 -25.5t-108 -66t-67.5 -91t-24.5 -101.5zM549 1344l-206 374h197l282 -374h-273z" />
    <glyph glyph-name="eacute" unicode="&#xe9;" 
d="M1178 676v-70h-836q1 -88 20 -151t50 -102t83.5 -62t107.5 -33t135 -14q75 0 108.5 1t93.5 6.5t107.5 20t94.5 39.5l4 -254q-204 -86 -415 -86q-270 10 -425.5 162t-155.5 416q10 278 154.5 438t395.5 160q228 -10 343.5 -122t134.5 -349zM362 766l656 1q-8 48 -33.5 97
t-64.5 91t-96.5 68.5t-122.5 26.5q-74 0 -139 -25.5t-108 -66t-67.5 -91t-24.5 -101.5zM726 1320h-170l312 418h221z" />
    <glyph glyph-name="ecircumflex" unicode="&#xea;" 
d="M1178 676v-70h-836q1 -88 20 -151t50 -102t83.5 -62t107.5 -33t135 -14q75 0 108.5 1t93.5 6.5t107.5 20t94.5 39.5l4 -254q-204 -86 -415 -86q-270 10 -425.5 162t-155.5 416q10 278 154.5 438t395.5 160q228 -10 343.5 -122t134.5 -349zM362 766l656 1q-8 48 -33.5 97
t-64.5 91t-96.5 68.5t-122.5 26.5q-74 0 -139 -25.5t-108 -66t-67.5 -91t-24.5 -101.5zM493 1262h-139l245 376h148l245 -376h-139l-180 245z" />
    <glyph glyph-name="edieresis" unicode="&#xeb;" 
d="M1178 676v-70h-836q1 -88 20 -151t50 -102t83.5 -62t107.5 -33t135 -14q75 0 108.5 1t93.5 6.5t107.5 20t94.5 39.5l4 -254q-204 -86 -415 -86q-270 10 -425.5 162t-155.5 416q10 278 154.5 438t395.5 160q228 -10 343.5 -122t134.5 -349zM362 766l656 1q-8 48 -33.5 97
t-64.5 91t-96.5 68.5t-122.5 26.5q-74 0 -139 -25.5t-108 -66t-67.5 -91t-24.5 -101.5zM991 1350h-218v217h218v-217zM572 1350h-218v217h218v-217z" />
    <glyph glyph-name="igrave" unicode="&#xec;" horiz-adv-x="784" 
d="M635 0h-184v1120h184v-1120zM356 1264l-206 374h197l282 -374h-273z" />
    <glyph glyph-name="iacute" unicode="&#xed;" horiz-adv-x="832" 
d="M443 0h-184v1120h184v-1120zM320 1220h-170l312 418h221z" />
    <glyph glyph-name="icircumflex" unicode="&#xee;" horiz-adv-x="937" 
d="M616 0h-184v1120h184v-1120zM289 1262h-139l245 376h148l245 -376h-139l-180 245z" />
    <glyph glyph-name="idieresis" unicode="&#xef;" horiz-adv-x="936" 
d="M559 0h-184v1120h184v-1120zM787 1350h-218v217h218v-217zM368 1350h-218v217h218v-217z" />
    <glyph glyph-name="eth" unicode="&#xf0;" 
d="M875 915q-96 33 -179 33q-167 0 -259.5 -108t-92.5 -303q0 -41 5 -75t12.5 -59.5t22.5 -45t29 -33t37.5 -23t43.5 -14.5t51.5 -8t56 -3.5t62.5 -0.5q49 0 79 1.5t68 7t60.5 16t46.5 29.5t36.5 46.5t20.5 68t8 93.5q0 241 -108 378zM1069 1425l-295 -98l164 -186
q126 -143 183 -287t57 -317q0 -255 -141.5 -410.5t-372.5 -155.5t-372.5 155.5t-141.5 410.5q0 250 138 405.5t359 155.5q32 0 112 -10l-159 180l-319 -107l-33 99l281 92l-181 204h228l127 -145l333 111z" />
    <glyph glyph-name="ntilde" unicode="&#xf1;" horiz-adv-x="1307" 
d="M1128 676l30 -676h-264l40 680q0 162 -53.5 239.5t-174.5 77.5q-165 0 -248 -93t-83 -261l30 -643h-255l30 1130h185v-134q41 32 73.5 53.5t80 46.5t100.5 38t108 13q381 0 401 -471zM631 1370l-57 55q-42 39 -68 39q-38 0 -56 -36q-19 -39 -20 -119h-125q2 135 53 208.5
t142 73.5q71 0 139 -61l57 -55q42 -39 68 -39q38 0 56 37q19 37 20 118h125q-2 -135 -53 -208.5t-142 -73.5q-71 0 -139 61z" />
    <glyph glyph-name="ograve" unicode="&#xf2;" 
d="M664 1011q-148 0 -234 -112.5t-86 -307.5q0 -77 15 -131.5t40 -87.5t67 -51.5t87.5 -25t110.5 -6.5q64 0 109 6.5t87 25t67.5 51.5t40.5 87.5t15 131.5q0 193 -86 306.5t-233 113.5zM664 1147q240 0 377 -156t137 -432q0 -275 -137 -431.5t-377 -156.5
q-241 0 -377.5 156.5t-136.5 431.5q0 276 136.5 432t377.5 156zM540 1344l-206 374h197l282 -374h-273z" />
    <glyph glyph-name="oacute" unicode="&#xf3;" 
d="M664 1011q-148 0 -234 -112.5t-86 -307.5q0 -77 15 -131.5t40 -87.5t67 -51.5t87.5 -25t110.5 -6.5q64 0 109 6.5t87 25t67.5 51.5t40.5 87.5t15 131.5q0 193 -86 306.5t-233 113.5zM664 1147q240 0 377 -156t137 -432q0 -275 -137 -431.5t-377 -156.5
q-241 0 -377.5 156.5t-136.5 431.5q0 276 136.5 432t377.5 156zM717 1320h-170l312 418h221z" />
    <glyph glyph-name="ocircumflex" unicode="&#xf4;" 
d="M664 1011q-148 0 -234 -112.5t-86 -307.5q0 -77 15 -131.5t40 -87.5t67 -51.5t87.5 -25t110.5 -6.5q64 0 109 6.5t87 25t67.5 51.5t40.5 87.5t15 131.5q0 193 -86 306.5t-233 113.5zM664 1147q240 0 377 -156t137 -432q0 -275 -137 -431.5t-377 -156.5
q-241 0 -377.5 156.5t-136.5 431.5q0 276 136.5 432t377.5 156zM484 1262h-139l245 376h148l245 -376h-139l-180 245z" />
    <glyph glyph-name="otilde" unicode="&#xf5;" 
d="M664 1011q-148 0 -234 -112.5t-86 -307.5q0 -77 15 -131.5t40 -87.5t67 -51.5t87.5 -25t110.5 -6.5q64 0 109 6.5t87 25t67.5 51.5t40.5 87.5t15 131.5q0 193 -86 306.5t-233 113.5zM664 1147q240 0 377 -156t137 -432q0 -275 -137 -431.5t-377 -156.5
q-241 0 -377.5 156.5t-136.5 431.5q0 276 136.5 432t377.5 156zM660 1370l-57 55q-42 39 -68 39q-38 0 -56 -36q-19 -39 -20 -119h-125q2 135 53 208.5t142 73.5q71 0 139 -61l57 -55q42 -39 68 -39q38 0 56 37q19 37 20 118h125q-2 -135 -53 -208.5t-142 -73.5
q-71 0 -139 61z" />
    <glyph glyph-name="odieresis" unicode="&#xf6;" 
d="M664 1011q-148 0 -234 -112.5t-86 -307.5q0 -77 15 -131.5t40 -87.5t67 -51.5t87.5 -25t110.5 -6.5q64 0 109 6.5t87 25t67.5 51.5t40.5 87.5t15 131.5q0 193 -86 306.5t-233 113.5zM664 1147q240 0 377 -156t137 -432q0 -275 -137 -431.5t-377 -156.5
q-241 0 -377.5 156.5t-136.5 431.5q0 276 136.5 432t377.5 156zM982 1350h-218v217h218v-217zM563 1350h-218v217h218v-217z" />
    <glyph glyph-name="divide" unicode="&#xf7;" horiz-adv-x="1631" 
d="M964 889h-296v296h296v-296zM964 50h-296v295h296v-295zM1482 507h-1332v220h1332v-220z" />
    <glyph glyph-name="oslash" unicode="&#xf8;" horiz-adv-x="1409" 
d="M983 801l-487 -592q81 -82 209 -82q147 0 233 116t86 316q0 153 -41 242zM424 317l488 592q-83 82 -207 82q-151 0 -235.5 -117.5t-84.5 -328.5q0 -140 39 -228zM246 -94l-96 78l149 182q-108 154 -108 393q0 276 136.5 432t377.5 156q186 0 319 -103l139 168l95 -79
l-146 -179q107 -155 107 -395q0 -275 -137 -431.5t-377 -156.5q-193 0 -320 103z" />
    <glyph glyph-name="ugrave" unicode="&#xf9;" horiz-adv-x="1247" 
d="M150 442v678h154v-511q10 -162 68.5 -240t179.5 -78q147 0 229.5 93.5t92.5 260.5l20 475h204l-20 -1120h-184l10 172q-132 -201 -361 -201q-193 0 -293 120t-100 351zM507 1344l-206 374h197l282 -374h-273z" />
    <glyph glyph-name="uacute" unicode="&#xfa;" horiz-adv-x="1247" 
d="M150 442v678h154v-511q10 -162 68.5 -240t179.5 -78q147 0 229.5 93.5t92.5 260.5l20 475h204l-20 -1120h-184l10 172q-132 -201 -361 -201q-193 0 -293 120t-100 351zM684 1320h-170l312 418h221z" />
    <glyph glyph-name="ucircumflex" unicode="&#xfb;" horiz-adv-x="1247" 
d="M150 442v678h154v-511q10 -162 68.5 -240t179.5 -78q147 0 229.5 93.5t92.5 260.5l20 475h204l-20 -1120h-184l10 172q-132 -201 -361 -201q-193 0 -293 120t-100 351zM451 1262h-139l245 376h148l245 -376h-139l-180 245z" />
    <glyph glyph-name="udieresis" unicode="&#xfc;" horiz-adv-x="1247" 
d="M150 442v678h154v-511q10 -162 68.5 -240t179.5 -78q147 0 229.5 93.5t92.5 260.5l20 475h204l-20 -1120h-184l10 172q-132 -201 -361 -201q-193 0 -293 120t-100 351zM949 1350h-218v217h218v-217zM530 1350h-218v217h218v-217z" />
    <glyph glyph-name="yacute" unicode="&#xfd;" horiz-adv-x="1389" 
d="M1045 1120h195l-472 -1224q-49 -109 -92 -177t-91 -104t-94 -48.5t-113 -12.5h-167v244h128q37 0 65 8t54 29.5t43 40t49 58.5l79 159l-479 1027h195l396 -651zM660 1320h-170l312 418h221z" />
    <glyph glyph-name="thorn" unicode="&#xfe;" horiz-adv-x="1277" 
d="M460 168v-594h-185v1982h185v-606q114 197 358 197q204 0 331.5 -162.5t127.5 -425.5t-127.5 -425.5t-331.5 -162.5q-244 0 -358 197zM1086 559q0 203 -83.5 318.5t-229.5 115.5t-229.5 -115.5t-83.5 -318.5t83.5 -318.5t229.5 -115.5t229.5 115.5t83.5 318.5z" />
    <glyph glyph-name="Cacute" unicode="&#x106;" horiz-adv-x="1503" 
d="M1354 1378v-213q-202 189 -463 189q-256 0 -392 -156.5t-136 -452.5q4 -254 133.5 -361t394.5 -107q261 0 463 189v-351q-212 -144 -475 -144q-339 0 -534 207.5t-195 566.5q0 360 195 567.5t534 207.5q267 0 475 -142zM836 1693h-170l312 418h221z" />
    <glyph glyph-name="cacute" unicode="&#x107;" horiz-adv-x="1185" 
d="M1036 1077v-162q-157 86 -315 86q-177 0 -272 -117t-95 -325q14 -142 95.5 -201.5t263.5 -69.5q13 0 61.5 -1t69.5 0t59 5t68.5 14t60.5 26l4 -289q-154 -72 -335 -72q-253 0 -402 159t-149 429q0 274 150.5 431t412.5 157q173 0 323 -70zM688 1320h-170l312 418h221z
" />
    <glyph glyph-name="Ccaron" unicode="&#x10c;" horiz-adv-x="1503" 
d="M1354 1378v-213q-202 189 -463 189q-256 0 -392 -156.5t-136 -452.5q4 -254 133.5 -361t394.5 -107q261 0 463 189v-351q-212 -144 -475 -144q-339 0 -534 207.5t-195 566.5q0 360 195 567.5t534 207.5q267 0 475 -142zM1102 2011l-245 -376h-148l-245 376h139l180 -245
l180 245h139z" />
    <glyph glyph-name="ccaron" unicode="&#x10d;" horiz-adv-x="1185" 
d="M1036 1077v-162q-157 86 -315 86q-177 0 -272 -117t-95 -325q14 -142 95.5 -201.5t263.5 -69.5q13 0 61.5 -1t69.5 0t59 5t68.5 14t60.5 26l4 -289q-154 -72 -335 -72q-253 0 -402 159t-149 429q0 274 150.5 431t412.5 157q173 0 323 -70zM954 1638l-245 -376h-148
l-245 376h139l180 -245l180 245h139z" />
    <glyph glyph-name="dcroat" unicode="&#x111;" horiz-adv-x="1454" 
d="M967 950v334h-326v125h326v147h184v-147h154v-125h-154v-1284h-184v168q-114 -197 -359 -197q-204 0 -331 162.5t-127 425.5t127 425.5t331 162.5q245 0 359 -197zM340 602q0 -183 83.5 -287t229.5 -104t230 104t84 287t-84 287t-230 104t-229.5 -104t-83.5 -287z" />
    <glyph glyph-name="Gbreve" unicode="&#x11e;" horiz-adv-x="1603" 
d="M1224 373v161h-320v216h550v-611q-236 -168 -559 -168q-351 0 -548 204.5t-197 569.5q0 366 197 570.5t548 204.5q294 0 520 -142v-195q-224 191 -503 191q-549 0 -549 -609q5 -137 39 -228t104.5 -144t167 -74.5t238.5 -21.5q240 0 312 76zM514 1981h118
q23 -150 195 -150q170 0 195 150h118q-20 -287 -313 -287t-313 287z" />
    <glyph glyph-name="gbreve" unicode="&#x11f;" horiz-adv-x="1320" 
d="M887 584q0 200 -82.5 310t-231.5 110q-148 0 -230.5 -110t-82.5 -310q7 -67 17.5 -113.5t29 -78.5t38.5 -50.5t55.5 -28.5t69.5 -12.5t89 -2.5q69 0 112 4t88.5 20.5t70.5 46.5t41 83.5t16 131.5zM987 1120h184l-30 -981q-6 -193 -39 -323t-99.5 -208t-159.5 -111
t-228 -33q-191 0 -350 59v328q157 -86 321 -86q69 0 128 23t99 58.5t71 82.5t47.5 90.5t25.5 86.5v61q-51 -74 -141 -120.5t-208 -46.5q-206 0 -332 157t-126 416q0 260 125.5 417t332.5 157q246 0 359 -197zM369 1608h118q23 -150 195 -150q170 0 195 150h118
q-20 -287 -313 -287t-313 287z" />
    <glyph glyph-name="Idot" unicode="&#x130;" horiz-adv-x="541" 
d="M392 0h-242q11 174 18 381.5t9.5 356.5t6.5 390t6 365h172q1 -104 4 -455.5t8.5 -582t17.5 -455.5zM383 1721h-204v204h204v-204z" />
    <glyph glyph-name="dotlessi" unicode="&#x131;" horiz-adv-x="533" 
d="M384 0h-234q35 512 30 1120h164q-19 -543 40 -1120z" />
    <glyph glyph-name="Lslash" unicode="&#x141;" horiz-adv-x="1454" 
d="M150 575l225 158v760h203v-616l313 219l80 -111l-393 -274v-541h727v-170h-930v571l-148 -106z" />
    <glyph glyph-name="lslash" unicode="&#x142;" horiz-adv-x="617" 
d="M20 684l197 141v731h184v-602l125 90l76 -106l-201 -141v-797h-184v666l-123 -88z" />
    <glyph glyph-name="OE" unicode="&#x152;" horiz-adv-x="2333" 
d="M1074 1493h1047v-130h-742v-412h731v-170h-731v-501h760v-280h-1065q-433 0 -656.5 190t-223.5 558q0 366 224 555.5t656 189.5zM1048 280h129v1083h-129q-326 0 -483.5 -146t-157.5 -469q0 -73 25 -140.5t77.5 -127.5t127.5 -104.5t180.5 -70t230.5 -25.5z" />
    <glyph glyph-name="oe" unicode="&#x153;" horiz-adv-x="2305" 
d="M1254 799l655 1q-1 32 -23.5 72.5t-60 78.5t-96 64t-123.5 26q-72 0 -137.5 -24.5t-108.5 -62.5t-70.5 -78.5t-35.5 -76.5zM2094 756v-90h-846q3 -84 11.5 -150.5t24 -115.5t33 -84.5t46 -59t55 -37.5t67 -21t75.5 -9t87 -2q207 0 404 104v-234q-204 -86 -414 -86
q-320 0 -483 219q-142 -219 -420 -219q-241 0 -377.5 156.5t-136.5 431.5q0 276 136.5 432t377.5 156q283 0 417 -219q78 107 194 163t259 56q86 0 166 -28t137 -71.5t100.5 -96t65 -103.5t21.5 -92zM734 1021q-148 0 -234 -106.5t-86 -291.5t85.5 -291.5t234.5 -106.5
q147 0 233 107t86 291q0 183 -86 290.5t-233 107.5z" />
    <glyph glyph-name="Scedilla" unicode="&#x15e;" horiz-adv-x="1350" 
d="M1111 1444v-197q-228 109 -414 109q-165 0 -254.5 -64t-89.5 -182q0 -100 60.5 -150.5t224.5 -80.5l122 -25q225 -43 333 -151t108 -291q0 -217 -145.5 -329t-426.5 -112q-215 0 -473 95v318q248 -139 473 -139q161 0 261 64t100 138q0 66 -72.5 126t-216.5 89l-123 24
q-226 45 -327 141t-101 267q0 198 139.5 312t384.5 114q210 0 437 -76zM636 0h119q109 -124 109 -215q0 -180 -238 -180q-90 0 -176 24v131q63 -32 155 -32q119 0 119 94q0 59 -88 178z" />
    <glyph glyph-name="scedilla" unicode="&#x15f;" horiz-adv-x="1155" 
d="M946 1087v-154q-157 80 -336 80q-136 0 -210 -47t-74 -131q0 -75 54.5 -116t201.5 -74l63 -14q198 -42 279.5 -114t81.5 -208q0 -156 -124 -247t-339 -91q-179 0 -393 70v270q203 -106 397 -106q250 0 250 150q-32 59 -57 88q-23 26 -195 64l-64 15q-175 37 -249 102.5
t-74 192.5q0 158 112 244t318 86t358 -60zM540 0h119q109 -124 109 -215q0 -180 -238 -180q-90 0 -176 24v131q63 -32 155 -32q119 0 119 94q0 59 -88 178z" />
    <glyph glyph-name="Scaron" unicode="&#x160;" horiz-adv-x="1350" 
d="M1111 1444v-197q-228 109 -414 109q-165 0 -254.5 -64t-89.5 -182q0 -100 60.5 -150.5t224.5 -80.5l122 -25q225 -43 333 -151t108 -291q0 -217 -145.5 -329t-426.5 -112q-215 0 -473 95v318q248 -139 473 -139q161 0 261 64t100 138q0 66 -72.5 126t-216.5 89l-123 24
q-226 45 -327 141t-101 267q0 198 139.5 312t384.5 114q210 0 437 -76zM976 2011l-245 -376h-148l-245 376h139l180 -245l180 245h139z" />
    <glyph glyph-name="scaron" unicode="&#x161;" horiz-adv-x="1155" 
d="M946 1087v-154q-157 80 -336 80q-136 0 -210 -47t-74 -131q0 -75 54.5 -116t201.5 -74l63 -14q198 -42 279.5 -114t81.5 -208q0 -156 -124 -247t-339 -91q-179 0 -393 70v270q203 -106 397 -106q250 0 250 150q-32 59 -57 88q-23 26 -195 64l-64 15q-175 37 -249 102.5
t-74 192.5q0 158 112 244t318 86t358 -60zM880 1638l-245 -376h-148l-245 376h139l180 -245l180 245h139z" />
    <glyph glyph-name="Ydieresis" unicode="&#x178;" horiz-adv-x="1389" 
d="M1045 1120h195l-472 -1224q-49 -109 -92 -177t-91 -104t-94 -48.5t-113 -12.5h-167v244h128q37 0 65 8t54 29.5t43 40t49 58.5l79 159l-479 1027h195l396 -651zM925 1350h-218v217h218v-217zM506 1350h-218v217h218v-217z" />
    <glyph glyph-name="Zcaron" unicode="&#x17d;" horiz-adv-x="1518" 
d="M1094 1323h-921v170h1173v-154l-944 -1039h967v-300h-1219v284zM1123 2011l-245 -376h-148l-245 376h139l180 -245l180 245h139z" />
    <glyph glyph-name="zcaron" unicode="&#x17e;" horiz-adv-x="1208" 
d="M862 983h-667v137h864v-168l-632 -705h622v-247h-899v268zM970 1638l-245 -376h-148l-245 376h139l180 -245l180 245h139z" />
    <glyph glyph-name="florin" unicode="&#x192;" horiz-adv-x="1550" 
d="M1401 1520v-144q-75 57 -162 57q-96 0 -153 -61t-82 -193l-60 -331l287 20v-143l-317 -20l-67 -485q-19 -134 -43 -235.5t-48.5 -170t-62 -115t-67.5 -71t-81.5 -37t-87.5 -15t-102 -2.5q-112 0 -205 43l60 316q104 -66 196 -66q97 0 151.5 69t88.5 234l77 535l-248 -20
v143l279 20l63 330q36 183 135 280.5t250 97.5q108 0 199 -36z" />
    <glyph glyph-name="circumflex" unicode="&#x2c6;" horiz-adv-x="937" 
d="M289 1262h-139l245 376h148l245 -376h-139l-180 245z" />
    <glyph glyph-name="caron" unicode="&#x2c7;" horiz-adv-x="937" 
d="M788 1638l-245 -376h-148l-245 376h139l180 -245l180 245h139z" />
    <glyph glyph-name="breve" unicode="&#x2d8;" horiz-adv-x="925" 
d="M150 1608h118q23 -150 195 -150q170 0 195 150h118q-20 -287 -313 -287t-313 287z" />
    <glyph glyph-name="dotaccent" unicode="&#x2d9;" horiz-adv-x="503" 
d="M354 1348h-204v204h204v-204z" />
    <glyph glyph-name="ring" unicode="&#x2da;" horiz-adv-x="847" 
d="M576 1524q0 63 -44 107t-108 44q-65 0 -108.5 -43.5t-43.5 -107.5q0 -65 43.5 -108.5t108.5 -43.5q64 0 108 44t44 108zM698 1524q0 -115 -79.5 -195t-194.5 -80t-194.5 80t-79.5 195t79.5 194.5t194.5 79.5t194.5 -79.5t79.5 -194.5z" />
    <glyph glyph-name="ogonek" unicode="&#x2db;" horiz-adv-x="672" 
d="M258 0h119q-88 -119 -88 -180q0 -92 109 -92q64 0 125 30v-133q-78 -20 -136 -20q-122 0 -179.5 43.5t-57.5 136.5q0 92 108 215z" />
    <glyph glyph-name="tilde" unicode="&#x2dc;" horiz-adv-x="959" 
d="M476 1370l-57 55q-42 39 -68 39q-38 0 -56 -36q-19 -39 -20 -119h-125q2 135 53 208.5t142 73.5q71 0 139 -61l57 -55q42 -39 68 -39q38 0 56 37q19 37 20 118h125q-2 -135 -53 -208.5t-142 -73.5q-71 0 -139 61z" />
    <glyph glyph-name="hungarumlaut" unicode="&#x2dd;" horiz-adv-x="1001" 
d="M604 1262h-135l205 376h178zM287 1262h-137l190 376h170z" />
    <glyph glyph-name="Delta" unicode="&#x394;" horiz-adv-x="1681" 
d="M422 298h836l-418 1084zM1532 0h-1382l579 1473h224z" />
    <glyph glyph-name="mu" unicode="&#x3bc;" horiz-adv-x="1428" 
d="M344 127l10 -553h-184l-20 1546l184 10l10 -496q0 -145 69 -219t204 -74q297 0 297 336l10 443h184l-10 -862q0 -60 112 -67q8 0 25 6q10 3 44 17v-148q-42 -23 -97 -59q-57 -36 -92 -36q-136 0 -166 158q-101 -158 -293 -158q-203 0 -287 156z" />
    <glyph glyph-name="pi" unicode="&#x3c0;" horiz-adv-x="1524" 
d="M486 1071h889l-35 -148h-182l-105 -497q-13 -62 -22 -120q-8 -50 -8 -68q0 -58 23.5 -82.5t78.5 -24.5q30 0 100 10l-30 -211q-58 -16 -111 -16q-115 0 -202 85t-87 187q0 43 11 118q11 76 64 233l110 386h-326l-164 -923h-291l275 923h-41q-55 0 -84.5 -33t-38.5 -110
h-160q28 166 99.5 228.5t236.5 62.5z" />
    <glyph glyph-name="endash" unicode="&#x2013;" horiz-adv-x="1323" 
d="M1174 489h-1024v144h1024v-144z" />
    <glyph glyph-name="emdash" unicode="&#x2014;" horiz-adv-x="2347" 
d="M2198 489h-2048v144h2048v-144z" />
    <glyph glyph-name="quoteleft" unicode="&#x2018;" horiz-adv-x="778" 
d="M356 1344l-206 374h197l282 -374h-273z" />
    <glyph glyph-name="quoteright" unicode="&#x2019;" horiz-adv-x="588" 
d="M150 939l99 386v185h256v-185l-199 -386h-156z" />
    <glyph glyph-name="quotesinglbase" unicode="&#x201a;" horiz-adv-x="592" 
d="M150 -238l82 320v172h211v-172l-164 -320h-129z" />
    <glyph glyph-name="quotedblleft" unicode="&#x201c;" horiz-adv-x="1173" 
d="M514 1493l-102 -397v-215h-262v215l204 397h160zM1024 1493l-102 -397v-215h-262v215l204 397h160z" />
    <glyph glyph-name="quotedblright" unicode="&#x201d;" horiz-adv-x="1116" 
d="M150 921l95 372v200h246v-200l-191 -372h-150zM626 921l96 372v200h245v-200l-191 -372h-150z" />
    <glyph glyph-name="quotedblbase" unicode="&#x201e;" horiz-adv-x="1182" 
d="M665 -238l103 402v216h265v-216l-206 -402h-162zM150 -238l103 402v216h265v-216l-206 -402h-162z" />
    <glyph glyph-name="dagger" unicode="&#x2020;" horiz-adv-x="1209" 
d="M150 1073h367v420h176v-420h367v-153h-367v-1117h-176v1117h-367v153z" />
    <glyph glyph-name="daggerdbl" unicode="&#x2021;" horiz-adv-x="1209" 
d="M713 377h347v-224h-327l20 -350h-296l20 350h-327v224h347l20 543h-367v153h367v420h176v-420h367v-153h-367z" />
    <glyph glyph-name="bullet" unicode="&#x2022;" horiz-adv-x="893" 
d="M150 762q0 124 86.5 209.5t212.5 85.5q124 0 209.5 -85.5t85.5 -209.5q0 -125 -86 -211t-211 -86t-211 86t-86 211z" />
    <glyph glyph-name="ellipsis" unicode="&#x2026;" horiz-adv-x="1985" 
d="M1154 0h-322v364h322v-364zM1836 0h-323v364h323v-364zM473 0h-323v364h323v-364z" />
    <glyph glyph-name="perthousand" unicode="&#x2030;" horiz-adv-x="2822" 
d="M2329 657q-87 0 -137 -53t-50 -147q0 -93 50 -146.5t137 -53.5q85 0 134.5 53.5t49.5 146.5t-49.5 146.5t-134.5 53.5zM2329 784q158 0 251 -110t93 -297q0 -186 -93.5 -296t-250.5 -110q-160 0 -253 109.5t-93 296.5q0 188 93.5 297.5t252.5 109.5zM494 1520
q158 0 252 -110t94 -296q0 -189 -93.5 -298t-252.5 -109t-251.5 109.5t-92.5 297.5q0 186 93 296t251 110zM623 -29h-230l1004 1549h160zM494 1393q-86 0 -135.5 -58t-49.5 -160q0 -103 49 -160.5t136 -57.5t136.5 57.5t49.5 160.5q0 101 -50 159.5t-136 58.5zM1526 784
q158 0 251 -110t93 -297q0 -186 -93.5 -296t-250.5 -110q-160 0 -253 109.5t-93 296.5q0 188 93.5 297.5t252.5 109.5zM1526 657q-87 0 -136.5 -53t-49.5 -147q0 -93 49.5 -146.5t136.5 -53.5q85 0 134.5 53.5t49.5 146.5t-49.5 146.5t-134.5 53.5z" />
    <glyph glyph-name="guilsinglleft" unicode="&#x2039;" horiz-adv-x="768" 
d="M150 559v82l469 418v-191l-301 -268l301 -268v-191z" />
    <glyph glyph-name="guilsinglright" unicode="&#x203a;" horiz-adv-x="768" 
d="M451 600l-301 268v191l469 -418v-82l-469 -418v191z" />
    <glyph glyph-name="fraction" unicode="&#x2044;" horiz-adv-x="1391" 
d="M310 -29h-160l932 1549h160z" />
    <glyph glyph-name="Euro" unicode="&#x20ac;" horiz-adv-x="1466" 
d="M1317 1378l-4 -163q-90 104 -174.5 149.5t-187.5 45.5q-152 0 -254.5 -121.5t-136.5 -315.5h577l-55 -123h-538v-105q0 -70 3 -102h446l-56 -163h-364q6 -31 36 -73t76.5 -84.5t115.5 -72t143 -29.5q101 0 185.5 44.5t186.5 150.5v-301q-178 -144 -370 -144
q-233 0 -389 142.5t-187 366.5h-221l55 163h139v47v55q0 43 1 59v46h-194l55 123h156q40 257 195 402t391 145q197 0 370 -142z" />
    <glyph glyph-name="trademark" unicode="&#x2122;" horiz-adv-x="1640" 
d="M751 915l40 578h172l164 -326l174 326h170l20 -578h-173l30 484l-175 -433h-95l-183 433l30 -484h-174zM150 1399v94h518v-94h-203l30 -484h-174l30 484h-201z" />
    <glyph glyph-name="Ohm" unicode="&#x2126;" horiz-adv-x="1708" 
d="M1239 238h320v-238h-600v238q175 56 275 211.5t100 359.5q0 283 -129 431.5t-351 148.5t-351.5 -149t-129.5 -431q0 -204 100.5 -359.5t276.5 -211.5v-238h-600v238h319q-167 146 -235 265.5t-68 295.5q0 209 86.5 371.5t243.5 251.5t358 89q150 0 278 -52t218 -144
t141 -222.5t51 -283.5q0 -97 -16 -171t-55.5 -141.5t-92.5 -125.5t-139 -133z" />
    <glyph glyph-name="partialdiff" unicode="&#x2202;" horiz-adv-x="1156" 
d="M802 621q30 174 30 325q0 260 -145 260q-186 -11 -202 -48q-17 -38 -53 -38q-38 0 -51 8t-13 37q0 63 72.5 111.5t172.5 48.5q180 0 287 -155t107 -418q0 -220 -66 -398.5t-181 -278.5t-255 -100q-152 0 -253.5 108t-101.5 271q0 197 110 326t273 129q101 0 166 -45.5
t103 -142.5zM714 538q0 99 -48 152.5t-136 53.5q-121 0 -198.5 -111t-77.5 -287q0 -100 47.5 -152.5t136.5 -52.5q120 0 198 111.5t78 285.5z" />
    <glyph glyph-name="product" unicode="&#x220f;" horiz-adv-x="1536" 
d="M459 -393h-309l-20 1866h1237l90 -1866h-310l-20 1661h-758z" />
    <glyph glyph-name="summation" unicode="&#x2211;" horiz-adv-x="1613" 
d="M1075 557l-895 779v137h1258v-153h-959l872 -757l-894 -684h1007v-272h-1314v229z" />
    <glyph glyph-name="minus" unicode="&#x2212;" horiz-adv-x="1581" 
d="M1432 557h-1282v170h1282v-170z" />
    <glyph glyph-name="bulletoperator" unicode="&#x2219;" horiz-adv-x="571" 
d="M422 584h-272v327h272v-327z" />
    <glyph glyph-name="radical" unicode="&#x221a;" horiz-adv-x="1543" 
d="M433 975l256 -709l516 1395h189v-96h-115l-594 -1606h-66l-319 883l-125 -45l-25 80z" />
    <glyph glyph-name="infinity" unicode="&#x221e;" horiz-adv-x="1565" 
d="M844 649q99 -178 267 -178q101 0 165 67.5t64 172.5q0 101 -59 168t-148 67q-82 0 -148.5 -68t-140.5 -229zM722 646q-31 55 -55 92.5t-59.5 82.5t-74 68t-78.5 23q-102 0 -165.5 -66t-63.5 -172q0 -101 59 -168t148 -67h11q26 0 38.5 0.5t35 2.5t36 7.5t33 15t34 25
t32.5 36.5t35 51.5t34 68.5zM793 483q-135 -262 -321 -262q-136 0 -229 112t-93 277q0 175 83.5 283t217.5 108q95 0 171.5 -63t148.5 -201q68 138 147 203.5t176 65.5q135 0 228.5 -113t93.5 -279q0 -174 -83.5 -281.5t-217.5 -107.5q-94 0 -168.5 60t-153.5 198z" />
    <glyph glyph-name="integral" unicode="&#x222b;" horiz-adv-x="1270" 
d="M414 -262q107 0 120 688q2 108 3 165q12 514 107 737q94 222 297 222q80 0 130 -41.5t50 -107.5q0 -54 -32 -85.5t-87 -31.5q-85 0 -110 73q-5 13 -10 51q-4 36 -21 36q-108 0 -121 -619q-6 -250 -8 -303q-17 -479 -111 -686q-95 -207 -291 -207q-79 0 -129.5 41.5
t-50.5 106.5q0 56 34 87.5t95 31.5q65 0 96 -57q10 -18 15 -59q4 -42 24 -42z" />
    <glyph glyph-name="approxequal" unicode="&#x2248;" horiz-adv-x="1581" 
d="M1432 623v-179q-105 -78 -194.5 -112.5t-186.5 -34.5q-109 0 -256 59q-7 3 -17 7q-3 1 -21 8q-156 71 -249 71q-171 0 -358 -160v179q105 78 194.5 112.5t186.5 34.5q110 -11 257 -69q3 -1 6.5 -2.5t6 -3t3.5 -1.5q3 -1 21 -8q153 -61 249 -61q86 0 170.5 37.5
t187.5 122.5zM1432 1012v-178q-105 -79 -194.5 -113.5t-186.5 -34.5q-109 0 -256 59q-7 3 -17 7q-3 1 -21 8q-156 71 -249 71q-88 0 -174 -38t-184 -121v178q105 78 194.5 112.5t186.5 34.5q110 -11 257 -69l15 -6q2 -1 9 -4t13 -5q153 -61 249 -61q86 0 170.5 37.5
t187.5 122.5z" />
    <glyph glyph-name="notequal" unicode="&#x2260;" horiz-adv-x="1581" 
d="M783 762h-633v168h772l256 315l125 -102l-174 -213h303v-168h-440l-195 -240h635v-170h-774l-258 -313l-125 102l174 211h-299v170h438z" />
    <glyph glyph-name="lessequal" unicode="&#x2264;" horiz-adv-x="1581" 
d="M150 825l1282 367v-176l-960 -277l960 -274v-178l-1282 368v170zM1432 0h-1282v170h1282v-170z" />
    <glyph glyph-name="greaterequal" unicode="&#x2265;" horiz-adv-x="1581" 
d="M150 465l961 274l-961 277v176l1282 -367v-170l-1282 -368v178zM150 0v170h1282v-170h-1282z" />
    <glyph glyph-name="lozenge" unicode="&#x25ca;" horiz-adv-x="1299" 
d="M650 27l385 565l-385 817l-385 -817zM650 -477l-500 1069l500 1061l500 -1061z" />
    <glyph glyph-name="fi" unicode="&#xfb01;" horiz-adv-x="1390" 
d="M521 1219v-99h690l30 -1120h-235l20 987h-505l30 -987h-245l20 987h-176v133h176v78q0 178 88.5 267.5t273.5 120.5l185 20v-153l-176 -40q-176 0 -176 -194zM1211 1321h-185v233h185v-233z" />
    <glyph glyph-name="fl" unicode="&#xfb02;" horiz-adv-x="1461" 
d="M689 1556h512v-1348l110 2l1 -210h-296v1423h-329q-99 0 -137.5 -40t-38.5 -144l10 -119h293v-143h-293l60 -977h-295l30 977h-166v143h166l10 78q0 187 87 272.5t276 85.5z" />
    <glyph glyph-name="glyph258" horiz-adv-x="893" 
d="M744 1294h-203v203h203v-203zM353 1294h-203v203h203v-203z" />
    <glyph glyph-name="glyph259" horiz-adv-x="680" 
d="M303 1262h-153l196 264h185z" />
    <glyph glyph-name="glyph260" horiz-adv-x="959" 
d="M476 1337l-57 33q-43 25 -68 25q-36 0 -56 -25t-20 -70v-6h-125q0 101 51 160t138 59q38 0 68.5 -8.5t76.5 -34.5l57 -30q46 -25 72 -25q32 0 52 25.5t20 66.5v6h125q-2 -100 -53.5 -159.5t-135.5 -59.5q-35 0 -65 8.5t-80 34.5z" />
    <glyph glyph-name="glyph261" horiz-adv-x="682" 
d="M380 1262l-230 264h187l196 -264h-153z" />
    <glyph glyph-name="glyph262" horiz-adv-x="909" 
d="M289 1262h-139l211 266h188l211 -266h-139l-166 178z" />
    <glyph glyph-name="glyph263" horiz-adv-x="909" 
d="M760 1528l-211 -266h-188l-211 266h139l166 -178l166 178h139z" />
    <glyph glyph-name="glyph264" horiz-adv-x="992" 
d="M255 963h309v419zM150 854v121l392 528h166v-540h135v-109h-135v-186h-144v186h-414z" />
    <glyph glyph-name="glyph265" horiz-adv-x="925" 
d="M150 1528h118q26 -111 195 -111q164 0 195 111h118q-10 -119 -89.5 -180.5t-223.5 -61.5q-293 0 -313 242z" />
    <glyph glyph-name="glyph266" horiz-adv-x="503" 
d="M354 1294h-204v205h204v-205z" />
    <glyph glyph-name="glyph267" horiz-adv-x="0" 
 />
    </font>
</defs>
</svg>
