<svg xmlns="http://www.w3.org/2000/svg">
<defs>
<font id="OpenDyslexicAlta-Italic" horiz-adv-x="1639" >
  <font-face 
    font-family="OpenDyslexicAlta"
    font-weight="400"
    font-style="italic"
    font-stretch="normal"
    units-per-em="2048"
    panose-1="0 0 5 0 0 0 0 0 0 0"
    ascent="1638"
    descent="-410"
    x-height="1107"
    cap-height="1474"
    bbox="-50 -473 2597 1903"
    underline-thickness="50"
    underline-position="-238"
    slope="1"
    unicode-range="U+0020-FB02"
  />
<missing-glyph horiz-adv-x="1527" 
d="M181 -352q139 875 156 1786q238 -37 488 -37q249 0 516 37q-149 -925 -156 -1786q-244 34 -499 34t-505 -34zM313 -69q199 15 399 15q194 0 387 -15q36 725 133 1395q-209 -21 -415 -21q-218 0 -390 20q-25 -696 -114 -1394z" />
    <glyph glyph-name="fi" unicode="fi" horiz-adv-x="1479" 
d="M1252 1107q-43 -490 -43 -850q0 -143 5 -247q-91 12 -213 20q21 451 83 961q-160 -3 -320 -3h-87q-59 0 -88 1q-24 -475 -63 -951q-150 -6 -227 -13q70 406 124 966q-82 1 -163 6q2 20 4 56t4 56q81 -6 164 -9q2 110 16 175q23 107 87 163q80 70 216 99q58 12 119 18
q65 7 113 12q-3 -20 -7 -65l-9 -66q-56 -14 -84 -20q-56 -12 -84 -19q-105 -2 -145 -56q-34 -44 -45 -117q-5 -32 -6 -63q-1 -23 -5 -64q30 -1 89 -1h88q256 0 477 11zM1149 1525q85 6 164 15q-3 -19 -8.5 -55t-7.5 -52q-11 -66 -17 -107q-54 -4 -80 -5q-25 -1 -80 -5
l15 105q3 18 7.5 53t6.5 51z" />
    <glyph glyph-name="fl" unicode="fl" horiz-adv-x="1550" 
d="M804 1515q290 0 504 20q-113 -660 -131 -1328q34 -2 53 -2q36 -2 53 -4q-1 -8 -1 -23v-23q0 -1 3 -145q-133 16 -274 22q18 632 115 1379q-133 -7 -280 -7h-54q-102 0 -145 -39q-25 -26 -37 -69q-5 -17 -12 -77q1 -11 1 -31v-31v-62q46 -1 139 -1h139q-1 -19 -5 -59
q-4 -30 -6 -59h-138q-93 0 -139 1q-9 -424 -34 -940q-166 -5 -276 -15q82 429 136 959q-12 1 -38 1t-38 1q-52 2 -77 3q5 62 6 122q12 0 38 -1.5t39 -2.5q25 -2 77 -4q9 33 14 81q9 99 32 163q13 37 43 75q60 58 143 80q62 16 150 16z" />
    <glyph glyph-name=".notdef" horiz-adv-x="1527" 
d="M181 -352q139 875 156 1786q238 -37 488 -37q249 0 516 37q-149 -925 -156 -1786q-244 34 -499 34t-505 -34zM313 -69q199 15 399 15q194 0 387 -15q36 725 133 1395q-209 -21 -415 -21q-218 0 -390 20q-25 -696 -114 -1394z" />
    <glyph glyph-name=".null" horiz-adv-x="0" 
 />
    <glyph glyph-name="nonmarkingreturn" horiz-adv-x="682" 
 />
    <glyph glyph-name="space" unicode=" " horiz-adv-x="799" 
 />
    <glyph glyph-name="exclam" unicode="!" horiz-adv-x="686" 
d="M231 253h7h31q17 0 49 2t47 2q49 0 54 -4v-34q0 -68 1 -102q1 -17 1.5 -51.5t0.5 -51.5q-52 24 -115 24q-62 0 -119 -24q3 20 10.5 60t11.5 60q7 39 21 119zM351 1466h6q39 -12 82 -12q54 0 93 14q-17 -175 -51 -632q0 -99 -1 -148t-1 -147v-49h-41q-19 0 -57.5 1.5
t-58.5 1.5q-18 0 -38.5 -0.5t-33.5 -1.5t-15 -1q43 289 116 974z" />
    <glyph glyph-name="quotedbl" unicode="&#x22;" horiz-adv-x="941" 
d="M504 1474q-5 -308 -35 -548q-151 -7 -182 -10q60 256 60 529v38q27 -3 79 -5q13 -1 39 -2.5t39 -1.5zM907 1483q-43 -217 -43 -427q0 -81 5 -140q-45 4 -90 6q-15 0 -45 2t-45 2q12 276 58 549q39 0 80 3q55 4 80 5z" />
    <glyph glyph-name="numbersign" unicode="#" horiz-adv-x="1552" 
d="M1020 903h-147q-98 0 -148 -1q-80 -246 -113 -340q80 0 119 1h118h59q18 57 56 171q11 32 30.5 91t25.5 78zM762 1431h141q-87 -246 -136 -400h149q98 0 148 1q76 217 154 405q11 1 35 2t35 2q12 1 35 2t35 1q-105 -250 -160 -410q151 3 299 9l-9 -66q-3 -23 -9 -67
q-109 -3 -328 -5q-57 -171 -111 -342q50 0 150 -1.5t150 -2.5q0 -10 -1.5 -32t-2.5 -33t-2.5 -33t-1.5 -32q-57 1 -167 3q-55 1 -167 3q-42 -134 -63 -199q-35 -106 -62 -200q-11 1 -34 1h-36h-69q28 89 66 200q44 132 65 199h-149q-49 0 -149 -2q-43 -124 -150 -403
q-12 -1 -35 -2t-35 -1q-11 0 -35 -1t-35 -2q83 196 157 408q-25 -1 -75 -2.5t-74 -1.5q-25 -1 -75 -2t-75 -2q6 44 8 66t8 66q110 2 164 2t164 2q71 210 114 343q-168 0 -305 4q0 11 2 33t2 33q1 21 3 65q58 -3 170 -5q28 0 85 -1t85 -1q11 33 32 99.5t31 100.5
q8 27 30 94.5t34 104.5z" />
    <glyph glyph-name="dollar" unicode="$" horiz-adv-x="1260" 
d="M641 -250q-53 3 -159 3q37 210 50 290q-220 7 -383 73l15 108q7 52 12 107q162 -108 377 -113q11 100 21 198q4 35 10.5 102t9.5 96q-85 15 -150 42q-78 31 -128 82q-74 78 -74 232q5 82 49 152q44 73 119 108q110 51 263 60q8 76 13 115q8 76 11 114q27 0 40 -1t40 -1
l-25 -225q194 -7 332 -44l-9 -66q-1 -11 -4.5 -33t-5.5 -33q-129 66 -325 75q-20 -188 -49 -466q121 -26 159 -38q89 -29 141 -76q79 -71 79 -218q0 -75 -33 -142q-37 -76 -92 -117q-116 -83 -297 -92q0 -25 -2 -73.5t-2 -72.5q0 -25 -1 -73.5t-2 -72.5zM588 734l13 9
q8 82 23 222q16 146 23 220q-142 -16 -211 -72q-81 -65 -81 -172q0 -87 75 -145q68 -54 158 -62zM682 588l-12 -9q-5 -62 -11 -184q-3 -61 -11 -185q111 17 177 41q43 12 64 59q15 37 15 84q0 80 -72 135q-61 45 -150 59z" />
    <glyph glyph-name="percent" unicode="%" horiz-adv-x="2030" 
d="M1533 669q-107 0 -161 -103q-44 -82 -44 -194q0 -96 47 -159q50 -70 144 -70q99 0 147 107q34 76 34 185q0 96 -37 158q-47 76 -130 76zM1542 774q68 0 126 -26.5t92 -77.5q70 -95 70 -272q0 -87 -16 -158q-20 -87 -70 -147q-34 -48 -98 -73q-53 -21 -118 -21
q-78 0 -144 27q-76 30 -116 84q-74 86 -74 238q0 91 24 170q27 89 86 153v-1q92 104 238 104zM605 1385h-11q-89 0 -140 -89q-43 -77 -43 -172v-11q-1 -5 -1 -13v-14q0 -105 36 -169q46 -84 137 -84q73 0 123 57q40 46 61 125q17 65 17 129q0 93 -43 161q-48 76 -136 80z
M1526 1486l69 3q22 1 68 3q-204 -260 -535 -742q-350 -513 -529 -746q-89 -2 -138 -5q196 250 533 744q344 502 532 743zM605 1490q151 -5 239 -112q73 -90 73 -239q0 -87 -25 -168q-27 -89 -85 -153q-45 -48 -104.5 -74.5t-123.5 -26.5q-74 0 -130 24q-62 25 -99 80
q-68 101 -68 274q0 89 17 158q20 86 68 145q76 91 215 93h12q3 -1 11 -1z" />
    <glyph glyph-name="ampersand" unicode="&#x26;" horiz-adv-x="1687" 
d="M460 852q-98 -80 -150 -170q-60 -105 -60 -216q0 -140 100 -217q89 -71 230 -71q93 0 185 35t167 98q-120 135 -237 270q-156 180 -235 271zM573 939q121 -132 240 -264q158 -176 239 -264q58 77 91 182q28 88 42 197h77q52 0 78 1q-23 -128 -52 -245q-32 -126 -125 -250
q19 -22 130 -143q43 -47 129 -143q-98 9 -222 16q-49 53 -70 77q-37 38 -71 77q-209 -171 -489 -171q-102 0 -187 26q-96 29 -158 91q-98 99 -98 266q0 151 85 292q76 125 215 221q-82 132 -82 236q0 72 28 138q31 72 85 115q107 87 291 87q150 0 312 -65q-50 -80 -74 -120
q-171 90 -306 90q-98 0 -166 -54q-73 -60 -73 -156q0 -60 43 -127q21 -34 88 -110z" />
    <glyph glyph-name="parenleft" unicode="(" horiz-adv-x="752" 
d="M797 1538q-169 -242 -256 -418q-119 -241 -142 -460q-5 -118 -5 -210t9 -234q15 -219 103 -447q-86 15 -186 17q-100 293 -100 662q0 114 9 230q34 221 156 447q107 198 275 397q43 0 137 16z" />
    <glyph glyph-name="parenright" unicode=")" horiz-adv-x="774" 
d="M372 1560l-7 -9l-4 -4q64 -14 154 -19q129 -290 129 -673q0 -184 -26 -330q-33 -174 -104 -313q-106 -210 -240 -413q-115 0 -206 -20q159 223 256 419q117 242 150 457q11 121 11 262q0 355 -113 643z" />
    <glyph glyph-name="asterisk" unicode="*" horiz-adv-x="1174" 
d="M1124 1250q-99 -56 -364 -198q208 -121 329 -198q-19 -35 -48 -77q-247 165 -309 206q-3 -32 -8.5 -94t-7.5 -91q-10 -121 -13 -185h-94q5 68 17 185t17 185q-85 -49 -173 -103q-72 -44 -174 -103q-3 7 -8.5 20t-7.5 19q-3 7 -17 38q145 83 365 198q-168 94 -330 198
q9 13 23 39q11 19 24 39q90 -64 155 -104l156 -102q10 124 15 185t15 185h94q-21 -197 -36 -370q175 101 347 207q23 -57 33 -79z" />
    <glyph glyph-name="plus" unicode="+" horiz-adv-x="1499" 
d="M750 1248h148q-22 -188 -53 -536q288 0 521 4l-13 -149q-174 2 -260 2h-261q-3 -45 -10.5 -134t-11.5 -133q-14 -175 -19 -268h-148q4 45 12.5 134t13.5 134q13 134 24 267q-174 0 -260 -1q-87 -1 -261 -1l13 150q175 -4 521 -4q17 188 23 268z" />
    <glyph glyph-name="comma" unicode="," horiz-adv-x="577" 
d="M113 225q10 -1 30 -1h31q88 0 172 10q-17 -97 -28 -199q-39 -51 -115 -153q-70 -91 -121 -151l-54 -3q-26 -1 -55 -6q33 71 66 152q40 102 61 153q6 79 13 198z" />
    <glyph glyph-name="hyphen" unicode="-" horiz-adv-x="820" 
d="M167 633h35q11 -1 34 -1q115 0 447 11q-30 -49 -30 -102q0 -22 6 -43q-291 0 -516 -9q28 47 28 103q0 24 -4 41z" />
    <glyph glyph-name="period" unicode="." horiz-adv-x="617" 
d="M99 276v38h50q21 0 64.5 -1t65.5 -1t47 0.5t41 1.5h16q-28 -128 -28 -263v-21q0 -13 1 -20h-47q-23 0 -69 1t-70 1q-21 0 -44.5 -0.5t-38.5 -1.5h-15q27 132 27 266z" />
    <glyph glyph-name="slash" unicode="/" horiz-adv-x="795" 
d="M708 1443q74 7 130 16q-127 -301 -320 -809q-217 -572 -316 -812q-131 -6 -208 -18q110 237 357 812q225 526 357 811z" />
    <glyph glyph-name="zero" unicode="0" horiz-adv-x="1267" 
d="M745 1421h-16q-87 0 -162 -56q-74 -55 -104 -140q-47 -116 -65 -260q-13 -102 -13 -249q0 -146 35 -241q23 -60 78 -94q54 -34 121 -34h11h7q2 -1 6 -1q119 0 201 97q67 79 110 221q31 105 46 236q9 89 9 147q0 93 -14 159q-14 96 -78 155q-66 61 -154 61h-9q-3 -1 -9 -1
zM737 1480h13h16q102 0 186 -42q91 -47 131 -129q73 -150 73 -382q0 -76 -7 -181q-25 -180 -51 -278q-40 -154 -111 -262q-64 -95 -168 -147q-95 -49 -203 -49h-15h-17q-101 0 -185 42q-91 46 -133 128q-72 145 -72 373q0 80 7 192q27 189 50 277q41 158 112 262
q63 96 169 148q97 48 205 48z" />
    <glyph glyph-name="one" unicode="1" horiz-adv-x="1340" 
d="M273 273q184 14 319 15q44 478 86 1009q-174 -33 -349 -48q1 28 3 82q0 54 1 82q121 5 348 42q16 -1 48 -1h47h48q16 0 48 2q-63 -577 -107 -1168q211 -6 315 -17q-5 -127 -5 -226v-35q-215 29 -426 29q-197 0 -414 -25q13 74 38 259z" />
    <glyph glyph-name="two" unicode="2" horiz-adv-x="1385" 
d="M661 299q277 0 463 -18q-4 -91 -4 -271q-223 28 -455 28q-239 0 -473 -28q7 46 21.5 138t22.5 138q115 100 340 269q149 103 234 186h-1q103 109 144 180v-1q55 93 55 180q0 113 -84 177q-75 57 -190 57q-184 0 -407 -102q5 100 5 179q89 23 140.5 34.5t128.5 23
t142 11.5q106 0 186 -20q100 -27 163 -80q93 -78 93 -227q0 -113 -53 -224q-44 -92 -135 -198l2 1q-127 -127 -164 -162q-139 -134 -183 -259q1 -2 5 -6q1 -1 2 -3t2 -3z" />
    <glyph glyph-name="three" unicode="3" horiz-adv-x="1317" 
d="M885 793q134 -8 196 -101q58 -89 58 -201t-31 -200q-38 -109 -118 -170q-97 -69 -233 -94q-96 -19 -238 -19q-175 0 -345 44q24 146 42 291q130 -73 337 -73q95 0 161 15q90 19 149 67h-1q54 43 74 67q36 43 36 90q0 93 -78 162q-60 53 -162 67q-45 6 -91 6h-90h-52
q4 49 7 71q4 45 5 70q64 0 95 -1t94 -1q122 0 207 71q91 76 91 199q0 114 -104 165q-77 36 -189 36q-158 0 -370 -50l3 69q0 45 1 68q245 39 394 39q182 0 294 -58q146 -76 146 -240q0 -130 -78 -235q-81 -109 -209 -134v-10q-1 -3 -1 -10z" />
    <glyph glyph-name="four" unicode="4" horiz-adv-x="1320" 
d="M864 1395q-196 -259 -585 -813q223 4 497 4q40 438 88 809zM813 1455q77 1 240 9q-53 -363 -88 -880q64 0 95 -1q16 -1 47 -1.5t47 -0.5q-1 -13 -2.5 -37t-1.5 -37q-4 -51 -5 -74q-16 1 -48 2.5t-47 1.5l-96 3q-2 -94 -2 -138q0 -122 5 -275q-98 8 -250 10q17 147 23 204
q11 103 24 203h-104q-243 0 -515 -11q7 55 13 113q380 534 665 909z" />
    <glyph glyph-name="five" unicode="5" horiz-adv-x="1288" 
d="M346 1474q195 -22 400 -22q186 0 374 18q-1 -9 -4.5 -31t-5.5 -34t-5.5 -34t-4.5 -31q-153 -14 -357 -14q-130 0 -259 6q-14 -261 -25 -397q130 30 197 30q108 0 193 -28q99 -33 162 -98q106 -114 106 -310q0 -118 -33 -217q-40 -119 -127 -187q-89 -69 -210 -95
q-98 -22 -227 -22q-200 0 -356 36q9 48 23 144q4 24 10.5 72t9.5 72q134 -73 336 -73q82 0 151 18q82 21 137 71q51 46 77 89q30 51 30 114q0 138 -85 205q-91 66 -242 66q-159 0 -302 -64q33 374 37 716z" />
    <glyph glyph-name="six" unicode="6" horiz-adv-x="1305" 
d="M702 832q-132 0 -218 -93q-50 -56 -77 -132q-26 -75 -26 -147q0 -101 93 -151q73 -39 188 -39t196 50q98 60 102 166q0 15 1 23v23q0 130 -57 208q-31 46 -85 69t-117 23zM1153 1442l-7 7v1q-14 -87 -24 -167q-131 52 -264 52q-97 0 -177 -28q-92 -32 -150 -103
q-70 -86 -109 -211q-23 -71 -48 -223q65 91 160 143q97 53 201 53q93 0 170 -29q83 -31 136 -96q48 -54 73 -142q20 -69 20 -162q0 -118 -29 -216q-34 -115 -116 -192q-71 -68 -175 -96q-87 -23 -196 -23q-114 0 -202 42q-100 46 -146 134q-74 137 -74 360t33 379
q48 226 167 363q86 103 221 152q113 41 260 41q125 0 276 -39z" />
    <glyph glyph-name="seven" unicode="7" horiz-adv-x="1233" 
d="M348 1484q220 -31 451 -31t479 31q-2 -13 -6 -37q-5 -18 -6 -37q-111 -262 -254 -683q-78 -230 -115 -345q-76 -230 -115 -345q-17 1 -51 1h-51q-126 0 -238 -7q121 225 332 654q236 484 327 654q-185 -12 -323 -12q-235 0 -431 26q1 22 1 66v65z" />
    <glyph glyph-name="eight" unicode="8" horiz-adv-x="1320" 
d="M669 738q-138 0 -227 -78q-48 -42 -75 -105t-26 -126q0 -67 65 -130q39 -38 101 -54q53 -14 118 -14q64 0 120 14q65 16 110 54q91 76 92 175q0 115 -66 187q-76 79 -212 77zM485 782l2 19q-99 19 -157 103q-56 81 -56 183q0 85 27 155q30 77 95 129l1 -1q67 52 162 73
q80 18 174 18q103 0 171 -16q88 -21 149 -73q80 -70 80 -197q0 -131 -71 -235q-80 -117 -202 -139l-2 -17q124 -29 199 -115q78 -93 78 -219q0 -105 -31 -186q-38 -102 -114 -156q-78 -56 -185 -80q-84 -19 -199 -19q-110 0 -196 19q-101 22 -173 79q-95 76 -95 240
q0 86 26 163q30 88 87 145q86 95 230 127zM432 1159q-3 -18 -3 -35q0 -93 71 -154q70 -62 162 -62h11q7 0 11 1q3 -1 11 -1h11q111 0 194 81q82 80 82 195q0 104 -83 155q-71 44 -179 44q-107 0 -191 -55q-93 -61 -97 -169z" />
    <glyph glyph-name="nine" unicode="9" horiz-adv-x="1303" 
d="M241 41v-1q17 105 40 285q123 -55 264 -55q98 0 163 13q94 19 155 58q74 61 108 177q15 50 24 102q5 35 17 101q-67 -93 -158 -143q-98 -54 -203 -54q-93 0 -170 29q-85 32 -136 96q-48 56 -71 144q-20 74 -20 165q0 116 30 213q37 118 114 189q72 67 176 96
q84 24 195 24q109 0 197 -39q99 -46 145 -128q79 -149 79 -380q0 -215 -35 -375q-48 -223 -166 -358q-85 -102 -217 -150q-115 -42 -257 -42q-141 0 -279 41q5 -5 5 -8zM681 793q155 0 252 39q68 26 99 117q21 62 21 144q0 127 -69 193q-47 50 -120 71q-62 18 -144 18
q-159 0 -259 -88q-59 -52 -86 -128q-25 -72 -25 -150q0 -62 16 -105q21 -56 67 -73q87 -36 248 -38z" />
    <glyph glyph-name="colon" unicode=":" horiz-adv-x="676" 
d="M200 297l6 -1h36q19 0 59 2t60 2l69 -3q-6 -96 -9 -143q-1 -24 -5 -72t-5 -72q-48 20 -116 20q-61 0 -126 -20q16 131 31 287zM270 1091q57 -23 117 -23q62 0 125 23q-18 -148 -29 -267q-60 -12 -119 -12q-60 0 -112 13q4 45 10 133q2 41 8 133z" />
    <glyph glyph-name="semicolon" unicode=";" horiz-adv-x="639" 
d="M258 1062q31 -4 67 -4q86 0 159 28q-3 -24 -8.5 -70t-7.5 -67l-15 -138q-67 -17 -150 -17h-33q-10 0 -32 2q5 45 11 133t9 133zM193 213q25 0 38 1h38q70 0 124 -5q-1 -44 -6 -88q-6 -56 -8 -89q-23 -38 -100 -162q-66 -108 -99 -163q-72 -5 -125 -25q35 104 61 178
q2 5 25 73t36 104q2 30 8 88t8 88z" />
    <glyph glyph-name="less" unicode="&#x3c;" horiz-adv-x="1561" 
d="M1446 992q-362 -110 -1059 -282q251 -125 464 -225q252 -121 461 -229q-10 -104 -10 -218q-149 77 -565 279q-367 177 -564 280q25 146 31 210q379 93 649 163q362 94 643 184q-30 -90 -50 -162z" />
    <glyph glyph-name="equal" unicode="=" horiz-adv-x="1631" 
d="M228 920l-11 -1h220q101 0 304 -1.5t305 -1.5q62 0 129 0.5t119.5 1t96 1t69 1t26.5 0.5q-32 -77 -47 -149h-192q-104 0 -310.5 -1t-308.5 -1l-382 2q-3 75 -18 149zM219 541h10h180q109 0 326 0.5t326 0.5l354 -1q0 -99 22 -180h-215q-104 0 -310 2t-309 2
q-60 0 -126 -0.5t-118.5 -1t-95.5 -1t-68.5 -1t-26.5 -0.5q33 82 51 180z" />
    <glyph glyph-name="greater" unicode="&#x3e;" horiz-adv-x="1559" 
d="M292 1109q1 39 6 80q2 27 4 79q197 -103 564 -280q439 -215 564 -279q-24 -133 -32 -212l-324 -81q-357 -89 -645 -170q-143 -40 -321 -95q27 77 63 220q257 75 524 144q350 90 525 136q-251 125 -465 227q-229 108 -463 231z" />
    <glyph glyph-name="question" unicode="?" horiz-adv-x="1070" 
d="M416 278q107 5 195 5h40q-2 -22 -5.5 -64.5t-4.5 -62.5q-1 -22 -4.5 -64.5t-5.5 -63.5h-40q-109 0 -206 -7q3 21 8.5 64t7.5 65q5 42 15 128zM667 424q-126 0 -231 -4q3 24 7 77q7 88 22 151q22 91 79 153q32 35 67 67v-1q18 13 52 43q24 22 51 42h-1q78 59 111 93
q61 63 61 119q0 92 -65 150q-62 54 -155 54q-146 0 -341 -102q1 23 3 67t3 67q187 79 380 79q85 0 146 -14q77 -20 126 -63q73 -67 73 -182q0 -96 -60 -191q-34 -54 -133 -159q-56 -58 -83 -85q-7 -11 -21 -31q-7 -11 -21 -31v1q-4 -5 -11 -15t-11 -15q-11 -16 -17 -32
q-20 -59 -23 -118q-2 -44 -8 -120z" />
    <glyph glyph-name="at" unicode="@" horiz-adv-x="1938" 
d="M701 615q-2 -24 -2 -37q0 -112 68 -175q66 -61 174 -61q118 0 190 72q88 88 88 239q0 108 -69 172q-66 60 -172 60q-117 0 -191 -73q-74 -70 -86 -197zM1232 276q-61 -75 -140 -116q-84 -45 -173 -45q-176 0 -258 114q-74 93 -74 248q0 103 28 193q32 102 100 171
q107 116 277 116q86 0 165 -45q71 -42 120 -116l9 72q3 24 7 72q38 0 116 2q-43 -380 -65 -714q154 22 241 133q57 74 85 176q23 89 23 186q0 171 -81 298q-85 121 -233 190q-138 64 -304 64q-251 0 -450 -122h1q-176 -103 -274 -305q-88 -180 -88 -395q0 -103 31 -170
q18 -39 47.5 -84t46 -66.5t58.5 -76.5q87 -98 221 -138q112 -33 267 -35q276 2 472 142q42 -101 72 -161q-249 -177 -564 -177q-175 0 -325 56q-162 60 -265 178q-89 96 -134 238q-40 126 -40 278q0 201 66 384q72 199 215 336q136 117 316 180q168 59 352 59q192 0 349 -72
q165 -77 259 -219q101 -153 101 -365q0 -137 -40 -258q-47 -142 -141 -229q-78 -73 -192 -110q-100 -33 -216 -33q4 56 6 83t6 83z" />
    <glyph glyph-name="A" unicode="A" 
d="M817 1314q-79 -185 -172 -417q-75 -185 -173 -417q184 2 272 2h136q45 -1 136 -1q-47 185 -100 417q-50 217 -99 416zM744 1454h178q52 -174 105 -365q117 -427 217 -725q62 -186 133 -354q-154 14 -265 19q-28 115 -51 239h-111q-56 0 -166 0.5t-166 0.5h-65.5
t-61.5 -0.5t-49 -0.5h-35h-13q-41 -100 -109 -240q-128 -8 -251 -18q159 273 369 716q96 204 170 365q83 181 171 363z" />
    <glyph glyph-name="B" unicode="B" horiz-adv-x="1470" 
d="M798 723h-314l-21 -213q-7 -71 -25 -213q189 7 323 7q155 0 239 43q45 27 71 84q21 49 21 107q0 34 -18 61t-50 58h1q-39 38 -105 53q-58 13 -122 13zM524 1351q-7 -220 -28 -488q98 -2 146 -2h145q136 0 209 50q53 36 81 102q20 51 20 112q0 114 -85 171q-69 46 -185 46
q-153 0 -303 9zM348 1484q174 -25 454 -30q159 -2 259 -40q81 -31 126 -99q41 -67 41 -145q0 -130 -66 -232q-77 -116 -203 -127l-1 -17q137 -11 232 -101q98 -95 98 -228q0 -105 -30 -185q-36 -97 -118 -150q-83 -54 -190 -75q-86 -17 -201 -17q-279 0 -530 -28
q129 715 129 1474z" />
    <glyph glyph-name="C" unicode="C" horiz-adv-x="1521" 
d="M1392 1377q-17 -91 -31 -190q-74 74 -176.5 113t-215.5 39q-120 0 -219 -29q-116 -34 -195 -113q-96 -105 -139 -256q-36 -127 -36 -271q0 -92 20 -157q25 -81 80 -129q66 -55 183 -81q80 -18 205 -18q117 0 222 41q112 42 198 118q-8 -155 -8 -290v-33
q-182 -112 -438 -112q-157 0 -284 41q-148 46 -236 147q-67 85 -97 202q-27 99 -27 229q0 194 43 346q54 196 175 316q105 105 265 153q132 38 297 38q114 0 220 -25q108 -26 196 -87z" />
    <glyph glyph-name="D" unicode="D" horiz-adv-x="1600" 
d="M534 1322q-17 -494 -73 -948q122 5 244 6q17 0 52.5 1.5t53.5 2.5q119 5 212 32q52 15 100 43q71 49 119 139q30 56 68 168q4 43 4 99q0 96 -18 163q-23 85 -73 142q-77 81 -205 115q-90 23 -236 29q-107 1 -248 8zM348 1484q185 -22 402 -27q214 -10 323 -33
q177 -37 282 -133q71 -71 104 -183q26 -90 26 -217q0 -203 -40 -359q-56 -219 -188 -331q-122 -94 -304 -133q-118 -25 -327 -33q-244 -7 -407 -25q130 663 130 1345v65q0 43 -1 64z" />
    <glyph glyph-name="E" unicode="E" horiz-adv-x="1426" 
d="M348 1484q223 -31 457 -31q227 0 467 29q-9 -55 -13 -76q-7 -36 -12 -76q-213 -22 -435 -22q-146 0 -290 9q-8 -174 -30 -450q168 -2 250 -2q184 0 419 5q-6 -52 -8 -74q-1 -13 -3 -37t-3 -37h-333q-111 -1 -334 -1q-15 -173 -41 -409q141 6 281 6q235 0 446 -17
q-5 -97 -5 -291q-225 28 -465 28q-241 0 -477 -28q121 712 129 1474z" />
    <glyph glyph-name="F" unicode="F" horiz-adv-x="1117" 
d="M346 1478q178 -25 367 -25q207 0 432 31q-13 -79 -25 -162q-199 -24 -421 -24q-102 0 -182 4q-31 -284 -51 -434h91q30 -1 91 -1q202 0 366 4q-6 -47 -9 -93q-1 -16 -4 -47t-5 -47q-30 1 -89 1h-89h-179q-59 -1 -179 -1q-34 -490 -49 -651q-146 -10 -233 -23
q130 695 168 1468z" />
    <glyph glyph-name="G" unicode="G" horiz-adv-x="1614" 
d="M1184 382q1 28 5 84q2 27 6 83q-100 2 -150 2h-151l16 189q166 0 248 1h248q-28 -329 -28 -596q-114 -74 -252 -105q-127 -30 -269 -30q-172 0 -292 36q-154 45 -242 148q-67 78 -98 195q-26 94 -26 225q0 124 16 232q20 137 65 241q51 121 139 206q101 101 262 149
q134 39 293 39q134 0 250 -23q130 -28 226 -89q-3 -14 -7.5 -42t-6.5 -42q-8 -42 -12 -84q-88 79 -204 119q-111 38 -239 38q-124 0 -223 -27q-121 -35 -200 -111q-94 -99 -138 -251q-35 -123 -35 -267q0 -105 18 -167q26 -91 83 -139q72 -53 183 -73q88 -17 203 -19
q13 1 40 1.5t41 0.5q93 2 164 29q36 13 63 40q0 1 1 2t1 2t1 1z" />
    <glyph glyph-name="H" unicode="H" horiz-adv-x="1601" 
d="M347 1482h2q77 -11 189 -18q-11 -352 -40 -694h98q33 -1 98 -1q157 0 475 2q33 385 85 694q64 6 97 9q32 2 96 8q-113 -650 -113 -1256q0 -120 4 -216q-73 9 -210 18q1 235 20 489h-112q-57 0 -169.5 0.5t-167.5 0.5h-47.5h-46h-42t-36.5 -0.5t-28 -0.5h-19h-7
q-25 -245 -63 -489q-108 -8 -212 -18q141 693 149 1472z" />
    <glyph glyph-name="I" unicode="I" horiz-adv-x="673" 
d="M344 1468q39 -14 78 -14q53 0 94 20q-71 -794 -108 -1464q-47 28 -107 28t-115 -28q70 546 158 1458z" />
    <glyph glyph-name="J" unicode="J" horiz-adv-x="814" 
d="M549 1452q133 6 192 20q-99 -599 -188 -1402q-15 -127 -32 -187q-30 -103 -95 -167q-60 -53 -164 -81q-38 -11 -89 -19q-17 -3 -47.5 -8.5t-41.5 -7.5h1q-72 -6 -108 -10q9 69 34 309q28 -2 43 -3q7 0 21 -2t21 -2q105 17 173 58q89 52 104 143q121 982 176 1359z" />
    <glyph glyph-name="K" unicode="K" horiz-adv-x="1616" 
d="M347 1479q93 -9 181 -15q-17 -299 -53 -629q198 179 357 316q240 206 361 311q90 3 232 16l-204 -178.5t-186 -162.5q-245 -214 -389 -342q224 -250 351 -394q163 -184 354 -391q-204 22 -444 27q-161 243 -441 715q-12 -362 -45 -723q-20 -1 -60 -3.5t-60 -4.5
q-79 -6 -122 -11q154 726 168 1469z" />
    <glyph glyph-name="L" unicode="L" horiz-adv-x="1363" 
d="M347 1481q100 -15 179 -19q-28 -575 -99 -1150q135 6 269 6q224 0 427 -17q-17 -144 -24 -288q-213 25 -436 25q-235 0 -465 -28q129 713 149 1471z" />
    <glyph glyph-name="M" unicode="M" horiz-adv-x="1839" 
d="M347 1481q114 -11 281 -20q139 -355 302 -873l231 441q123 235 245 434q134 7 267 18q-110 -589 -110 -1137q0 -158 11 -334q-136 12 -235 17q12 582 136 1274q-1 0 -4 0.5t-4 1.5q-5 0 -8 1q-40 -82 -82.5 -175t-73.5 -164t-77.5 -181.5t-69 -165.5t-74.5 -182t-70 -170
q-37 0 -55 1h-55h-55q-19 -1 -55 -1q-42 174 -62 261q-65 277 -130 519q-32 120 -74 257q-1 0 -4 -0.5t-4 -1.5q-3 -1 -9 -1v-60q0 -602 -84 -1214q-96 -4 -237 -16q159 697 159 1471z" />
    <glyph glyph-name="N" unicode="N" horiz-adv-x="1567" 
d="M340 1449q53 -7 116 -10q20 -1 59 -3.5t58 -4.5q101 -200 273 -585q190 -431 266 -588q46 649 152 1211q110 8 167 15q-130 -701 -130 -1357v-58q0 -40 1 -59q-109 13 -274 22q-109 217 -276 604q-44 101 -132 305q-63 144 -137 302l-16 -4q0 -594 -59 -1210
q-153 -10 -236 -19q148 689 168 1439z" />
    <glyph glyph-name="O" unicode="O" horiz-adv-x="1597" 
d="M895 1340q-107 0 -195 -37q-101 -42 -163 -121q-82 -99 -122 -245q-34 -126 -34 -264q0 -82 19 -135q25 -70 78 -104q62 -40 158 -59q71 -14 172 -14q209 0 341 75v-1q93 56 130 193q23 87 23 218q0 206 -80 337q-53 77 -139.5 117t-187.5 40zM908 1480q148 0 259 -41
q131 -49 203 -149q63 -85 90 -196q24 -100 24 -220q0 -188 -44 -350q-52 -192 -167 -324q-95 -102 -236 -149q-124 -41 -273 -41q-137 0 -251 44q-126 49 -200 145q-65 88 -91 195q-24 100 -24 221q0 195 40 350q52 201 170 324q91 99 233 149q120 42 267 42z" />
    <glyph glyph-name="P" unicode="P" horiz-adv-x="1265" 
d="M534 1395q-33 -363 -57 -563q198 -2 293 -2q119 0 211 84q97 88 98 204q3 22 3 47q0 127 -99 184q-73 41 -189 41q-173 0 -260 5zM346 1476q186 -22 435 -22q95 0 167 -12q89 -15 153 -53q62 -40 95 -115q26 -62 26 -147q0 -115 -36 -220q-41 -121 -122 -196
q-67 -64 -169 -92q-84 -23 -189 -23h-120q-39 0 -121 -2q-30 -247 -84 -564q-129 -9 -222 -20q147 686 187 1466z" />
    <glyph glyph-name="Q" unicode="Q" horiz-adv-x="1815" 
d="M895 1334q-226 0 -358 -156q-80 -96 -120 -238q-35 -120 -35 -257q0 -85 19 -141q25 -74 81 -108q63 -40 132 -59.5t167 -33.5q7 11 21.5 33t22.5 33q9 12 24.5 35.5t19.5 29.5q101 -50 219 -66q121 60 175 188q43 105 43 253q0 204 -82 329q-52 79 -142 120
q-83 38 -187 38zM1205 109v-14q81 -102 144 -175q36 -42 145 -174q-210 23 -445 29q-33 39 -97 117q-48 56 -97 118q-32 -4 -74 -4q-142 0 -255 43q-130 49 -203 147q-122 171 -122 451q0 186 42 333q52 189 164 306q90 94 225 144q118 44 257 44q157 0 270 -39
q138 -48 214 -151q64 -81 92 -191q24 -93 24 -218q0 -142 -23 -266q-29 -155 -90 -264q-93 -154 -171 -236z" />
    <glyph glyph-name="R" unicode="R" horiz-adv-x="1622" 
d="M968 710l-1 -11l-1 -6q74 -31 129 -119q20 -31 43 -79q12 -28 36 -82q80 -192 183 -403q-90 11 -262 21q-49 128 -126 369q-27 65 -50 106q-33 57 -72 90q-67 48 -180 48q-49 0 -151 -2q-28 -310 -74 -614q-84 -3 -223 -18q129 692 129 1410v64q185 -24 444 -29
q186 -6 289 -66q68 -45 102 -122q28 -66 28 -150q0 -132 -56 -241q-66 -129 -187 -166zM545 1380q-12 -318 -31 -556q42 -1 126 -1h126q108 0 206 62q110 70 117 166q1 5 1 16t1 16q1 11 1 33q0 134 -76 188h1q-93 65 -212 67q-172 2 -260 9z" />
    <glyph glyph-name="S" unicode="S" horiz-adv-x="1375" 
d="M1212 1435q-2 -15 -6.5 -45t-7.5 -45q-5 -30 -13 -90q-202 85 -382 85q-152 0 -249 -53q-111 -71 -111 -206q0 -90 48 -137q28 -22 67 -39t67.5 -24.5t77.5 -17.5q33 -8 90 -19q103 -21 176 -50q40 -16 80 -43q141 -100 141 -299q0 -103 -29 -186q-35 -100 -112 -155
q-93 -62 -211 -83q-91 -16 -218 -18q-234 0 -450 64q30 185 43 293q190 -112 430 -112q165 0 265 65q45 30 70 60q33 40 33 82q0 80 -75 135q-57 41 -158 69q-40 10 -80 18q-81 14 -142 33q-89 25 -149 64q-93 60 -120 160q-17 63 -17 126q0 93 32 174q36 91 110 143
q80 56 184 78q84 18 197 18q219 0 424 -54q-1 1 -1 2q-1 2 -1 3l-2 2t-1 2z" />
    <glyph glyph-name="T" unicode="T" horiz-adv-x="1547" 
d="M348 1484q297 -31 604 -31t640 31q-19 -88 -29 -152q-182 -7 -312 -7q-114 0 -205 4q-58 -804 -70 -1292q-19 1 -55 1h-57h-76q-25 -1 -76 -1q82 602 154 1291q-117 -3 -232 -3q-175 0 -284 8q0 49 -2 151z" />
    <glyph glyph-name="U" unicode="U" horiz-adv-x="1515" 
d="M347 1413v70q81 -11 181 -19q-6 -319 -42 -739q-5 -60 -5 -109q0 -147 55 -232q40 -56 119 -81q59 -20 149 -20q87 0 152 20q80 25 131 81q55 66 81 164q20 75 29 178q41 446 90 740q29 1 92 7q15 1 46 5t46 5q-77 -394 -116 -922q-9 -126 -37 -217q-36 -119 -109 -196
q-82 -79 -206 -113q-95 -26 -222 -26q-126 0 -213 23q-117 30 -180 99q-53 62 -75 143q-19 69 -19 159q0 53 7 128q46 455 46 852z" />
    <glyph glyph-name="V" unicode="V" 
d="M734 37q-43 175 -87 365q-99 422 -185 727q-52 183 -114 355q89 -10 187 -16q105 -258 202 -547q39 -114 91 -277t91 -277q27 53 75.5 150t64.5 128q162 327 284 553q70 129 154 271q64 4 96 7q16 2 48 4.5t47 3.5q-160 -293 -339 -716q-67 -157 -151 -365
q-25 -61 -74.5 -183t-73.5 -183q-23 1 -67 1h-67h-91q-31 -1 -91 -1z" />
    <glyph glyph-name="W" unicode="W" horiz-adv-x="2165" 
d="M348 1484q19 -1 54 -3.5t63.5 -4.5t53.5 -4q78 -234 140 -528q50 -234 97 -540q96 154 205 341q97 171 201 342h157q42 -118 124 -352q67 -191 130 -350q242 671 467 1089q30 1 88 5q55 4 86 5q-166 -333 -292 -716q-111 -334 -204 -739q-23 1 -70 2t-70 2q-47 1 -139 3
q-25 74 -48 150.5t-48 170t-39 147.5t-43 171.5t-38 154.5q-224 -501 -373 -795q-134 -1 -301 -8q-15 406 -57 738q-50 395 -144 719z" />
    <glyph glyph-name="X" unicode="X" horiz-adv-x="1658" 
d="M346 1477q64 -6 96 -8q64 -4 96 -7q131 -241 321 -629q261 392 438 633q30 1 97 7q16 1 48 3.5t49 4.5q-189 -256 -533 -783q286 -473 435 -688q-118 13 -300 22q-112 202 -271 531q-193 -294 -366 -532q-174 -7 -303 -21q230 266 572 688q-255 547 -379 779z" />
    <glyph glyph-name="Y" unicode="Y" horiz-adv-x="1525" 
d="M348 1484q32 -4 96 -10q16 -2 48 -4.5t48 -3.5q137 -267 354 -758q306 501 485 760q81 4 195 16q-157 -232 -299 -475q-48 -81 -142 -243t-142 -243q-18 -195 -34 -486q-18 1 -54 1h-54h-72q-25 -1 -74 -1q24 227 49 485q-96 242 -135.5 341t-119.5 286.5t-149 334.5z
" />
    <glyph glyph-name="Z" unicode="Z" horiz-adv-x="1660" 
d="M347 1330v101v50q266 -27 559 -27q302 0 595 28q-5 -23 -13 -71t-13 -71q-258 -260 -510 -519q-338 -346 -511 -520q226 7 385 7q292 0 554 -17q-1 -17 -1 -50v-50q0 -91 3 -181q-293 28 -597 28t-603 -28q16 76 48 271q513 536 1015 1035q-200 -8 -370 -8
q-294 0 -541 22z" />
    <glyph glyph-name="bracketleft" unicode="[" horiz-adv-x="929" 
d="M361 1546q84 -38 192 -38q104 0 212 38q-1 -10 -3.5 -30.5t-4.5 -31.5q-3 -21 -7 -63q-95 -32 -205 -32h-17q-12 0 -17 1q-65 -795 -123 -1421h37q118 0 194 -25q-5 -51 -6 -102l-6 -102q-93 34 -197 34q-106 0 -207 -34q103 874 158 1806z" />
    <glyph glyph-name="backslash" unicode="\" horiz-adv-x="1116" 
d="M492 1450q64 -309 156 -827q93 -529 158 -827q-134 32 -186 36q-49 273 -135 825q-92 576 -138 825q57 -19 145 -32z" />
    <glyph glyph-name="bracketright" unicode="]" horiz-adv-x="929" 
d="M765 1546q-111 -947 -158 -1806q-93 34 -197 34q-106 0 -207 -34q3 33 11 97t11 97q93 26 202 26h32q51 610 126 1430q-7 -1 -21 -1h-20q-114 0 -191 32q1 11 2 32t2 31q0 10 1.5 30.5t2.5 31.5q84 -38 192 -38q104 0 212 38z" />
    <glyph glyph-name="asciicircum" unicode="^" horiz-adv-x="1533" 
d="M822 1473h148q68 -74 120 -136q128 -153 243 -269q63 -65 134 -122q-95 4 -140 5l-141 3q-70 80 -156 217q-33 52 -70 115q-29 50 -71 114q-48 -58 -92 -113q-120 -154 -183 -227q-45 -52 -100 -107q-24 -1 -70.5 -2t-69.5 -1q-24 -1 -71 -2.5t-70 -1.5q131 97 301 256
q96 90 144 136q70 69 144 135z" />
    <glyph glyph-name="underscore" unicode="_" horiz-adv-x="1363" 
d="M1011 -313h-1q-42 -36 -42 -92q0 -44 27 -68h-173q-87 0 -261 0.5t-261 0.5h-74.5h-71.5h-64.5t-56 -0.5t-43.5 -0.5h-30h-10q39 35 39 89q0 42 -26 71h185q83 0 246.5 -0.5t246.5 -0.5h78.5h75.5h68t59.5 0.5t46 0.5h31.5h11z" />
    <glyph glyph-name="a" unicode="a" horiz-adv-x="1263" 
d="M1151 1123q-36 -12 -74.5 -12t-59.5 6l-21 6q11 -74 -18 -237q0 -8 -9 9q-2 3 -5 10l-19 35q-34 56 -58.5 84t-62.5 50q-79 46 -179 46h-17h-12q-87 0 -166 -38q-84 -40 -138 -108q-87 -104 -127 -258q-33 -128 -33 -273q0 -179 75 -293q45 -68 120 -104.5t163 -36.5h35
q106 0 207 57q98 56 154 154q-2 -32 -4 -96l-3 -96q27 -3 81 -7q40 -3 81 -9q-9 193 -10.5 280.5t-1 188.5t14 188t31.5 183.5t56 270.5zM618 1011h-14h-11q-104 0 -181 -70q-66 -60 -105 -165q-17 -46 -29 -104t-12 -91q0 -154 64 -208q36 -36 96 -49q49 -11 111 -11
q47 2 76.5 5t70.5 14.5t71 31.5q59 43 82 143q15 63 15 151q0 87 -16 164q-18 86 -78 138q-59 51 -140 51z" />
    <glyph glyph-name="b" unicode="b" horiz-adv-x="1364" 
d="M1117 603v1q0 16 1 24v23q0 154 -48 246q-63 117 -197 117q-156 0 -243 -110q-91 -116 -107 -309q6 -142 57 -207q45 -47 105 -66q52 -16 118 -16q116 7 200 64q48 39 77 108q21 53 37 125zM470 939q10 -2 11 -2t2.5 -0.5t2.5 -1.5q47 84 143 137q90 48 187 48h16h15
q177 0 276 -147q85 -128 85 -325q0 -140 -28 -256q-35 -147 -116 -241q-59 -68 -140.5 -105t-169.5 -36h-16h-9q-3 -1 -9 -1q-108 0 -194 57q-91 57 -128 153l-127 162q53 360 66 548.5t23 614.5q37 -7 80 -10q54 -6 82 -9q-31 -411 -52 -586z" />
    <glyph glyph-name="c" unicode="c" horiz-adv-x="1204" 
d="M1039 1075q-10 -52 -13 -73q-8 -48 -12 -73q-125 64 -273 64q-89 0 -159 -26q-85 -33 -136 -93q-55 -63 -83 -150q-24 -75 -32 -167q0 -65 16 -112q18 -60 60 -91q49 -33 107 -46t141 -20l152 -3h12q69 0 131 30q-4 -73 -4 -161q0 -34 2 -104q-134 -49 -291 -49
q-128 0 -223 28q-118 34 -184 117q-94 113 -94 320q0 146 33 263q41 152 134 241q83 80 211 117q102 29 234 29q144 0 275 -49q-3 4 -4 8z" />
    <glyph glyph-name="d" unicode="d" horiz-adv-x="1325" 
d="M961 945q30 242 91 584q31 2 83 8q12 1 40 4.5t43 5.5q-146 -803 -157 -1535q-41 6 -81 9q-54 4 -81 7l3 96q2 64 4 96q-56 -98 -154 -154q-100 -56 -207 -56h-15h-10q-3 -1 -10 -1q-88 0 -163 36.5t-120 104.5q-75 114 -75 293q0 145 33 273q40 154 127 258
q54 68 138 108q79 38 166 38h12h17q100 0 179 -46q85 -51 119 -134l9 3q3 0 9 2zM262 581v-2q6 -139 68 -206q36 -36 96 -49q49 -11 111 -11q47 2 76.5 5t70.5 14.5t71 31.5q59 43 82 143q15 63 15 151q0 87 -16 164q-18 86 -78 138q-59 51 -140 51h-14h-11q-104 0 -181 -70
q-66 -60 -105 -165q-33 -88 -45 -195z" />
    <glyph glyph-name="e" unicode="e" horiz-adv-x="1301" 
d="M1110 674l1 1q-2 -20 -3 -29q0 -5 -2 -15t-2 -15q-249 -3 -497 -3q-96 0 -143 1h-144q-3 -75 -3 -78q0 -74 15 -122q21 -66 66 -98q59 -38 148 -56q66 -14 158 -14q118 0 176 5q97 8 167 44q-1 -19 -1 -57v-57v-57q0 -19 2 -57q-191 -64 -401 -64q-127 9 -215 36
q-116 35 -180 109q-55 61 -79 149q-21 72 -21 172q0 134 38 259q46 149 130 239q75 76 184 113q96 32 209 34q103 -6 170 -25q93 -27 146 -80q47 -52 67 -134q15 -61 15 -155v-23q-1 -8 -1 -23zM989 751q-5 122 -81 203q-80 85 -202 85q-158 0 -254 -90q-97 -84 -103 -200
q74 -2 110 -2h111q231 0 419 4z" />
    <glyph glyph-name="f" unicode="f" horiz-adv-x="927" 
d="M918 1505q-2 -12 -5.5 -34.5t-4.5 -32.5q-1 -12 -4 -34t-5 -34q-9 -1 -28 -1h-29q-31 0 -93 2q-72 -6 -108 -37q-32 -38 -42 -137v-51q0 -35 1 -52q152 2 278 14q-8 -62 -17 -162q-115 -6 -275 -8q-34 -531 -47 -900q-11 1 -31 1h-32q-91 0 -184 -9q57 370 119 910
q-85 2 -155 7q4 54 7 81q4 54 5 81q37 -5 154 -12q9 38 15 82q13 109 47 175q20 40 64 73t102 52q57 19 115 23h-1q11 -1 32 -1h31q50 0 91 4z" />
    <glyph glyph-name="g" unicode="g" horiz-adv-x="1292" 
d="M861 575q4 36 4 78q0 166 -79 253q-73 80 -206 80q-67 0 -129.5 -26t-102.5 -76q-47 -58 -73 -147q-17 -60 -25 -159q0 -10 1.5 -32t2.5 -34q5 -80 25 -128q12 -30 35 -53q61 -42 203 -42q132 0 231 42q58 33 85 109q18 50 28 135zM1042 141q-26 -190 -40 -247
q-37 -143 -114 -227q-75 -75 -197 -102q-85 -20 -217 -20q-174 0 -306 36q16 97 40 301q123 -67 291 -67q84 2 145 22q78 25 126 78q88 93 116 195q2 32 4 47q2 30 2 46q-131 -181 -365 -181q-86 0 -161 37t-119 106q-83 123 -83 332q0 136 26 245q34 141 113 228
q59 69 144 103q80 32 170 32h15h16q107 0 195 -54q88 -55 128 -149l24 96q8 31 24 95q56 6 83 9q42 3 83 9q-83 -415 -143 -970z" />
    <glyph glyph-name="h" unicode="h" horiz-adv-x="1410" 
d="M1153 676q-12 -216 -12 -429q0 -130 4 -237q-99 13 -202 21q16 270 56 641q3 32 3 65q0 97 -31 166q-58 102 -188 102q-65 0 -127.5 -26.5t-106.5 -76.5q-94 -110 -106 -267q-7 -93 -22 -302q-9 -126 -28 -303q-121 -9 -206 -20q144 742 173 1530q99 -12 164 -17
q-27 -347 -58 -616q63 94 157 152q100 61 202 61h11h16q83 0 148 -29q74 -35 107 -99q49 -99 49 -235q0 -41 -3 -81z" />
    <glyph glyph-name="i" unicode="i" horiz-adv-x="644" 
d="M325 1104q33 -11 64 -11t72 12q-46 -545 -82 -1095q-32 29 -77 29q-49 0 -87 -29q66 610 110 1094zM359 1538q27 -23 68 -23t76 24q-4 -70 -5 -104q-2 -53 -6 -105q-41 -23 -84 -23q-42 0 -74 24q7 65 13 104q8 68 12 103z" />
    <glyph glyph-name="j" unicode="j" horiz-adv-x="697" 
d="M407 1080q75 2 148 12q-76 -554 -135 -1106q-10 -96 -26 -147q-26 -84 -76 -132q-61 -54 -172 -81q-62 -14 -93 -19q-44 -7 -90 -23q12 86 19 129q12 86 17 129q30 7 55 11q67 10 113 32q28 12 50 33h-1q30 40 43 94q10 39 17 101q47 348 65 484q31 240 66 483zM491 1512
q86 12 146 31q-6 -74 -8 -106q-4 -73 -7 -107q-64 -18 -163 -27q3 18 8.5 53t7.5 52q2 15 7.5 50t8.5 54z" />
    <glyph glyph-name="k" unicode="k" horiz-adv-x="1442" 
d="M360 1540q101 -13 164 -16q-22 -436 -69 -873q69 75 205 223q111 121 206 220q129 2 199 5q-111 -125 -219 -249l-219 -249q347 -365 550 -591q-171 22 -347 27q-238 316 -385 526q-4 -120 -14 -266q-7 -88 -19 -266q-18 -2 -55.5 -5t-56.5 -4q-57 -5 -113 -12
q147 752 173 1530z" />
    <glyph glyph-name="l" unicode="l" horiz-adv-x="769" 
d="M359 1537q48 -22 120 -22h17q11 0 16 1q-73 -797 -113 -1277q51 0 119 -21q-10 -134 -14 -208q-65 29 -144 29q-76 0 -154 -29q94 751 153 1527z" />
    <glyph glyph-name="m" unicode="m" horiz-adv-x="2049" 
d="M1118 886q76 117 169 175q93 62 243 62q78 0 141 -37q65 -41 87 -112q21 -74 21 -164q0 -46 -8 -134q-16 -150 -16 -306q0 -187 29 -360q-39 2 -115 6q-78 4 -117 5v31q0 260 66 645q4 43 7 68q3 35 3 69q0 93 -35.5 136t-111.5 43q-163 0 -254 -114q-90 -107 -102 -269
q-35 -303 -54 -599h-235q71 339 130 672q3 32 3 65q0 100 -34 162q-34 51 -88 72q-47 18 -108 18q-138 0 -228 -127q-80 -115 -87 -261q-19 -363 -72 -612q-142 -6 -224 -10q143 458 143 946q0 76 -3 152l81 -3q14 -1 41 -2t40 -2q-4 -79 -15 -165l9 -3q2 -1 8 -3
q46 87 136 138q88 50 183 50q130 0 223 -54q104 -61 127 -176q3 0 17 -2z" />
    <glyph glyph-name="n" unicode="n" horiz-adv-x="1394" 
d="M1129 675h-8q0 -61 -2.5 -181t-2.5 -181q0 -159 13 -303q-113 11 -240 16q20 277 77 650q5 52 5 93q0 78 -25 135q-23 44 -72 67q-40 18 -94 18q-76 0 -140 -18q-75 -21 -125 -74q-84 -94 -97 -257q-11 -307 -42 -614q-150 -8 -235 -16q121 533 129 1108q57 -7 162 -13
q0 -11 -1 -35t-1 -35q0 -12 -0.5 -35.5t-1.5 -35.5q205 152 401 152q84 0 149 -29q74 -35 108 -98q45 -100 45 -239q0 -25 -2 -75z" />
    <glyph glyph-name="o" unicode="o" horiz-adv-x="1264" 
d="M673 1002q-154 0 -242 -111q-59 -76 -86 -184q-21 -85 -21 -195q0 -56 12 -96q13 -49 51 -77q79 -50 224 -50q138 0 229 51q68 47 93 155q15 64 15 163q0 140 -54 232q-32 55 -91.5 83t-129.5 29zM684 1114q106 0 192 -30q97 -34 153 -110q82 -113 82 -305
q0 -154 -29 -270q-41 -159 -127 -256q-67 -78 -173 -111q-90 -29 -201 -29q-109 0 -192 29q-97 34 -150 110q-82 113 -82 309q0 152 29 269q39 159 126 254q66 73 173 110q87 30 199 30z" />
    <glyph glyph-name="p" unicode="p" horiz-adv-x="1304" 
d="M346 172q-28 -226 -88 -571q-105 -9 -166 -17q143 731 175 1521q86 -11 161 -15q-2 -13 -6 -39.5t-6 -40.5q-6 -31 -13 -80l9 -3l6 -3q53 90 151 138q91 45 196 45h13h17q89 0 164.5 -36t119.5 -104q76 -112 76 -291q0 -147 -33 -275q-42 -158 -128 -257
q-57 -70 -138 -109t-167 -39h-12h-15q-101 0 -180 46q-85 50 -118 135q-6 -2 -9 -2zM1060 587q5 52 5 95q0 142 -60 228q-69 99 -197 99q-163 0 -253 -116q-61 -74 -86 -184q-21 -88 -21 -196q0 -59 14 -105q17 -55 55 -84q85 -57 219 -57q136 0 221 57q53 42 77 122
q8 27 26 141z" />
    <glyph glyph-name="q" unicode="q" horiz-adv-x="1365" 
d="M259 580q-3 -69 -3 -72q0 -129 63 -186q71 -51 213 -51q136 0 228 52q70 52 97 167q17 73 17 174q0 132 -54 224q-35 58 -97.5 86.5t-139.5 27.5q-64 0 -124.5 -29t-99.5 -80q-48 -63 -73 -151q-20 -65 -27 -162zM897 178q-11 2 -15 5q-52 -88 -143 -138
q-90 -49 -189 -49h-16h-12q-87 0 -161 38.5t-118 107.5q-83 126 -83 339q0 139 28 252q35 138 114 233q59 68 141 105t169 36h17h18q107 0 193 -54q88 -57 128 -150q10 48 24 96q8 31 24 95q105 9 166 17q-41 -210 -71.5 -406t-54.5 -423t-10 -383t70 -195q18 -12 -5 -23
q-5 -3 -18 -8q-60 -25 -75 -53q-7 -14 -7 -31q-88 11 -163 15q18 316 49 574z" />
    <glyph glyph-name="r" unicode="r" horiz-adv-x="882" 
d="M816 944q-25 10 -64 10q-92 0 -160 -21q-89 -29 -134 -94q-73 -103 -90 -280q-17 -340 -33 -530q-126 -5 -216 -19q104 513 146 1083q25 -4 142 -11q-1 -11 -2.5 -31t-1.5 -30t-1.5 -30t-2.5 -31q46 30 70 43q48 26 72 40q52 31 133 52q64 15 137 15h29q-15 -91 -24 -166
z" />
    <glyph glyph-name="s" unicode="s" horiz-adv-x="1154" 
d="M980 1072l-4 8q-3 -23 -11 -69t-11 -69q-131 61 -325 61q-111 0 -185 -39q-95 -49 -95 -154q0 -66 56 -110q47 -37 121 -57q56 -15 116 -25q91 -23 131 -39q69 -28 114 -70q63 -60 63 -176q0 -77 -29 -141q-33 -74 -96 -113q-72 -45 -171 -63q-71 -13 -179 -13
q-166 0 -355 46q13 73 36 245q157 -84 337 -84h22q5 -1 14 -1h13q89 0 151 33q77 39 81 121q-30 63 -49 88q-42 33 -120 54q-15 4 -65 16q-35 7 -115 27q-64 16 -113 44q-75 43 -91 113q-11 47 -11 92q0 89 36 158q39 78 120 111q122 48 269 48q212 0 345 -42z" />
    <glyph glyph-name="t" unicode="t" horiz-adv-x="1102" 
d="M595 1360q-5 -37 -15.5 -128.5t-16.5 -140.5h40q111 0 210 7q-5 -30 -6 -60q-2 -20 -8 -60q-113 -5 -204 -5h-42q-9 -80 -25 -238q-8 -79 -26 -239q-3 -69 -3 -70q0 -67 26 -105q24 -24 69 -34q32 -7 81 -9q112 -6 170 -13q-7 -142 -8 -255q-42 7 -88 12q-29 3 -89 9
l-75 6q-80 6 -146 32q-36 14 -63 37q-57 57 -57 179q0 44 5 92q47 411 63 600q-11 1 -32 2t-31 2q-42 2 -63 5q1 10 2 31t1 31t1.5 30t2.5 31q90 -11 126 -13q20 198 26 271q84 -7 175 -7z" />
    <glyph glyph-name="u" unicode="u" horiz-adv-x="1340" 
d="M237 442q32 297 32 579v45q-1 15 -1 45q42 -6 66 -7q33 -2 66 -6q-4 -234 -23 -492v-16q-1 -6 -1 -18q0 -118 35 -189q53 -92 169 -92q157 0 243 94q85 94 111 256q21 203 66 455q99 5 196 15q-119 -551 -120 -1099q-53 5 -162 11q5 84 17 194q-62 -97 -159 -155
q-103 -61 -209 -61h-9h-18q-87 0 -153 28q-78 33 -111 98q-40 93 -40 211q0 46 5 104z" />
    <glyph glyph-name="v" unicode="v" horiz-adv-x="1361" 
d="M268 1110q14 -2 42.5 -4.5t43.5 -3.5q42 -5 85 -6q87 -208 151 -401q90 -272 136 -409q69 137 207 409q99 199 221 402q100 7 176 13q-126 -220 -265 -533q-60 -137 -117 -273q-8 -20 -50.5 -120.5t-65.5 -153.5q-18 1 -54 1h-55h-73q-25 -1 -75 -1q-24 91 -70 273
q-80 326 -147 542q-42 138 -90 265z" />
    <glyph glyph-name="w" unicode="w" horiz-adv-x="1777" 
d="M268 1110q58 -4 161 -10q106 -311 182 -784q57 92 124 207q40 69 122 209h52h92h43q28 0 43 1q92 -232 172 -417q83 243 157 428t166 357q161 9 164 9q-128 -241 -227 -533q-86 -254 -156 -553q-41 1 -121 3t-121 3q-89 235 -166 505q-148 -301 -262 -506q-40 0 -116 -2
l-117 -3q-27 334 -63 552q-47 285 -129 534z" />
    <glyph glyph-name="x" unicode="x" horiz-adv-x="1467" 
d="M1259 1107q-163 -197 -448 -582q239 -328 391 -515q-125 11 -269 16q-127 200 -229 386q-182 -231 -315 -386q-107 -4 -271 -16q274 284 487 525q-183 331 -338 570q67 -6 172 -11q128 -199 273 -454q211 263 383 456q105 6 164 11z" />
    <glyph glyph-name="y" unicode="y" horiz-adv-x="1361" 
d="M754 -83q-4 -7 -18.5 -33t-21.5 -40q-46 -80 -96 -137q-67 -76 -148 -100q-80 -24 -187 -29q-35 -2 -95 -8q10 53 18 112q5 37 17 111q21 2 63 4q69 0 122 16q46 14 108 78q1 1 49 52q9 16 25.5 43.5t20.5 35.5t20.5 35.5t25.5 43.5q-252 685 -389 1009q99 -14 171 -19
q197 -357 344 -649q242 439 370 650q83 7 177 18q-125 -227 -297 -592q-94 -200 -140 -300q-77 -170 -139 -301z" />
    <glyph glyph-name="z" unicode="z" horiz-adv-x="1270" 
d="M267 988v78v39q195 -18 393 -18q220 0 453 23q-12 -57 -29 -155q-225 -233 -341 -354q-198 -206 -343 -353q108 3 215 3q197 0 390 -12q-1 -15 -1 -43v-44q0 -47 2 -141q-191 20 -430 20q-225 0 -450 -21q16 70 44 254q289 281 760 717q-173 -7 -293 -7q-213 0 -370 14z
" />
    <glyph glyph-name="braceleft" unicode="{" horiz-adv-x="1155" 
d="M827 -148q-1 -29 -5 -92q-2 -32 -4 -92q-11 2 -90 14q-114 14 -193 45q-44 16 -80 47q-57 67 -57 205q0 69 14 167q13 104 13 167q0 115 -35 173q-28 35 -81 50q-40 11 -99 13h-6q-10 0 -15 1h-16h-10q1 30 6 62q5 30 6 61q14 0 21 -1q14 -2 21 -2q57 0 105 11
q58 13 97 45q36 36 54 94q12 39 20 106q4 57 12 115q8 76 11 115q16 108 28 146q26 81 79 125q77 46 193 70q48 10 101 18q51 8 98 18q-5 -28 -21 -125q-31 -8 -64 -12q-78 -10 -134 -30q-34 -12 -60 -34q-30 -33 -44 -86q-7 -21 -10 -48q-1 -7 -3.5 -23.5t-4.5 -24.5
q-4 -35 -13 -119q-18 -159 -33 -228q-12 -55 -44 -104q-48 -64 -154 -86l-1 -18q48 -13 76 -31q39 -27 54 -61q24 -58 24 -160v-36v1q-8 -80 -11 -119l-12 -120q0 -101 34 -146v1q27 -31 81 -45q16 -5 48 -11q7 -1 23 -3.5t24 -4.5q20 -2 29 -4q8 -2 28 -4z" />
    <glyph glyph-name="bar" unicode="|" horiz-adv-x="623" 
d="M263 -440q-28 5 -46 5q-68 0 -127 -38q75 487 140 987h70q47 0 71 1q-66 -567 -108 -955zM242 637q38 294 56 440q18 145 56 439q10 -2 14 -2h14q70 0 126 41q-74 -514 -126 -917q-24 -2 -35 -2h-35h-35q-24 0 -35 1z" />
    <glyph glyph-name="braceright" unicode="}" horiz-adv-x="1171" 
d="M216 -189q8 1 17 2.5t21.5 3t20.5 2.5q72 7 133 30q34 12 59 33q31 32 47 89q8 30 16 98q13 144 22 238q9 72 17 105q12 54 42 98q42 62 153 91l2 18q-103 21 -138 87q-26 45 -26 135q0 71 13 192q13 119 13 190q0 79 -33 122q-38 37 -117 55q-34 8 -66 12q-34 5 -56 9
l3 63q0 20 2 62q45 -11 92 -18q115 -16 193 -44q42 -15 83 -46q57 -62 57 -188q0 -49 -4 -88l-20 -231q-3 -30 -3 -61q0 -93 38 -143q32 -35 85 -46q36 -9 100 -9q16 0 25 1q12 1 24 0l-10 -123h-33q-73 0 -110 -8q-63 -14 -101 -50q-34 -35 -53 -98q-12 -41 -20 -109
q-8 -117 -18 -229q-10 -101 -24 -147q-24 -81 -77 -129q-62 -43 -163 -64q-45 -9 -86 -15q-58 -10 -86 -16q-4 -1 -13 -2t-14 -2q-19 -4 -26 -5q2 11 5 34t5 34q6 44 9 67z" />
    <glyph glyph-name="asciitilde" unicode="~" horiz-adv-x="1529" 
d="M1424 818q-43 -70 -54 -153q-51 -38 -82 -63q-95 -75 -173 -106q-81 -32 -171 -7q-54 15 -135 56q-22 11 -68 31h2q-134 78 -231 81q-81 -1 -176 -66q-109 -76 -206 -133q49 84 55 182q73 62 156 99q90 40 176 40q128 0 260 -57q6 -4 14 -6h-1q10 -2 21 -8h-1
q49 -20 78 -30.5t73.5 -20.5t83.5 -10q90 0 202 56q46 23 95 53q55 34 92 54q-2 3 -10 8z" />
    <glyph glyph-name="uni00A0" unicode="&#xa0;" horiz-adv-x="1602" 
 />
    <glyph glyph-name="exclamdown" unicode="&#xa1;" horiz-adv-x="716" 
d="M570 1480l-27 -255q-61 -18 -113 -18q-51 0 -102 17q3 43 9 127t9 127q48 -24 107 -24q66 0 117 26zM451 9q-52 29 -120 29q-67 0 -124 -28q36 284 74 644q16 114 25 171q16 114 23 171q41 -6 81 -6q39 0 93 7q-5 -85 -6 -171t-6 -171v1q-27 -391 -40 -647z" />
    <glyph glyph-name="cent" unicode="&#xa2;" horiz-adv-x="1185" 
d="M598 215q7 69 20.5 200t19.5 192q20 199 42 392q-119 -6 -205 -87q-78 -73 -118 -189q-38 -109 -38 -216q0 -129 75 -209q69 -75 193 -92q2 1 6 5q3 3 5 4zM1032 1059q-1 -10 -3.5 -30.5t-4.5 -31.5q-3 -20 -9 -62q-119 64 -255 68q-33 -280 -86 -805q140 6 269 64
q-3 -58 -9 -113q-7 -61 -8 -113q-112 -39 -271 -46q-3 -50 -11 -137q-7 -67 -12 -137q-13 1 -41 3q-15 0 -41 2q5 50 13 139q8 92 13 138q-111 12 -190 47q-99 43 -152 115q-81 112 -81 299q0 139 33 255q40 146 130 234q68 72 176 112q83 31 201 43q2 22 7.5 68t8.5 71
q3 23 8 69t8 69q14 1 42 1q20 -2 41 0q-13 -104 -34 -278q154 -5 263 -52q-1 0 -1 2q0 1 -1 2l-2 2t-1 2z" />
    <glyph glyph-name="sterling" unicode="&#xa3;" horiz-adv-x="1285" 
d="M1159 1442q-3 -15 -8.5 -43t-7.5 -40q-6 -27 -16 -83q-125 61 -233 61q-60 0 -122 -20q-64 -20 -109 -65q-45 -56 -64 -133q-15 -60 -24 -145q-10 -72 -13 -107l-12 -108q186 -5 366 -6q-4 -34 -5 -50q-2 -16 -6 -50q-31 1 -92 2t-91 2l-183 3q-9 -73 -25 -219l-27 -219
q312 -2 538 -27q-3 -34 -5 -100l-3 -99q-268 34 -548 34q-206 0 -423 -20q12 53 38 202q38 3 228 10q34 239 57 440q-60 0 -186 2l12 102q62 -2 93 -2q15 0 46 -1t47 -1q5 40 13 120q12 141 26 214q18 102 63 181q22 41 59 78q65 60 172 93q86 26 188 26q121 0 261 -40
q-3 4 -4 8z" />
    <glyph glyph-name="currency" unicode="&#xa4;" horiz-adv-x="1469" 
d="M1018 973q192 175 229 207q7 -8 20.5 -23.5t19.5 -22.5l39 -48q-74 -69 -115 -105q-76 -70 -114 -106q47 -92 47 -197q0 -145 -94 -266q117 -132 195 -212q-9 -8 -47 -46q-25 -27 -48 -47q-126 132 -199 210q-113 -75 -232 -75q-112 0 -225 71q-78 -70 -116 -105
l-117 -105q-21 23 -39 48q-26 32 -39 47q79 71 228 210q-49 108 -49 204q0 135 92 258q-32 36 -96 106t-96 106q29 25 49 47q31 31 48 46q11 -12 31 -33t36 -38.5t31 -32.5q30 -32 98 -106q104 74 233 74q119 0 219 -67q4 0 6 1h5zM1015 642q1 5 1 14v15q0 103 -70 170
q-70 65 -173 65q-116 0 -200 -87q-84 -86 -84 -206q0 -104 71 -172q70 -67 173 -67q109 0 192 80q82 77 90 188z" />
    <glyph glyph-name="yen" unicode="&#xa5;" horiz-adv-x="1480" 
d="M1304 428q-132 7 -390 9q-8 -213 -8 -400q-17 1 -51 1h-51h-69q-23 -1 -70 -1q12 67 34.5 200t33.5 200q-157 0 -396 -9q9 63 16 141q220 5 392 5q2 20 3 31q2 20 3 31q-14 26 -44 78q-24 38 -45 78h-153q-51 0 -153 2q2 17 4 51t4 51q142 -5 253 -5q-121 286 -269 593
q116 -15 185 -18q138 -284 314 -696q251 420 436 697q78 5 189 17q-159 -228 -386 -593q86 2 128 3q41 0 127 2q-1 -19 -5 -50q-4 -34 -5 -51l-306 -3q-24 -40 -48 -78q-17 -26 -49 -78l-5 -62q217 0 389 -4q0 -11 -1.5 -35t-2.5 -36t-2.5 -36t-1.5 -35z" />
    <glyph glyph-name="brokenbar" unicode="&#xa6;" horiz-adv-x="670" 
d="M390 398h3q-26 -305 -59 -738q-24 32 -72 32q-46 0 -78 -32q36 369 69 738h20q13 0 40 0.5t40 0.5zM488 1422q-18 -181 -70 -739q-44 -7 -76 -7q-41 0 -64 8q32 369 60 738q24 -36 70 -36q47 0 80 36z" />
    <glyph glyph-name="section" unicode="&#xa7;" horiz-adv-x="1106" 
d="M483 955h-10q-61 -41 -94 -84q-43 -55 -43 -114q0 -69 61 -133q44 -49 138 -105q10 -6 76 -46q5 -3 71 -42q58 38 96 83q47 54 47 112q0 97 -120 191q-49 38 -112 74q-86 49 -110 64zM959 1440l-5 7v1q-3 -25 -9 -73q-3 -21 -11 -74q-158 55 -275 55q-76 0 -136 -36
q-70 -44 -70 -116q9 -72 86 -140q50 -44 135 -90q56 -36 96 -59q112 -69 162 -155q27 -48 27 -110q0 -95 -58 -177q-53 -75 -146 -121q106 -99 106 -211q0 -67 -23 -123q-27 -64 -83 -100q-50 -38 -135 -58q-57 -13 -145 -13q-119 0 -291 34q8 64 13 95q8 62 11 94
q154 -55 269 -55q82 0 136 16q44 12 68 45t24 71q-10 69 -86 134q-43 35 -135 88h1q-140 82 -190 127q-96 86 -96 198q0 97 56 178q53 77 147 119q-49 40 -78 96t-29 118t25 115q26 56 80 90q57 39 134 55q56 12 141 12q142 0 284 -37z" />
    <glyph glyph-name="dieresis" unicode="&#xa8;" horiz-adv-x="941" 
d="M782 1554q68 2 100 2q33 0 99 2q-31 -58 -31 -123q0 -42 13 -75q-66 2 -98 2q-33 0 -99 2q-2 14 -2 23v23q0 65 18 144zM363 1558q66 -2 99 -2q16 -1 48.5 -1.5t48.5 -0.5q1 -7 1 -19v-20q0 -77 -16 -151q-33 -1 -99 -1q-66 -2 -100 -3q29 57 29 122q0 43 -11 76z" />
    <glyph glyph-name="copyright" unicode="&#xa9;" horiz-adv-x="1683" 
d="M946 1446q144 0 266 -47q130 -52 216 -152q143 -162 143 -421q0 -169 -55 -315q-63 -166 -179 -273q-104 -102 -246 -153q-132 -47 -280 -47q-142 0 -261 49q-130 53 -212 149q-144 166 -144 423q0 165 54 314q60 165 179 273q99 99 242 152q133 48 277 48zM938 1365
q-125 0 -243 -44q-120 -45 -214 -134q-102 -92 -159 -235q-53 -130 -53 -273q0 -223 139 -356q176 -128 427 -128q249 0 450 129q109 80 163 224q46 121 46 268q0 226 -130 372q-75 88 -190 134q-108 43 -236 43zM1197 1114l-4 8q-6 -41 -9 -80q-113 54 -239 54
q-144 0 -233 -101q-49 -56 -75.5 -129t-26.5 -146q0 -117 93 -187q84 -64 205 -64q105 0 227 55q-1 -27 -5 -79q-5 -41 -6 -80q-115 -48 -261 -48q-89 0 -165 25q-84 28 -137 86q-88 95 -88 255q0 102 32 197q36 104 110 171q67 60 160 88q80 24 176 24q124 0 246 -49z" />
    <glyph glyph-name="ordfeminine" unicode="&#xaa;" horiz-adv-x="1050" 
d="M234 584q177 13 327 13q163 0 324 -15q-1 -5 -1 -15v-15q0 -20 1 -30v-31v-12q-165 19 -339 19q-167 0 -328 -16q10 51 16 102zM922 1165q-26 -259 -35 -437q-20 2 -60 4q-11 0 -31.5 1t-30.5 2l9 129q-53 -72 -131 -109q-77 -37 -164 -37q-99 0 -158 46q-67 51 -67 153
q0 65 23 122q27 68 80 99q104 62 266 62q102 0 183 4l1 13q1 4 1 13v13q0 93 -79 131q-48 22 -138 24q-109 -1 -253 -51q2 34 2 52q0 35 1 52q133 39 279 39q75 0 126 -10q66 -15 113 -50q68 -67 68 -189q0 -34 -5 -76zM664 1171q-86 -2 -128 -8q-73 -10 -116 -43
q-50 -39 -50 -116q0 -56 48 -94q43 -35 104 -35q117 0 186 74t81 187q0 3 0.5 9.5t1.5 9.5q0 5 2 19q-14 0 -40.5 -1t-48 -1.5t-40.5 -0.5z" />
    <glyph glyph-name="guillemotleft" unicode="&#xab;" horiz-adv-x="1196" 
d="M1094 1004q-16 -61 -37 -166q-119 -94 -164 -130q-128 -102 -165 -131q84 -90 130 -140q65 -71 130 -139q-24 -102 -39 -204q-149 148 -400 414q11 27 24 54q14 29 23 53q84 65 250 195q48 38 140.5 110t107.5 84zM663 1000l-23 -159q-87 -66 -319 -249q87 -95 255 -271
q-9 -34 -29 -100q-17 -51 -30 -100q-215 218 -374 401q10 27 24 55q13 25 22 55q205 166 474 368z" />
    <glyph glyph-name="logicalnot" unicode="&#xac;" horiz-adv-x="1661" 
d="M214 853q290 -11 631 -11q330 0 633 10q-54 -162 -54 -322q0 -125 33 -233q-113 5 -225 6v14q-1 5 -1 14q0 162 60 369q-581 -18 -1057 -18q-5 93 -20 171z" />
    <glyph glyph-name="sfthyphen" unicode="&#xad;" horiz-adv-x="837" 
d="M167 633h87q43 0 129.5 -0.5t130.5 -0.5h50.5h48t38.5 0.5t27 0.5h11q-25 -41 -25 -88q0 -31 12 -56h-87q-43 0 -129 0.5t-130 0.5h-51h-48.5t-38.5 -0.5t-28 -0.5h-10q23 41 23 88q0 32 -10 56z" />
    <glyph glyph-name="registered" unicode="&#xae;" horiz-adv-x="1683" 
d="M938 1365q-273 0 -456 -164q-101 -85 -157 -214q-51 -118 -51 -254q0 -236 169 -382q77 -67 180 -103.5t217 -36.5q123 0 239.5 42t208.5 124q100 96 155 220.5t55 256.5q0 217 -131 348q-82 85 -195 125q-107 38 -234 38zM946 1446q144 0 266 -47q130 -52 216 -152
q143 -162 143 -421q0 -169 -55 -315q-63 -166 -179 -273q-104 -102 -246 -153q-132 -47 -280 -47q-142 0 -261 49q-130 53 -212 149q-144 166 -144 423q0 165 54 314q60 165 179 273q99 99 242 152q133 48 277 48zM937 1114h-63q-21 -1 -63 -1q-3 -47 -11 -141
q-5 -51 -13 -142h42h83q102 0 152 33q31 19 46 60q12 36 12 72q0 76 -68 103q-34 13 -117 16zM900 1145q147 -2 223 -43q79 -51 79 -148q0 -87 -60 -152q-59 -63 -146 -74l-2 -15q38 -22 68 -67q9 -13 25 -41q7 -15 23 -43h-1q23 -46 53 -101q18 -33 54 -101
q-12 1 -35.5 1.5t-35.5 0.5q-48 0 -71 1q-27 50 -52 98q-2 3 -21.5 40.5t-30.5 57.5h1q-4 8 -12.5 23t-12.5 22q-29 52 -65 82q-19 14 -43 19h-31q-20 0 -31 -1q-10 -114 -15 -170q-3 -29 -8.5 -86t-7.5 -85h-25q-51 0 -76 -1t-76 -1q45 412 68 787q132 -3 264 -3z" />
    <glyph glyph-name="macron" unicode="&#xaf;" horiz-adv-x="893" 
d="M354 1516h-1h97q48 0 144 -0.5t145 -0.5h56.5t53 0.5t42.5 0.5h31h11q-25 -34 -25 -76q0 -33 14 -52h-96q-49 0 -145 0.5t-144 0.5h-41h-39.5t-36 -0.5t-31 -0.5h-24h-16.5h-6q24 34 24 75q0 31 -13 53z" />
    <glyph glyph-name="degree" unicode="&#xb0;" horiz-adv-x="881" 
d="M601 1441q-81 0 -142 -53q-64 -56 -64 -137q0 -72 52 -116q48 -42 122 -44q84 0 142 55q62 59 62 140q0 68 -52 114q-49 41 -120 41zM606 1499q117 0 189 -72q73 -73 73 -194q0 -67 -24 -132q-25 -66 -74 -114q-84 -80 -218 -80q-139 0 -205 79q-58 66 -58 179
q0 70 23 133q24 72 74 117q83 84 220 84z" />
    <glyph glyph-name="plusminus" unicode="&#xb1;" horiz-adv-x="1637" 
d="M776 1248h148q-16 -133 -39 -373q320 2 527 10q-6 -50 -9 -74q-6 -50 -8 -75q-233 -4 -522 -4q-3 -34 -8.5 -95.5t-7.5 -89.5q-2 -27 -7.5 -89.5t-8.5 -96.5h-141q16 169 34 371q-303 0 -522 5q6 78 9 149q200 -9 525 -11q5 63 15 187q7 92 15 186zM144 181
q340 18 619 18q302 0 602 -18q2 -95 7 -171q-310 24 -624 24q-319 0 -638 -24q23 100 34 171z" />
    <glyph glyph-name="twosuperior" unicode="&#xb2;" horiz-adv-x="964" 
d="M438 783q44 2 66 2h65q150 0 271 -12v-48q0 -32 1 -47q-138 16 -284 16q-150 0 -294 -16q6 32 9 49q4 32 7 48l51 45q26 22 51 42q49 46 102 90q123 102 194 191q42 54 68 114q1 3 1 10v9q0 58 -52 97q-47 34 -111 34q-108 0 -244 -52q2 34 2 51q-1 16 1 50
q135 37 255 37q112 0 183 -35q94 -48 94 -146q0 -16 -3 -33q-32 -112 -141 -224q-46 -47 -101 -93q-8 -7 -46 -39t-57 -49q-31 -24 -93 -74q4 -9 5 -17z" />
    <glyph glyph-name="threesuperior" unicode="&#xb3;" horiz-adv-x="924" 
d="M690 1129l-1 -20q67 -7 114 -58q45 -51 45 -119q0 -55 -18 -103q-22 -56 -66 -85q-69 -41 -140 -53q-60 -11 -138 -13q-113 0 -236 24q6 32 8 49q4 32 7 48q79 -34 227 -34q94 0 156 37q76 47 76 135q0 64 -58 102q-50 33 -123 33h-12q-8 0 -11 -1h-15h-43h-15q1 12 5 43
l3 42h17h45h17q6 -1 17 -1q75 0 126 34q61 41 61 112q0 58 -60 85q-47 21 -117 21q-88 0 -218 -26q0 27 1 40t1 39v13q158 21 245 21q111 0 181 -31q94 -42 94 -135q0 -75 -50 -131q-51 -56 -125 -68z" />
    <glyph glyph-name="acute" unicode="&#xb4;" horiz-adv-x="740" 
d="M625 1620q113 2 194 8q-74 -69 -190 -195q-115 -125 -190 -197q-75 -2 -145 -6q87 93 167 194q86 107 164 196z" />
    <glyph glyph-name="paragraph" unicode="&#xb6;" horiz-adv-x="1549" 
d="M738 1450q15 -1 47 -1h46q167 0 337 12q-2 -178 -2 -265q0 -804 76 -1383q-170 23 -337 27q39 726 138 1513q-92 -4 -206 -4q-86 -923 -132 -1505q-186 0 -304 -8q69 308 156 820q-110 20 -202 124q-89 99 -89 259q0 95 28 172q32 89 104 144q127 97 340 95z" />
    <glyph glyph-name="periodcentered" unicode="&#xb7;" horiz-adv-x="519" 
d="M208 828h-1h33q15 0 47 -0.5t48 -0.5q14 0 30 0.5t26.5 0.5h11.5q-21 -104 -21 -234h-32q-16 0 -47.5 0.5t-47.5 0.5q-14 0 -30 -0.5t-27 -0.5h-11q21 111 21 234z" />
    <glyph glyph-name="cedilla" unicode="&#xb8;" horiz-adv-x="667" 
d="M278 -15q74 -106 74 -190q0 -41 -18 -82q-20 -46 -57 -62q-61 -29 -169 -29q-75 0 -147 15q4 17 10 53q4 36 7 54q44 -23 121 -23h13q3 -1 12 -1q47 0 82 29q37 30 37 76q0 28 -10.5 59.5t-19 47t-29.5 51.5q32 0 94 2z" />
    <glyph glyph-name="onesuperior" unicode="&#xb9;" horiz-adv-x="946" 
d="M304 769q34 4 200 11q33 338 53 608q-156 -24 -217 -28q0 32 1 48t1 48q99 4 221 22h62h32q20 0 31 1q-39 -349 -63 -700q119 -2 198 -10q-1 -9 -1 -26v-27v-19q0 -12 1 -19q-138 15 -276 15q-131 0 -257 -13q13 78 14 89z" />
    <glyph glyph-name="ordmasculine" unicode="&#xba;" horiz-adv-x="1074" 
d="M258 585h-1q167 12 332 12q152 0 320 -11v-34v-34q0 -11 1 -17v-17q-173 14 -333 14q-168 0 -336 -15l9 51q2 17 8 51zM663 1490q82 0 143 -19q70 -22 116 -77q63 -73 63 -206q0 -107 -25 -193q-33 -112 -98 -177q-49 -53 -128 -78q-62 -21 -146 -21q-166 0 -246 98
q-69 85 -69 245q0 95 22 175q26 94 88 156q51 51 131 76q67 21 149 21zM665 1433h-8q-111 0 -176 -66q-40 -37 -60 -98q-16 -49 -16 -111q0 -100 55 -160q55 -63 153 -63q114 0 187 93q65 85 65 203q0 91 -55 148q-56 54 -145 54z" />
    <glyph glyph-name="guillemotright" unicode="&#xbb;" horiz-adv-x="1232" 
d="M257 1058q124 -132 392 -424q3 -19 9 -55q1 -10 4 -28t5 -28q-166 -126 -248 -188l-249 -189q7 69 13 207q150 120 326 254q-66 72 -129 144q-43 47 -129 143q5 47 5 82q-1 27 1 82zM688 1020q94 -99 184 -202q65 -75 180 -205l9 -57q4 -33 10 -58q-210 -167 -471 -359
q-1 17 -2.5 51t-1.5 50t-1.5 49.5t-2.5 50.5q162 122 321 246q-42 46 -124 138t-125 137q2 14 6 40.5t6 39.5q4 38 12 79z" />
    <glyph glyph-name="onequarter" unicode="&#xbc;" horiz-adv-x="1752" 
d="M304 769q34 4 200 11q33 338 53 608q-156 -24 -217 -28q0 32 1 48t1 48q99 4 221 22h62h32q20 0 31 1q-39 -349 -63 -700q119 -2 198 -10q-1 -9 -1 -26v-27v-19q0 -12 1 -19q-138 15 -276 15q-131 0 -257 -13q13 78 14 89zM1354 1497q103 9 138 14q-195 -264 -528 -758
q-353 -523 -525 -759q-47 -4 -68 -5q-20 -2 -68 -8q181 248 525 758q355 526 526 758zM1331 734q-103 -120 -183 -221q-65 -82 -180 -224q158 2 235 2h86q21 255 42 443zM1312 812q13 0 38 1t38 1q12 0 37.5 1t38.5 2q-36 -225 -58 -527q21 -1 64 -1q21 0 63 -2
q-2 -30 -2 -44q-1 -8 -2 -22t-1 -22q-44 3 -127 5q-6 -91 -6 -182q-55 4 -124 4q1 45 6 90l6 90h-81q-147 0 -315 -8q4 36 14 108q208 268 411 506z" />
    <glyph glyph-name="onehalf" unicode="&#xbd;" horiz-adv-x="2069" 
d="M304 769q34 4 200 11q33 338 53 608q-156 -24 -217 -28q0 32 1 48t1 48q99 4 221 22h62h32q20 0 31 1q-39 -349 -63 -700q119 -2 198 -10q-1 -9 -1 -26v-27v-19q0 -12 1 -19q-138 15 -276 15q-131 0 -257 -13q13 78 14 89zM1354 1497q103 9 138 14q-195 -264 -528 -758
q-353 -523 -525 -759q-47 -4 -68 -5q-20 -2 -68 -8q181 248 525 758q355 526 526 758zM1402 117q44 2 66 2h65q150 0 271 -12v-48q0 -32 1 -47q-138 16 -284 16q-150 0 -294 -16q6 32 9 49q4 32 7 48l51 45q26 22 51 42q49 46 102 90q123 102 194 191q42 54 68 114q1 3 1 10
v9q0 58 -52 97q-47 34 -111 34q-108 0 -244 -52q2 34 2 51q-1 16 1 50q135 37 255 37q112 0 183 -35q94 -48 94 -146q0 -16 -3 -33q-32 -112 -141 -224q-46 -47 -101 -93q-8 -7 -46 -39t-57 -49q-31 -24 -93 -74q4 -9 5 -17z" />
    <glyph glyph-name="threequarters" unicode="&#xbe;" horiz-adv-x="1718" 
d="M690 1129l-1 -20q67 -7 114 -58q45 -51 45 -119q0 -55 -18 -103q-22 -56 -66 -85q-69 -41 -140 -53q-60 -11 -138 -13q-113 0 -236 24q6 32 8 49q4 32 7 48q79 -34 227 -34q94 0 156 37q76 47 76 135q0 64 -58 102q-50 33 -123 33h-12q-8 0 -11 -1h-15h-43h-15q1 12 5 43
l3 42h17h45h17q6 -1 17 -1q75 0 126 34q61 41 61 112q0 58 -60 85q-47 21 -117 21q-88 0 -218 -26q0 27 1 40t1 39v13q158 21 245 21q111 0 181 -31q94 -42 94 -135q0 -75 -50 -131q-51 -56 -125 -68zM1320 1497q103 9 138 14q-195 -264 -528 -758q-353 -523 -525 -759
q-47 -4 -68 -5q-20 -2 -68 -8q181 248 525 758q355 526 526 758zM1297 734q-103 -120 -183 -221q-65 -82 -180 -224q158 2 235 2h86q21 255 42 443zM1278 812q13 0 38 1t38 1q12 0 38 1t38 2q-36 -225 -58 -527q21 -1 64 -1q21 0 63 -2q-2 -30 -2 -44q-1 -8 -2 -22t-1 -22
q-44 3 -127 5q-6 -91 -6 -182q-55 4 -124 4q1 45 6 90l6 90h-81q-147 0 -315 -8q4 36 14 108q208 268 411 506z" />
    <glyph glyph-name="questiondown" unicode="&#xbf;" horiz-adv-x="1081" 
d="M498 957l10 109h67q44 0 66 1l-12 -140q-10 -90 -34 -131q-22 -35 -58 -73.5t-57 -58t-71 -63.5q-58 -51 -88 -98q-39 -60 -39 -123q0 -86 72 -134q60 -40 152 -40q150 0 337 108q-3 -37 -5 -111q0 -18 -2 -56t-2 -56q-177 -82 -378 -82q-150 0 -241 55q-116 67 -116 210
q0 125 87 239q40 51 88 96q108 99 157 150q53 53 60 132q4 44 7 66zM692 1229q-60 -3 -176 -3l9 114q1 18 4.5 55.5t5.5 57.5q122 0 183 4q-18 -152 -26 -228z" />
    <glyph glyph-name="Agrave" unicode="&#xc0;" 
d="M817 1314q-79 -185 -172 -417q-75 -185 -173 -417q184 2 272 2h136q45 -1 136 -1q-47 185 -100 417q-50 217 -99 416zM744 1454h178q52 -174 105 -365q117 -427 217 -725q62 -186 133 -354q-154 14 -265 19q-28 115 -51 239h-111q-56 0 -166 0.5t-166 0.5h-65.5
t-61.5 -0.5t-49 -0.5h-35h-13q-41 -100 -109 -240q-128 -8 -251 -18q159 273 369 716q96 204 170 365q83 181 171 363zM677 1784q28 -39 78 -121q42 -70 83 -118q-10 1 -31.5 2t-32.5 1q-10 0 -31.5 1t-32.5 1q-50 58 -96 120q-44 58 -97 119q66 -5 160 -5z" />
    <glyph glyph-name="Aacute" unicode="&#xc1;" 
d="M817 1314q-79 -185 -172 -417q-75 -185 -173 -417q184 2 272 2h136q45 -1 136 -1q-47 185 -100 417q-50 217 -99 416zM744 1454h178q52 -174 105 -365q117 -427 217 -725q62 -186 133 -354q-154 14 -265 19q-28 115 -51 239h-111q-56 0 -166 0.5t-166 0.5h-65.5
t-61.5 -0.5t-49 -0.5h-35h-13q-41 -100 -109 -240q-128 -8 -251 -18q159 273 369 716q96 204 170 365q83 181 171 363zM951 1784q93 0 159 5q-64 -60 -117 -118q-59 -66 -116 -121q-42 -2 -64 -2q-10 0 -31.5 -1t-32.5 -2q55 56 103 118q43 55 99 121z" />
    <glyph glyph-name="Acircumflex" unicode="&#xc2;" 
d="M817 1314q-79 -185 -172 -417q-75 -185 -173 -417q184 2 272 2h136q45 -1 136 -1q-47 185 -100 417q-50 217 -99 416zM744 1454h178q52 -174 105 -365q117 -427 217 -725q62 -186 133 -354q-154 14 -265 19q-28 115 -51 239h-111q-56 0 -166 0.5t-166 0.5h-65.5
t-61.5 -0.5t-49 -0.5h-35h-13q-41 -100 -109 -240q-128 -8 -251 -18q159 273 369 716q96 204 170 365q83 181 171 363zM765 1806h178q14 -21 40.5 -63t39.5 -63q40 -63 94 -115q-10 1 -29 1t-28 1q-19 1 -57 1q-45 42 -80 87q-25 31 -75 91q-137 -137 -186 -178
q-38 0 -56 -1q-10 -1 -29 -1t-28 -1q62 54 113 116q15 18 49.5 60t53.5 65z" />
    <glyph glyph-name="Atilde" unicode="&#xc3;" 
d="M817 1314q-79 -185 -172 -417q-75 -185 -173 -417q184 2 272 2h136q45 -1 136 -1q-47 185 -100 417q-50 217 -99 416zM744 1454h178q52 -174 105 -365q117 -427 217 -725q62 -186 133 -354q-154 14 -265 19q-28 115 -51 239h-111q-56 0 -166 0.5t-166 0.5h-65.5
t-61.5 -0.5t-49 -0.5h-35h-13q-41 -100 -109 -240q-128 -8 -251 -18q159 273 369 716q96 204 170 365q83 181 171 363zM929 1621q-16 8 -29 18q-33 23 -59 33q-17 6 -34 6q-37 0 -63 -35q-19 -24 -34 -68q0 5 -30 4q-40 -2 -70 -2q4 11 13 32.5t14 31.5q34 91 88 116
q33 16 68 16h9h8q11 0 21.5 -1t22.5 -4.5t19.5 -5t21 -7.5t18.5 -8t20.5 -10.5t18 -10t19.5 -11.5t18 -11q44 -25 71 -25q17 -13 46 16q20 20 39 56q5 10 7 20q0 7 -7 3q38 2 57 2q38 0 57 1q-9 -18 -31 -64q-36 -79 -86 -113q-29 -20 -68 -20q-65 0 -145 41z" />
    <glyph glyph-name="Adieresis" unicode="&#xc4;" 
d="M817 1314q-79 -185 -172 -417q-75 -185 -173 -417q184 2 272 2h136q45 -1 136 -1q-47 185 -100 417q-50 217 -99 416zM744 1454h178q52 -174 105 -365q117 -427 217 -725q62 -186 133 -354q-154 14 -265 19q-28 115 -51 239h-111q-56 0 -166 0.5t-166 0.5h-65.5
t-61.5 -0.5t-49 -0.5h-35h-13q-41 -100 -109 -240q-128 -8 -251 -18q159 273 369 716q96 204 170 365q83 181 171 363zM1077 1757q16 1 46.5 1t45.5 1q30 0 92 2q-28 -55 -28 -114q0 -37 12 -70q-62 2 -91 2q-61 0 -92 1q-2 30 -2 44q0 63 17 133zM687 1761q62 -2 91 -2
q15 -1 45 -1.5t45 -0.5q0 -11 1 -16v-17q0 -74 -16 -144q-31 -1 -91 -1q-29 0 -91 -2q27 50 27 113q0 33 -11 71z" />
    <glyph glyph-name="Aring" unicode="&#xc5;" 
d="M999 1598q1 3 1 9v8q0 60 -42 100q-41 38 -102 38q-69 0 -120 -48q-52 -49 -52 -120q0 -61 43 -102q44 -42 105 -42t111 47t56 110zM817 1304q-94 -207 -168 -376q-73 -167 -170 -375q145 3 291 3q84 0 252 -2q-48 167 -103 375q-49 186 -102 375zM690 1380
q-48 33 -76.5 86.5t-28.5 113.5q0 117 85 197q83 77 203 77q95 0 161 -64q66 -66 66 -158q0 -72 -39 -142q-38 -68 -105 -110q24 -83 97 -346q112 -403 203 -687q61 -187 118 -337q-16 1 -47 5t-46 5q-62 6 -94 9q-72 213 -119 381q-129 4 -292 4q-162 0 -367 -5
q-120 -258 -182 -381q-16 -1 -48 -3.5t-48 -4.5q-62 -6 -97 -10q157 294 340 681q53 114 159 344q104 230 157 345z" />
    <glyph glyph-name="AE" unicode="&#xc6;" horiz-adv-x="2131" 
d="M1976 1483q-21 -82 -36 -152q-319 -17 -724 -22q-15 -129 -60 -607h443h222q-1 -27 -5 -74q-4 -50 -5 -75q-280 5 -668 5q-8 -96 -11 -144q-3 -44 -11 -145q365 -1 729 -18q5 -147 16 -241q-417 28 -940 28q3 43 11 127q1 20 4.5 62.5t5.5 64.5q-216 0 -529 -7
q-10 -86 -15 -128q-5 -43 -19 -129q-174 -6 -350 -18q192 297 396 712q75 152 175 367q57 123 171 367q96 -2 144 -2h145q490 0 911 29zM895 1321q-130 -298 -193 -447q-87 -207 -202 -444q204 4 460 4q33 360 77 886h-71q-48 0 -71 1z" />
    <glyph glyph-name="Ccedilla" unicode="&#xc7;" horiz-adv-x="1521" 
d="M1392 1377q-17 -91 -31 -190q-74 74 -176.5 113t-215.5 39q-120 0 -219 -29q-116 -34 -195 -113q-96 -105 -139 -256q-36 -127 -36 -271q0 -92 20 -157q25 -81 80 -129q66 -55 183 -81q80 -18 205 -18q117 0 222 41q112 42 198 118q-8 -155 -8 -290v-33
q-182 -112 -438 -112q-157 0 -284 41q-148 46 -236 147q-67 85 -97 202q-27 99 -27 229q0 194 43 346q54 196 175 316q105 105 265 153q132 38 297 38q114 0 220 -25q108 -26 196 -87zM689 84q74 -106 74 -190q0 -42 -18 -82q-20 -46 -57 -62q-61 -29 -169 -29
q-75 0 -147 15q4 17 10 53q4 36 7 54q44 -23 121 -23h13q3 -1 12 -1q47 0 82 29q37 30 37 76q0 28 -10.5 59.5t-19 47t-29.5 51.5q32 0 94 2z" />
    <glyph glyph-name="Egrave" unicode="&#xc8;" horiz-adv-x="1493" 
d="M415 1484q223 -31 457 -31q227 0 467 29q-9 -55 -13 -76q-7 -36 -12 -76q-213 -22 -435 -22q-146 0 -290 9q-8 -174 -30 -450q168 -2 250 -2q184 0 419 5q-6 -52 -8 -74q-1 -13 -3 -37t-3 -37h-333q-111 -1 -334 -1q-15 -173 -41 -409q141 6 281 6q235 0 446 -17
q-5 -97 -5 -291q-225 28 -465 28q-241 0 -477 -28q121 712 129 1474zM573 1784q28 -39 78 -121q42 -70 83 -118q-10 1 -31.5 2t-32.5 1q-10 0 -31.5 1t-32.5 1q-50 58 -96 120q-44 58 -97 119q66 -5 160 -5z" />
    <glyph glyph-name="Eacute" unicode="&#xc9;" horiz-adv-x="1426" 
d="M348 1484q223 -31 457 -31q227 0 467 29q-9 -55 -13 -76q-7 -36 -12 -76q-213 -22 -435 -22q-146 0 -290 9q-8 -174 -30 -450q168 -2 250 -2q184 0 419 5q-6 -52 -8 -74q-1 -13 -3 -37t-3 -37h-333q-111 -1 -334 -1q-15 -173 -41 -409q141 6 281 6q235 0 446 -17
q-5 -97 -5 -291q-225 28 -465 28q-241 0 -477 -28q121 712 129 1474zM680 1784q93 0 159 5q-64 -60 -117 -118q-59 -66 -116 -121q-42 -2 -64 -2q-10 0 -31.5 -1t-32.5 -2q55 56 103 118q43 55 99 121z" />
    <glyph glyph-name="Ecircumflex" unicode="&#xca;" horiz-adv-x="1426" 
d="M348 1484q223 -31 457 -31q227 0 467 29q-9 -55 -13 -76q-7 -36 -12 -76q-213 -22 -435 -22q-146 0 -290 9q-8 -174 -30 -450q168 -2 250 -2q184 0 419 5q-6 -52 -8 -74q-1 -13 -3 -37t-3 -37h-333q-111 -1 -334 -1q-15 -173 -41 -409q141 6 281 6q235 0 446 -17
q-5 -97 -5 -291q-225 28 -465 28q-241 0 -477 -28q121 712 129 1474zM640 1786h178q14 -21 40.5 -63t39.5 -63q40 -63 94 -115q-10 1 -29 1t-28 1q-19 1 -57 1q-45 42 -80 87q-25 31 -75 91q-137 -137 -186 -178q-38 0 -56 -1q-10 -1 -29 -1t-28 -1q62 54 113 116
q15 18 49.5 60t53.5 65z" />
    <glyph glyph-name="Edieresis" unicode="&#xcb;" horiz-adv-x="1426" 
d="M348 1484q223 -31 457 -31q227 0 467 29q-9 -55 -13 -76q-7 -36 -12 -76q-213 -22 -435 -22q-146 0 -290 9q-8 -174 -30 -450q168 -2 250 -2q184 0 419 5q-6 -52 -8 -74q-1 -13 -3 -37t-3 -37h-333q-111 -1 -334 -1q-15 -173 -41 -409q141 6 281 6q235 0 446 -17
q-5 -97 -5 -291q-225 28 -465 28q-241 0 -477 -28q121 712 129 1474zM907 1757q15 1 46 1t46 1q30 0 92 2q-28 -55 -28 -114q0 -37 12 -70q-62 2 -91 2q-61 0 -92 1q-2 30 -2 44q0 63 17 133zM517 1761q62 -2 91 -2q15 -1 45 -1.5t45 -0.5q0 -11 1 -16v-17q0 -74 -16 -144
q-31 -1 -91 -1q-29 0 -91 -2q27 50 27 113q0 33 -11 71z" />
    <glyph glyph-name="Igrave" unicode="&#xcc;" horiz-adv-x="1051" 
d="M722 1468q39 -14 78 -14q53 0 94 20q-71 -794 -108 -1464q-47 28 -107 28t-115 -28q70 546 158 1458zM573 1784q28 -39 78 -121q42 -70 83 -118q-10 1 -31.5 2t-32.5 1q-10 0 -31.5 1t-32.5 1q-50 58 -96 120q-44 58 -97 119q66 -5 160 -5z" />
    <glyph glyph-name="Iacute" unicode="&#xcd;" horiz-adv-x="888" 
d="M559 1468q39 -14 78 -14q53 0 94 20q-71 -794 -108 -1464q-47 28 -107 28t-115 -28q70 546 158 1458zM584 1884q93 0 159 5q-64 -60 -117 -118q-59 -66 -116 -121q-42 -2 -64 -2q-11 0 -32.5 -1t-31.5 -2q55 56 103 118q43 55 99 121z" />
    <glyph glyph-name="Icircumflex" unicode="&#xce;" horiz-adv-x="1021" 
d="M692 1468q39 -14 78 -14q53 0 94 20q-71 -794 -108 -1464q-47 28 -107 28t-115 -28q70 546 158 1458zM577 1786h178q14 -21 40.5 -63t39.5 -63q40 -63 94 -115q-10 1 -29 1t-28 1q-19 1 -57 1q-45 42 -80 87q-25 31 -75 91q-137 -137 -186 -178q-38 0 -56 -1
q-10 -1 -29 -1t-28 -1q62 54 113 116q15 18 49.5 60t53.5 65z" />
    <glyph glyph-name="Idieresis" unicode="&#xcf;" horiz-adv-x="897" 
d="M545 1468q39 -14 78 -14q53 0 94 20q-71 -794 -108 -1464q-47 28 -107 28t-115 -28q70 546 158 1458zM797 1757q16 1 46.5 1t45.5 1q30 0 92 2q-28 -55 -28 -114q0 -37 12 -70q-62 2 -91 2q-61 0 -92 1q-2 30 -2 44q0 63 17 133zM407 1761q62 -2 91 -2q15 -1 45 -1.5
t45 -0.5q0 -11 1 -16v-17q0 -74 -16 -144q-31 -1 -91 -1q-29 0 -91 -2q27 50 27 113q0 33 -11 71z" />
    <glyph glyph-name="Eth" unicode="&#xd0;" horiz-adv-x="1670" 
d="M421 1468q115 -8 407 -14q211 -6 320 -28q172 -35 280 -133q69 -71 101 -184q25 -91 25 -217t-14 -233q-20 -138 -66 -250q-54 -130 -145 -210q-120 -95 -301 -132q-118 -24 -324 -30q-155 0 -409 -13q57 306 92 686h-186q1 19 5 62q2 22 4 62q15 0 46 -1t47 -1
q31 -1 93 -1q25 283 25 637zM600 1316q-16 -320 -31 -486h316l-10 -119h-158q-105 0 -158 -1q-28 -299 -60 -536q84 3 248 5q143 2 237 26q129 31 215 108q100 95 143 265q30 124 30 283q0 211 -96 318q-70 74 -197 108q-93 23 -233 25q-21 0 -62 0.5t-61 1.5q-41 0 -123 2z
" />
    <glyph glyph-name="Ntilde" unicode="&#xd1;" horiz-adv-x="1567" 
d="M340 1449q53 -7 116 -10q20 -1 59 -3.5t58 -4.5q101 -200 273 -585q190 -431 266 -588q46 649 152 1211q110 8 167 15q-130 -701 -130 -1357v-58q0 -40 1 -59q-109 13 -274 22q-109 217 -276 604q-44 101 -132 305q-63 144 -137 302l-16 -4q0 -594 -59 -1210
q-153 -10 -236 -19q148 689 168 1439zM845 1621q-16 8 -29 18q-33 23 -59 33q-17 6 -34 6q-37 0 -63 -35q-19 -24 -34 -68q0 5 -30 4q-40 -2 -70 -2q4 11 13 32.5t14 31.5q34 91 88 116q33 16 68 16h9h8q11 0 21.5 -1t22.5 -4.5t19.5 -5t21 -7.5t18.5 -8t20.5 -10.5t18 -10
t19.5 -11.5t18 -11q44 -25 71 -25q17 -13 46 16q20 20 39 56q5 10 7 20q0 7 -7 3q38 2 57 2q38 0 57 1q-9 -18 -31 -64q-36 -79 -86 -113q-29 -20 -68 -20q-65 0 -145 41z" />
    <glyph glyph-name="Ograve" unicode="&#xd2;" horiz-adv-x="1597" 
d="M895 1340q-107 0 -195 -37q-101 -42 -163 -121q-82 -99 -122 -245q-34 -126 -34 -264q0 -82 19 -135q25 -70 78 -104q62 -40 158 -59q71 -14 172 -14q209 0 341 75v-1q93 56 130 193q23 87 23 218q0 206 -80 337q-53 77 -139.5 117t-187.5 40zM908 1480q148 0 259 -41
q131 -49 203 -149q63 -85 90 -196q24 -100 24 -220q0 -188 -44 -350q-52 -192 -167 -324q-95 -102 -236 -149q-124 -41 -273 -41q-137 0 -251 44q-126 49 -200 145q-65 88 -91 195q-24 100 -24 221q0 195 40 350q52 201 170 324q91 99 233 149q120 42 267 42zM730 1884
q28 -39 78 -121q42 -70 83 -118q-11 1 -32.5 2t-31.5 1q-11 0 -32.5 1t-31.5 1q-49 58 -96 120q-44 58 -97 119q66 -5 160 -5z" />
    <glyph glyph-name="Oacute" unicode="&#xd3;" horiz-adv-x="1597" 
d="M895 1340q-107 0 -195 -37q-101 -42 -163 -121q-82 -99 -122 -245q-34 -126 -34 -264q0 -82 19 -135q25 -70 78 -104q62 -40 158 -59q71 -14 172 -14q209 0 341 75v-1q93 56 130 193q23 87 23 218q0 206 -80 337q-53 77 -139.5 117t-187.5 40zM908 1480q148 0 259 -41
q131 -49 203 -149q63 -85 90 -196q24 -100 24 -220q0 -188 -44 -350q-52 -192 -167 -324q-95 -102 -236 -149q-124 -41 -273 -41q-137 0 -251 44q-126 49 -200 145q-65 88 -91 195q-24 100 -24 221q0 195 40 350q52 201 170 324q91 99 233 149q120 42 267 42zM804 1884
q93 0 159 5q-64 -60 -117 -118q-59 -66 -116 -121q-42 -2 -64 -2q-10 0 -31.5 -1t-32.5 -2q55 56 103 118q43 55 99 121z" />
    <glyph glyph-name="Ocircumflex" unicode="&#xd4;" horiz-adv-x="1597" 
d="M895 1340q-107 0 -195 -37q-101 -42 -163 -121q-82 -99 -122 -245q-34 -126 -34 -264q0 -82 19 -135q25 -70 78 -104q62 -40 158 -59q71 -14 172 -14q209 0 341 75v-1q93 56 130 193q23 87 23 218q0 206 -80 337q-53 77 -139.5 117t-187.5 40zM908 1480q148 0 259 -41
q131 -49 203 -149q63 -85 90 -196q24 -100 24 -220q0 -188 -44 -350q-52 -192 -167 -324q-95 -102 -236 -149q-124 -41 -273 -41q-137 0 -251 44q-126 49 -200 145q-65 88 -91 195q-24 100 -24 221q0 195 40 350q52 201 170 324q91 99 233 149q120 42 267 42zM764 1786h178
q14 -21 40.5 -63t39.5 -63q40 -63 94 -115q-10 1 -29 1t-28 1q-19 1 -57 1q-45 42 -80 87q-25 31 -75 91q-137 -137 -186 -178q-38 0 -56 -1q-9 -1 -28 -1t-29 -1q62 54 113 116q15 18 49.5 60t53.5 65z" />
    <glyph glyph-name="Otilde" unicode="&#xd5;" horiz-adv-x="1597" 
d="M895 1340q-107 0 -195 -37q-101 -42 -163 -121q-82 -99 -122 -245q-34 -126 -34 -264q0 -82 19 -135q25 -70 78 -104q62 -40 158 -59q71 -14 172 -14q209 0 341 75v-1q93 56 130 193q23 87 23 218q0 206 -80 337q-53 77 -139.5 117t-187.5 40zM908 1480q148 0 259 -41
q131 -49 203 -149q63 -85 90 -196q24 -100 24 -220q0 -188 -44 -350q-52 -192 -167 -324q-95 -102 -236 -149q-124 -41 -273 -41q-137 0 -251 44q-126 49 -200 145q-65 88 -91 195q-24 100 -24 221q0 195 40 350q52 201 170 324q91 99 233 149q120 42 267 42zM982 1621
q-16 8 -29 18q-33 23 -59 33q-17 6 -34 6q-37 0 -63 -35q-19 -24 -34 -68q0 5 -30 4q-40 -2 -70 -2q5 11 14 32.5t13 31.5q34 91 88 116q33 16 68 16h9h8q11 0 21.5 -1t22.5 -4.5t19.5 -5t21 -7.5t18.5 -8t20.5 -10.5t18 -10t19.5 -11.5t18 -11q44 -25 71 -25q17 -13 46 16
q20 20 39 56q5 10 7 20q0 7 -7 3q38 2 57 2q38 0 57 1q-9 -18 -31 -64q-36 -79 -86 -113q-29 -20 -68 -20q-65 0 -145 41z" />
    <glyph glyph-name="Odieresis" unicode="&#xd6;" horiz-adv-x="1597" 
d="M895 1340q-107 0 -195 -37q-101 -42 -163 -121q-82 -99 -122 -245q-34 -126 -34 -264q0 -82 19 -135q25 -70 78 -104q62 -40 158 -59q71 -14 172 -14q209 0 341 75v-1q93 56 130 193q23 87 23 218q0 206 -80 337q-53 77 -139.5 117t-187.5 40zM908 1480q148 0 259 -41
q131 -49 203 -149q63 -85 90 -196q24 -100 24 -220q0 -188 -44 -350q-52 -192 -167 -324q-95 -102 -236 -149q-124 -41 -273 -41q-137 0 -251 44q-126 49 -200 145q-65 88 -91 195q-24 100 -24 221q0 195 40 350q52 201 170 324q91 99 233 149q120 42 267 42zM1030 1757
q16 1 46.5 1t45.5 1q30 0 92 2q-28 -55 -28 -114q0 -37 12 -70q-62 2 -91 2q-61 0 -92 1q-2 30 -2 44q0 63 17 133zM640 1761q62 -2 91 -2q15 -1 45 -1.5t45 -0.5q0 -11 1 -16v-17q0 -74 -16 -144q-31 -1 -91 -1q-29 0 -91 -2q27 50 27 113q0 33 -11 71z" />
    <glyph glyph-name="multiply" unicode="&#xd7;" horiz-adv-x="1400" 
d="M1271 1049q-133 -125 -206 -193l-207 -195q165 -189 336 -375l-74 -74q-11 -11 -23 -23.5t-27.5 -27.5t-23.5 -23q-119 119 -349 373q-245 -227 -412 -374q-36 41 -61 74q-23 29 -61 74q196 184 200 188q35 32 200 187q-104 120 -157 179q-86 96 -157 179q36 38 74 74
q50 48 75 73q19 -20 52 -55.5t60.5 -65t51.5 -55.5q81 -86 161 -179q174 163 425 386q45 -54 62 -73q21 -24 61 -74z" />
    <glyph glyph-name="Oslash" unicode="&#xd8;" horiz-adv-x="1599" 
d="M1246 1107q-198 -212 -353 -381q-195 -212 -355 -381q64 -48 124 -52q76 -3 152 -3q104 15 170 40q91 33 152 90q67 70 110 181q29 75 59 201q5 52 5 89q0 101 -48 215h-8q-5 0 -8 1zM1199 1207q-59 100 -129 130q-96 41 -214 41q-99 0 -189 -39q-94 -41 -157 -117
q-80 -98 -119 -236q-36 -124 -36 -256q0 -153 117 -300q130 138 363 389q238 256 364 388zM293 228q-95 154 -95 394q0 192 42 346q52 197 168 320q92 101 232 149q122 42 268 42q125 0 224 -32q116 -38 190 -110q32 35 194 201q17 -15 36 -35q17 -18 35 -35
q-33 -35 -99 -103q-11 -11 -31.5 -32t-37 -38t-31.5 -33q98 -160 98 -403q0 -178 -46 -343q-54 -187 -167 -316q-94 -99 -235 -148q-122 -42 -270 -42q-252 0 -408 139q-33 -33 -95 -99q-47 -50 -96 -99q-48 46 -71 70q48 52 98 104q33 33 97 103z" />
    <glyph glyph-name="Ugrave" unicode="&#xd9;" horiz-adv-x="1515" 
d="M347 1413v70q81 -11 181 -19q-6 -319 -42 -739q-5 -60 -5 -109q0 -147 55 -232q40 -56 119 -81q59 -20 149 -20q87 0 152 20q80 25 131 81q55 66 81 164q20 75 29 178q41 446 90 740q29 1 92 7q15 1 46 5t46 5q-77 -394 -116 -922q-9 -126 -37 -217q-36 -119 -109 -196
q-82 -79 -206 -113q-95 -26 -222 -26q-126 0 -213 23q-117 30 -180 99q-53 62 -75 143q-19 69 -19 159q0 53 7 128q46 455 46 852zM691 1884q28 -39 78 -121q42 -70 83 -118q-10 1 -31.5 2t-32.5 1q-10 0 -32 1t-32 1q-50 58 -96 120q-44 58 -97 119q66 -5 160 -5z" />
    <glyph glyph-name="Uacute" unicode="&#xda;" horiz-adv-x="1515" 
d="M347 1413v70q81 -11 181 -19q-6 -319 -42 -739q-5 -60 -5 -109q0 -147 55 -232q40 -56 119 -81q59 -20 149 -20q87 0 152 20q80 25 131 81q55 66 81 164q20 75 29 178q41 446 90 740q29 1 92 7q15 1 46 5t46 5q-77 -394 -116 -922q-9 -126 -37 -217q-36 -119 -109 -196
q-82 -79 -206 -113q-95 -26 -222 -26q-126 0 -213 23q-117 30 -180 99q-53 62 -75 143q-19 69 -19 159q0 53 7 128q46 455 46 852zM765 1884q93 0 159 5q-64 -60 -117 -118q-59 -66 -116 -121q-42 -2 -64 -2q-10 0 -31.5 -1t-32.5 -2q55 56 103 118q43 55 99 121z" />
    <glyph glyph-name="Ucircumflex" unicode="&#xdb;" horiz-adv-x="1515" 
d="M347 1413v70q81 -11 181 -19q-6 -319 -42 -739q-5 -60 -5 -109q0 -147 55 -232q40 -56 119 -81q59 -20 149 -20q87 0 152 20q80 25 131 81q55 66 81 164q20 75 29 178q41 446 90 740q29 1 92 7q15 1 46 5t46 5q-77 -394 -116 -922q-9 -126 -37 -217q-36 -119 -109 -196
q-82 -79 -206 -113q-95 -26 -222 -26q-126 0 -213 23q-117 30 -180 99q-53 62 -75 143q-19 69 -19 159q0 53 7 128q46 455 46 852zM725 1786h178q13 -21 39.5 -63t40.5 -63q40 -63 94 -115q-9 1 -28 1t-29 1q-19 1 -57 1q-45 42 -80 87q-25 31 -75 91q-137 -137 -186 -178
q-38 0 -56 -1q-9 -1 -28 -1t-29 -1q62 54 113 116q15 18 49.5 60t53.5 65z" />
    <glyph glyph-name="Udieresis" unicode="&#xdc;" horiz-adv-x="1515" 
d="M347 1413v70q81 -11 181 -19q-6 -319 -42 -739q-5 -60 -5 -109q0 -147 55 -232q40 -56 119 -81q59 -20 149 -20q87 0 152 20q80 25 131 81q55 66 81 164q20 75 29 178q41 446 90 740q29 1 92 7q15 1 46 5t46 5q-77 -394 -116 -922q-9 -126 -37 -217q-36 -119 -109 -196
q-82 -79 -206 -113q-95 -26 -222 -26q-126 0 -213 23q-117 30 -180 99q-53 62 -75 143q-19 69 -19 159q0 53 7 128q46 455 46 852zM991 1757q16 1 46.5 1t45.5 1q30 0 92 2q-28 -55 -28 -114q0 -37 12 -70q-62 2 -91 2q-61 0 -92 1q-2 30 -2 44q0 63 17 133zM601 1761
q62 -2 91 -2q15 -1 45 -1.5t45 -0.5q0 -11 1 -16v-17q0 -74 -16 -144q-31 -1 -91 -1q-29 0 -91 -2q27 50 27 113q0 33 -11 71z" />
    <glyph glyph-name="Yacute" unicode="&#xdd;" horiz-adv-x="1525" 
d="M348 1484q32 -4 96 -10q16 -2 48 -4.5t48 -3.5q137 -267 354 -758q306 501 485 760q81 4 195 16q-157 -232 -299 -475q-48 -81 -142 -243t-142 -243q-18 -195 -34 -486q-18 1 -54 1h-54h-72q-25 -1 -74 -1q24 227 49 485q-96 242 -135.5 341t-119.5 286.5t-149 334.5z
M977 1784q93 0 159 5q-64 -60 -117 -118q-59 -66 -116 -121q-42 -2 -64 -2q-10 0 -31.5 -1t-32.5 -2q55 56 103 118q43 55 99 121z" />
    <glyph glyph-name="Thorn" unicode="&#xde;" horiz-adv-x="1306" 
d="M348 1484q111 -17 180 -20q-1 -43 -5 -129q-3 -41 -7 -130q84 -5 254 -7q101 -2 167 -14q86 -16 150 -60q64 -52 92 -126q25 -65 25 -148q0 -107 -29 -200q-34 -111 -110 -178q-75 -61 -180 -88q-79 -20 -189 -20q-42 0 -126 -2q-21 0 -63 -2t-63 -2q-20 -165 -42 -330
q-64 -6 -91 -8q-50 -3 -92 -10q121 712 129 1474zM507 1063q-35 -443 -48 -562q126 3 250 3q130 0 207 64q59 49 85 123q20 59 20 131q0 127 -87 188q-69 48 -177 48q-145 0 -250 5z" />
    <glyph glyph-name="germandbls" unicode="&#xdf;" horiz-adv-x="1356" 
d="M280 1131q5 90 32 158q30 82 93 133q66 54 164 76q76 17 177 17q184 0 282 -93q78 -100 78 -249q0 -39 -4 -71q-122 -9 -210 -63q-114 -68 -114 -180q0 -61 56 -114q26 -24 51 -41q52 -36 128 -96q86 -67 121 -152q19 -45 19 -108q0 -87 -28 -157q-34 -85 -105 -123
q-68 -35 -151 -49q-61 -10 -144 -10q-125 4 -259 41q4 53 12 109q8 72 11 108q140 -51 280 -51q86 0 145 23q80 31 80 106q0 60 -46 113q-28 31 -97 79l1 -1q-32 27 -71 53q-52 78 -68 110q-32 61 -32 125q0 139 76 229q49 52 126 79q38 13 72 20q13 3 37.5 8.5t33.5 7.5
q-26 80 -46 121q-31 64 -76 102q-63 34 -177 34q-137 0 -207 -68q-72 -73 -101 -235q-12 -530 -59 -1091q-128 -6 -256 -21q112 498 176 1121z" />
    <glyph glyph-name="agrave" unicode="&#xe0;" horiz-adv-x="1428" 
d="M552 1621q21 -29 59 -87q54 -87 115 -176q30 -44 63 -84q-126 7 -214 7h-32q-36 77 -78 175q-39 92 -87 172q57 -5 174 -7zM1151 1123q-36 -12 -74.5 -12t-59.5 6l-21 6q11 -74 -18 -237q0 -8 -9 9q-2 3 -5 10l-19 35q-34 56 -58.5 84t-62.5 50q-79 46 -179 46h-17h-12
q-87 0 -166 -38q-84 -40 -138 -108q-87 -104 -127 -258q-33 -128 -33 -273q0 -179 75 -293q45 -68 120 -104.5t163 -36.5h35q106 0 207 57q98 56 154 154q-2 -32 -4 -96l-3 -96q27 -3 81 -7q40 -3 81 -9q-9 193 -10.5 280.5t-1 188.5t14 188t31.5 183.5t56 270.5zM618 1011
h-14h-11q-104 0 -181 -70q-66 -60 -105 -165q-17 -46 -29 -104t-12 -91q0 -154 64 -208q36 -36 96 -49q49 -11 111 -11q47 2 76.5 5t70.5 14.5t71 31.5q59 43 82 143q15 63 15 151q0 87 -16 164q-18 86 -78 138q-59 51 -140 51z" />
    <glyph glyph-name="aacute" unicode="&#xe1;" horiz-adv-x="1287" 
d="M625 1620q113 2 194 8q-74 -69 -190 -195q-115 -125 -190 -197q-75 -2 -145 -6q87 93 167 194q86 107 164 196zM1151 1123q-36 -12 -74.5 -12t-59.5 6l-21 6q11 -74 -18 -237q0 -8 -9 9q-2 3 -5 10l-19 35q-34 56 -58.5 84t-62.5 50q-79 46 -179 46h-17h-12
q-87 0 -166 -38q-84 -40 -138 -108q-87 -104 -127 -258q-33 -128 -33 -273q0 -179 75 -293q45 -68 120 -104.5t163 -36.5h35q106 0 207 57q98 56 154 154q-2 -32 -4 -96l-3 -96q27 -3 81 -7q40 -3 81 -9q-9 193 -10.5 280.5t-1 188.5t14 188t31.5 183.5t56 270.5zM618 1011
h-14h-11q-104 0 -181 -70q-66 -60 -105 -165q-17 -46 -29 -104t-12 -91q0 -154 64 -208q36 -36 96 -49q49 -11 111 -11q47 2 76.5 5t70.5 14.5t71 31.5q59 43 82 143q15 63 15 151q0 87 -16 164q-18 86 -78 138q-59 51 -140 51z" />
    <glyph glyph-name="acircumflex" unicode="&#xe2;" horiz-adv-x="1347" 
d="M566 1621h138q32 -60 47 -90q49 -100 98 -176q20 -34 58 -83q-10 0 -29 1t-29 2q-21 0 -59 2q-49 60 -86 120q-13 21 -39 62t-39 62q-34 -42 -100 -124q-47 -59 -107 -120q-38 -2 -58 -2q-9 -1 -28.5 -2t-29.5 -1q63 66 137 171q12 17 34.5 49.5t27.5 39.5q42 60 64 89z
M1151 1123q-36 -12 -74.5 -12t-59.5 6l-21 6q11 -74 -18 -237q0 -8 -9 9q-2 3 -5 10l-19 35q-34 56 -58.5 84t-62.5 50q-79 46 -179 46h-17h-12q-87 0 -166 -38q-84 -40 -138 -108q-87 -104 -127 -258q-33 -128 -33 -273q0 -179 75 -293q45 -68 120 -104.5t163 -36.5h35
q106 0 207 57q98 56 154 154q-2 -32 -4 -96l-3 -96q27 -3 81 -7q40 -3 81 -9q-9 193 -10.5 280.5t-1 188.5t14 188t31.5 183.5t56 270.5zM618 1011h-14h-11q-104 0 -181 -70q-66 -60 -105 -165q-17 -46 -29 -104t-12 -91q0 -154 64 -208q36 -36 96 -49q49 -11 111 -11
q47 2 76.5 5t70.5 14.5t71 31.5q59 43 82 143q15 63 15 151q0 87 -16 164q-18 86 -78 138q-59 51 -140 51z" />
    <glyph glyph-name="atilde" unicode="&#xe3;" horiz-adv-x="1304" 
d="M619 1281l-48 53q-37 37 -69 40q-45 -5 -70 -58q-13 -28 -19 -48q-7 -23 -17 -45q-17 -1 -52 -1q-8 0 -25.5 -1t-26.5 -1q22 46 34 83q13 38 21.5 59.5t27 49.5t40.5 43q37 23 74 23q78 0 137 -57l49 -53q32 -36 66 -40q48 5 73 59q11 24 18 47q8 26 18 45q16 0 33.5 0.5
t38.5 1.5t33 1q-20 -40 -37 -88q-38 -105 -87 -145q-28 -25 -75 -25q-83 0 -137 57zM1151 1123q-36 -12 -74.5 -12t-59.5 6l-21 6q11 -74 -18 -237q0 -8 -9 9q-2 3 -5 10l-19 35q-34 56 -58.5 84t-62.5 50q-79 46 -179 46h-17h-12q-87 0 -166 -38q-84 -40 -138 -108
q-87 -104 -127 -258q-33 -128 -33 -273q0 -179 75 -293q45 -68 120 -104.5t163 -36.5h35q106 0 207 57q98 56 154 154q-2 -32 -4 -96l-3 -96q27 -3 81 -7q40 -3 81 -9q-9 193 -10.5 280.5t-1 188.5t14 188t31.5 183.5t56 270.5zM618 1011h-14h-11q-104 0 -181 -70
q-66 -60 -105 -165q-17 -46 -29 -104t-12 -91q0 -154 64 -208q36 -36 96 -49q49 -11 111 -11q47 2 76.5 5t70.5 14.5t71 31.5q59 43 82 143q15 63 15 151q0 87 -16 164q-18 86 -78 138q-59 51 -140 51z" />
    <glyph glyph-name="adieresis" unicode="&#xe4;" horiz-adv-x="1275" 
d="M761 1455q68 2 100 2q33 0 99 2q-31 -58 -31 -123q0 -42 13 -75q-66 2 -98 2q-33 0 -99 2q-2 14 -2 23v23q0 65 18 144zM342 1459q66 -2 99 -2q16 -1 48.5 -1.5t48.5 -0.5q1 -7 1 -19v-20q0 -77 -16 -151q-33 -1 -99 -1q-66 -2 -100 -3q29 57 29 122q0 43 -11 76z
M1151 1123q-36 -12 -74.5 -12t-59.5 6l-21 6q11 -74 -18 -237q0 -8 -9 9q-2 3 -5 10l-19 35q-34 56 -58.5 84t-62.5 50q-79 46 -179 46h-17h-12q-87 0 -166 -38q-84 -40 -138 -108q-87 -104 -127 -258q-33 -128 -33 -273q0 -179 75 -293q45 -68 120 -104.5t163 -36.5h35
q106 0 207 57q98 56 154 154q-2 -32 -4 -96l-3 -96q27 -3 81 -7q40 -3 81 -9q-9 193 -10.5 280.5t-1 188.5t14 188t31.5 183.5t56 270.5zM618 1011h-14h-11q-104 0 -181 -70q-66 -60 -105 -165q-17 -46 -29 -104t-12 -91q0 -154 64 -208q36 -36 96 -49q49 -11 111 -11
q47 2 76.5 5t70.5 14.5t71 31.5q59 43 82 143q15 63 15 151q0 87 -16 164q-18 86 -78 138q-59 51 -140 51z" />
    <glyph glyph-name="aring" unicode="&#xe5;" horiz-adv-x="1317" 
d="M758 1524q0 5 1 8v8q0 60 -39 98t-100 40q-72 0 -119 -50q-47 -52 -47 -124q0 -61 40 -99q37 -37 98 -37q65 0 112 45q46 45 54 111zM854 1525q-11 -114 -85 -184q-77 -72 -189 -72q-101 0 -160 61q-63 61 -63 162q0 121 74 201q78 85 202 85q96 0 159 -61
q64 -62 64 -161q0 -9 -2 -31zM1151 1123q-36 -12 -74.5 -12t-59.5 6l-21 6q11 -74 -18 -237q0 -8 -9 9q-2 3 -5 10l-19 35q-34 56 -58.5 84t-62.5 50q-79 46 -179 46h-17h-12q-87 0 -166 -38q-84 -40 -138 -108q-87 -104 -127 -258q-33 -128 -33 -273q0 -179 75 -293
q45 -68 120 -104.5t163 -36.5h35q106 0 207 57q98 56 154 154q-2 -32 -4 -96l-3 -96q27 -3 81 -7q40 -3 81 -9q-9 193 -10.5 280.5t-1 188.5t14 188t31.5 183.5t56 270.5zM618 1011h-14h-11q-104 0 -181 -70q-66 -60 -105 -165q-17 -46 -29 -104t-12 -91q0 -154 64 -208
q36 -36 96 -49q49 -11 111 -11q47 2 76.5 5t70.5 14.5t71 31.5q59 43 82 143q15 63 15 151q0 87 -16 164q-18 86 -78 138q-59 51 -140 51z" />
    <glyph glyph-name="ae" unicode="&#xe6;" horiz-adv-x="2021" 
d="M1683 707q3 22 3 44q0 119 -60 198q-67 89 -174 89q-171 0 -278 -108q-104 -104 -127 -228h85q243 0 551 5zM1022 940h-1q83 92 210 139q111 40 243 40q88 0 165 -30q81 -33 125 -102q72 -102 72 -250q0 -33 -5 -75q-6 -48 -8 -76q-530 -2 -793 -2q0 -142 90 -238
q49 -54 132 -80q69 -22 158 -22q185 0 356 91v-31q-1 -11 -1 -32q0 -110 8 -177q-17 -6 -48.5 -18t-42.5 -16q-101 -38 -185 -54q-47 -9 -96 -9q-161 0 -284 56q-142 64 -205 188q-78 -118 -206 -183q-124 -63 -263 -63q-80 0 -136 14q-74 18 -115 65q-54 59 -54 169
q0 44 7 82q16 107 44 181q37 101 104 154q71 50 172 72q75 15 183 15h127q42 -1 127 -1q0 10 1 15t1 14q0 43 -23 84q-10 18 -50 72q-82 93 -245 93q-181 0 -325 -74q-1 9 -1.5 26.5t-0.5 26.5q-2 36 -3 53q174 61 341 61q133 0 233 -37q121 -45 175 -141h3h2h2h5h5z
M889 588l4 41h-182q-25 -1 -75 -1q-80 -2 -149 -16q-88 -18 -123 -63q-41 -52 -54 -120q-6 -33 -6 -60q0 -69 62 -109q56 -37 129 -37q81 0 146 19q78 23 131 71q57 52 86 128q22 57 31 147z" />
    <glyph glyph-name="ccedilla" unicode="&#xe7;" horiz-adv-x="1204" 
d="M1039 1075q-10 -52 -13 -73q-8 -48 -12 -73q-125 64 -273 64q-89 0 -159 -26q-85 -33 -136 -93q-55 -63 -83 -150q-24 -75 -32 -167q0 -65 16 -112q18 -60 60 -91q49 -33 107 -46t141 -20l152 -3h12q69 0 131 30q-4 -73 -4 -161q0 -34 2 -104q-134 -49 -291 -49
q-128 0 -223 28q-118 34 -184 117q-94 113 -94 320q0 146 33 263q41 152 134 241q83 80 211 117q102 29 234 29q144 0 275 -49q-3 4 -4 8zM595 85q74 -106 74 -190q0 -41 -18 -82q-20 -46 -57 -62q-61 -29 -169 -29q-75 0 -147 15q4 17 10 53q4 36 7 54q44 -23 121 -23h13
q3 -1 12 -1q47 0 82 29q37 30 37 76q0 28 -10.5 59.5t-19 47t-29.5 51.5q32 0 94 2z" />
    <glyph glyph-name="egrave" unicode="&#xe8;" horiz-adv-x="1301" 
d="M1110 674l1 1q-2 -20 -3 -29q0 -5 -2 -15t-2 -15q-249 -3 -497 -3q-96 0 -143 1h-144q-3 -75 -3 -78q0 -74 15 -122q21 -66 66 -98q59 -38 148 -56q66 -14 158 -14q118 0 176 5q97 8 167 44q-1 -19 -1 -57v-57v-57q0 -19 2 -57q-191 -64 -401 -64q-127 9 -215 36
q-116 35 -180 109q-55 61 -79 149q-21 72 -21 172q0 134 38 259q46 149 130 239q75 76 184 113q96 32 209 34q103 -6 170 -25q93 -27 146 -80q47 -52 67 -134q15 -61 15 -155v-23q-1 -8 -1 -23zM989 751q-5 122 -81 203q-80 85 -202 85q-158 0 -254 -90q-97 -84 -103 -200
q74 -2 110 -2h111q231 0 419 4zM576 1621q21 -29 59 -87q54 -87 115 -176q30 -44 63 -84q-126 7 -214 7h-32q-36 77 -78 175q-39 92 -87 172q57 -5 174 -7z" />
    <glyph glyph-name="eacute" unicode="&#xe9;" horiz-adv-x="1301" 
d="M1110 674l1 1q-2 -20 -3 -29q0 -5 -2 -15t-2 -15q-249 -3 -497 -3q-96 0 -143 1h-144q-3 -75 -3 -78q0 -74 15 -122q21 -66 66 -98q59 -38 148 -56q66 -14 158 -14q118 0 176 5q97 8 167 44q-1 -19 -1 -57v-57v-57q0 -19 2 -57q-191 -64 -401 -64q-127 9 -215 36
q-116 35 -180 109q-55 61 -79 149q-21 72 -21 172q0 134 38 259q46 149 130 239q75 76 184 113q96 32 209 34q103 -6 170 -25q93 -27 146 -80q47 -52 67 -134q15 -61 15 -155v-23q-1 -8 -1 -23zM989 751q-5 122 -81 203q-80 85 -202 85q-158 0 -254 -90q-97 -84 -103 -200
q74 -2 110 -2h111q231 0 419 4zM690 1620q113 2 194 8q-74 -69 -190 -195q-115 -125 -190 -197q-75 -2 -145 -6q87 93 167 194q86 107 164 196z" />
    <glyph glyph-name="ecircumflex" unicode="&#xea;" horiz-adv-x="1301" 
d="M1110 674l1 1q-2 -20 -3 -29q0 -5 -2 -15t-2 -15q-249 -3 -497 -3q-96 0 -143 1h-144q-3 -75 -3 -78q0 -74 15 -122q21 -66 66 -98q59 -38 148 -56q66 -14 158 -14q118 0 176 5q97 8 167 44q-1 -19 -1 -57v-57v-57q0 -19 2 -57q-191 -64 -401 -64q-127 9 -215 36
q-116 35 -180 109q-55 61 -79 149q-21 72 -21 172q0 134 38 259q46 149 130 239q75 76 184 113q96 32 209 34q103 -6 170 -25q93 -27 146 -80q47 -52 67 -134q15 -61 15 -155v-23q-1 -8 -1 -23zM989 751q-5 122 -81 203q-80 85 -202 85q-158 0 -254 -90q-97 -84 -103 -200
q74 -2 110 -2h111q231 0 419 4zM571 1522h138q32 -60 47 -90q49 -100 98 -176q20 -34 58 -83q-9 1 -28.5 2t-29.5 1q-21 0 -59 2q-49 60 -86 120q-13 20 -39 61.5t-39 62.5q-34 -42 -100 -124q-47 -59 -107 -120q-38 -2 -58 -2q-9 0 -29 -1t-29 -2q63 66 137 171
q12 17 34.5 49.5t27.5 39.5q42 60 64 89z" />
    <glyph glyph-name="edieresis" unicode="&#xeb;" horiz-adv-x="1301" 
d="M1110 674l1 1q-2 -20 -3 -29q0 -5 -2 -15t-2 -15q-249 -3 -497 -3q-96 0 -143 1h-144q-3 -75 -3 -78q0 -74 15 -122q21 -66 66 -98q59 -38 148 -56q66 -14 158 -14q118 0 176 5q97 8 167 44q-1 -19 -1 -57v-57v-57q0 -19 2 -57q-191 -64 -401 -64q-127 9 -215 36
q-116 35 -180 109q-55 61 -79 149q-21 72 -21 172q0 134 38 259q46 149 130 239q75 76 184 113q96 32 209 34q103 -6 170 -25q93 -27 146 -80q47 -52 67 -134q15 -61 15 -155v-23q-1 -8 -1 -23zM989 751q-5 122 -81 203q-80 85 -202 85q-158 0 -254 -90q-97 -84 -103 -200
q74 -2 110 -2h111q231 0 419 4zM837 1455q68 2 100 2q33 0 99 2q-31 -58 -31 -123q0 -42 13 -75q-66 2 -98 2q-33 0 -99 2q-2 14 -2 23v23q0 65 18 144zM418 1459q66 -2 99 -2q16 -1 48.5 -1.5t48.5 -0.5q1 -7 1 -19v-20q0 -77 -16 -151q-33 -1 -99 -1q-66 -2 -100 -3
q29 57 29 122q0 43 -11 76z" />
    <glyph glyph-name="igrave" unicode="&#xec;" horiz-adv-x="1131" 
d="M799 1110q35 -23 78 -23q45 0 86 23q-63 -592 -97 -1100q-34 21 -78 21q-46 0 -86 -21q63 592 97 1100zM552 1621q21 -29 59 -87q54 -87 115 -176q30 -44 63 -84q-126 7 -214 7h-32q-36 77 -78 175q-39 92 -87 172q57 -5 174 -7z" />
    <glyph glyph-name="iacute" unicode="&#xed;" horiz-adv-x="990" 
d="M658 1110q35 -23 78 -23q45 0 86 23q-63 -592 -97 -1100q-35 21 -78 21q-45 0 -86 -21q63 592 97 1100zM625 1620q113 2 194 8q-74 -69 -190 -195q-115 -125 -190 -197q-75 -2 -145 -6q87 93 167 194q86 107 164 196z" />
    <glyph glyph-name="icircumflex" unicode="&#xee;" horiz-adv-x="1050" 
d="M718 1110q35 -23 78 -23q45 0 86 23q-63 -592 -97 -1100q-35 21 -78 21q-45 0 -86 -21q63 592 97 1100zM566 1621h138q32 -60 47 -90q49 -100 98 -176q20 -34 58 -83q-10 0 -29 1t-29 2q-21 0 -59 2q-49 60 -86 120q-13 21 -39 62t-39 62q-34 -42 -100 -124
q-47 -59 -107 -120q-38 -2 -58 -2q-9 -1 -28.5 -2t-29.5 -1q63 66 137 171q12 17 34.5 49.5t27.5 39.5q42 60 64 89z" />
    <glyph glyph-name="idieresis" unicode="&#xef;" horiz-adv-x="941" 
d="M562 1110q35 -23 78 -23q45 0 86 23q-63 -592 -97 -1100q-35 21 -78 21q-45 0 -86 -21q63 592 97 1100zM776 1525q68 2 100 2q33 0 99 2q-31 -58 -31 -123q0 -42 13 -75q-66 2 -98 2q-33 0 -99 2q-2 14 -2 23v23q0 65 18 144zM357 1529q66 -2 99 -2q16 -1 48.5 -1.5
t48.5 -0.5q1 -7 1 -19v-20q0 -77 -16 -151q-33 -1 -99 -1q-66 -2 -100 -3q29 57 29 122q0 43 -11 76z" />
    <glyph glyph-name="eth" unicode="&#xf0;" horiz-adv-x="1261" 
d="M866 915l-5 3q-91 31 -176 31q-72 0 -139.5 -27.5t-114.5 -80.5q-63 -70 -95 -182q-25 -88 -25 -196q0 -130 57 -215q36 -56 101 -82q56 -24 133 -24q139 0 230 106q61 72 88 184q19 84 19 194q0 181 -73 289zM931 1121q173 -220 173 -505q0 -135 -33 -246
q-40 -136 -123 -224q-74 -70 -172 -104q-93 -32 -195 -32q-103 0 -190 32q-99 36 -156 103q-88 109 -88 298q0 134 37 255q44 143 130 232q63 70 158 109q87 34 185 34q86 -6 129 -11q-52 64 -77 97q-29 37 -78 97q-206 -64 -310 -93q-1 6 -5 19.5t-5 20.5q-7 23 -11 40
q69 17 142 39q82 25 140 41q-24 29 -163 201q84 -6 200 -8q29 -38 59 -71q30 -35 57 -72q227 77 340 122q1 -6 3.5 -18t4.5 -19q4 -23 7 -37q-112 -48 -306 -113q40 -54 73 -93q18 -22 74 -94z" />
    <glyph glyph-name="ntilde" unicode="&#xf1;" horiz-adv-x="1394" 
d="M1129 675h-8q0 -61 -2.5 -181t-2.5 -181q0 -159 13 -303q-113 11 -240 16q20 277 77 650q5 52 5 93q0 78 -25 135q-23 44 -72 67q-40 18 -94 18q-76 0 -140 -18q-75 -21 -125 -74q-84 -94 -97 -257q-11 -307 -42 -614q-150 -8 -235 -16q121 533 129 1108q57 -7 162 -13
q0 -11 -1 -35t-1 -35q0 -12 -0.5 -35.5t-1.5 -35.5q205 152 401 152q84 0 149 -29q74 -35 108 -98q45 -100 45 -239q0 -25 -2 -75zM678 1281l-48 53q-37 37 -69 40q-45 -5 -70 -58q-13 -28 -19 -48q-7 -23 -17 -45q-17 -1 -52 -1q-8 0 -25.5 -1t-26.5 -1q22 46 34 83
q13 38 21.5 59.5t27 49.5t40.5 43q37 23 74 23q78 0 137 -57l49 -53q32 -36 66 -40q48 5 73 59q11 24 18 47q7 26 18 45q16 0 33.5 0.5t38.5 1.5t33 1q-20 -40 -37 -88q-38 -105 -87 -145q-28 -25 -75 -25q-83 0 -137 57z" />
    <glyph glyph-name="ograve" unicode="&#xf2;" horiz-adv-x="1273" 
d="M682 1002q-154 0 -242 -111q-59 -76 -86 -184q-21 -85 -21 -195q0 -56 12 -96q13 -49 51 -77q79 -50 224 -50q138 0 229 51q68 47 93 155q15 64 15 163q0 140 -54 232q-32 55 -91.5 83t-129.5 29zM693 1114q106 0 192 -30q97 -34 153 -110q82 -113 82 -305
q0 -154 -29 -270q-41 -159 -127 -256q-67 -78 -173 -111q-90 -29 -201 -29q-109 0 -192 29q-97 34 -150 110q-82 113 -82 309q0 152 29 269q39 159 126 254q66 73 173 110q87 30 199 30zM552 1621q21 -29 59 -87q54 -87 115 -176q30 -44 63 -84q-126 7 -214 7h-32
q-36 77 -78 175q-39 92 -87 172q57 -5 174 -7z" />
    <glyph glyph-name="oacute" unicode="&#xf3;" horiz-adv-x="1264" 
d="M673 1002q-154 0 -242 -111q-59 -76 -86 -184q-21 -85 -21 -195q0 -56 12 -96q13 -49 51 -77q79 -50 224 -50q138 0 229 51q68 47 93 155q15 64 15 163q0 140 -54 232q-32 55 -91.5 83t-129.5 29zM684 1114q106 0 192 -30q97 -34 153 -110q82 -113 82 -305
q0 -154 -29 -270q-41 -159 -127 -256q-67 -78 -173 -111q-90 -29 -201 -29q-109 0 -192 29q-97 34 -150 110q-82 113 -82 309q0 152 29 269q39 159 126 254q66 73 173 110q87 30 199 30zM656 1620q113 2 194 8q-74 -69 -190 -195q-115 -125 -190 -197q-75 -2 -145 -6
q87 93 167 194q86 107 164 196z" />
    <glyph glyph-name="ocircumflex" unicode="&#xf4;" horiz-adv-x="1264" 
d="M673 1002q-154 0 -242 -111q-59 -76 -86 -184q-21 -85 -21 -195q0 -56 12 -96q13 -49 51 -77q79 -50 224 -50q138 0 229 51q68 47 93 155q15 64 15 163q0 140 -54 232q-32 55 -91.5 83t-129.5 29zM684 1114q106 0 192 -30q97 -34 153 -110q82 -113 82 -305
q0 -154 -29 -270q-41 -159 -127 -256q-67 -78 -173 -111q-90 -29 -201 -29q-109 0 -192 29q-97 34 -150 110q-82 113 -82 309q0 152 29 269q39 159 126 254q66 73 173 110q87 30 199 30zM638 1621h138q32 -60 47 -90q49 -100 98 -176q20 -34 58 -83q-9 0 -29 1t-29 2
q-21 0 -59 2q-49 60 -86 120q-13 21 -39 62t-39 62q-34 -42 -100 -124q-47 -59 -107 -120q-38 -2 -58 -2q-9 -1 -29 -2t-29 -1q63 66 137 171q12 17 34.5 49.5t27.5 39.5q42 60 64 89z" />
    <glyph glyph-name="otilde" unicode="&#xf5;" horiz-adv-x="1264" 
d="M673 1002q-154 0 -242 -111q-59 -76 -86 -184q-21 -85 -21 -195q0 -56 12 -96q13 -49 51 -77q79 -50 224 -50q138 0 229 51q68 47 93 155q15 64 15 163q0 140 -54 232q-32 55 -91.5 83t-129.5 29zM684 1114q106 0 192 -30q97 -34 153 -110q82 -113 82 -305
q0 -154 -29 -270q-41 -159 -127 -256q-67 -78 -173 -111q-90 -29 -201 -29q-109 0 -192 29q-97 34 -150 110q-82 113 -82 309q0 152 29 269q39 159 126 254q66 73 173 110q87 30 199 30zM733 1281l-48 53q-37 37 -69 40q-45 -5 -70 -58q-13 -28 -19 -48q-7 -23 -17 -45
q-17 -1 -52 -1q-8 0 -25.5 -1t-26.5 -1q22 46 34 83q13 38 21.5 59.5t27 49.5t40.5 43q37 23 74 23q78 0 137 -57l49 -53q32 -36 66 -40q48 5 73 59q11 24 18 47q8 26 18 45l105 3q-20 -40 -37 -88q-38 -105 -87 -145q-28 -25 -75 -25q-83 0 -137 57z" />
    <glyph glyph-name="odieresis" unicode="&#xf6;" horiz-adv-x="1264" 
d="M673 1002q-154 0 -242 -111q-59 -76 -86 -184q-21 -85 -21 -195q0 -56 12 -96q13 -49 51 -77q79 -50 224 -50q138 0 229 51q68 47 93 155q15 64 15 163q0 140 -54 232q-32 55 -91.5 83t-129.5 29zM684 1114q106 0 192 -30q97 -34 153 -110q82 -113 82 -305
q0 -154 -29 -270q-41 -159 -127 -256q-67 -78 -173 -111q-90 -29 -201 -29q-109 0 -192 29q-97 34 -150 110q-82 113 -82 309q0 152 29 269q39 159 126 254q66 73 173 110q87 30 199 30zM904 1356q68 2 100 2q33 0 99 2q-31 -58 -31 -123q0 -42 13 -75q-66 2 -98 2
q-33 0 -99 2q-2 14 -2 23v23q0 65 18 144zM485 1360q66 -2 99 -2q16 -1 48.5 -1.5t48.5 -0.5q1 -7 1 -19v-20q0 -77 -16 -151q-33 -1 -99 -1q-66 -2 -100 -3q29 57 29 122q0 43 -11 76z" />
    <glyph glyph-name="divide" unicode="&#xf7;" horiz-adv-x="1555" 
d="M700 1154q19 -1 59 -1h58h80q53 0 80 1l-8.5 -68t-7.5 -65q-2 -23 -7 -67t-8 -67q-22 -1 -66 -1h-66h-65q-44 0 -66 1q7 89 17 267zM636 345q44 0 66 1h65h66q22 -1 66 -1q-12 -153 -16 -265q-19 1 -58 1h-58h-80q-27 -1 -81 -1q10 88 15 133zM185 717l-3 -1h221
q95 0 285.5 -0.5t286.5 -0.5h93.5t90 0.5t81 0.5h70.5t54.5 0.5t37.5 0.5h13q-12 -114 -17 -199q-258 3 -517 3q-393 0 -713 -4q8 78 17 200z" />
    <glyph glyph-name="oslash" unicode="&#xf8;" horiz-adv-x="1263" 
d="M925 797l-9 1h-7q-169 -188 -258 -290q-85 -97 -259 -289q72 -85 210 -85q67 0 129.5 29.5t102.5 84.5q64 78 91 199q21 93 21 207q0 81 -21 143zM873 897q-74 85 -210 85q-68 0 -129 -29q-66 -32 -107 -86q-59 -79 -86 -192q-22 -89 -22 -203q0 -100 24 -167
q178 198 265 297q132 149 265 295zM223 173q-65 111 -65 290q0 150 30 264q39 154 125 247q70 75 174 109q93 30 201 30q186 0 297 -96q27 29 82 87t82 87q3 -2 68 -59q-59 -61 -86 -92q-56 -62 -85 -93q63 -118 63 -288q0 -147 -30 -266q-41 -156 -127 -249
q-65 -74 -169 -110q-90 -31 -198 -31q-194 0 -303 98q-40 -45 -81 -87l-84 -87q-17 13 -33 30q-13 12 -34 29q45 46 87 93q54 60 86 94z" />
    <glyph glyph-name="ugrave" unicode="&#xf9;" horiz-adv-x="1340" 
d="M237 442q32 297 32 579v45q-1 15 -1 45q42 -6 66 -7q33 -2 66 -6q-4 -234 -23 -492v-16q-1 -6 -1 -18q0 -118 35 -189q53 -92 169 -92q157 0 243 94q85 94 111 256q21 203 66 455q99 5 196 15q-119 -551 -120 -1099q-53 5 -162 11q5 84 17 194q-62 -97 -159 -155
q-103 -61 -209 -61h-9h-18q-87 0 -153 28q-78 33 -111 98q-40 93 -40 211q0 46 5 104zM549 1522q21 -29 59 -87q54 -87 115 -176q30 -43 63 -84q-126 7 -214 7h-32q-36 77 -78 175q-39 92 -87 172q57 -5 174 -7z" />
    <glyph glyph-name="uacute" unicode="&#xfa;" horiz-adv-x="1340" 
d="M237 442q32 297 32 579v45q-1 15 -1 45q42 -6 66 -7q33 -2 66 -6q-4 -234 -23 -492v-16q-1 -6 -1 -18q0 -118 35 -189q53 -92 169 -92q157 0 243 94q85 94 111 256q21 203 66 455q99 5 196 15q-119 -551 -120 -1099q-53 5 -162 11q5 84 17 194q-62 -97 -159 -155
q-103 -61 -209 -61h-9h-18q-87 0 -153 28q-78 33 -111 98q-40 93 -40 211q0 46 5 104zM663 1620q113 2 194 8q-74 -69 -190 -195q-115 -125 -190 -197q-75 -2 -145 -6q87 93 167 194q86 107 164 196z" />
    <glyph glyph-name="ucircumflex" unicode="&#xfb;" horiz-adv-x="1362" 
d="M259 442q32 297 32 579v45q-1 15 -1 45q42 -6 66 -7q33 -2 66 -6q-4 -234 -23 -492v-16q-1 -6 -1 -18q0 -118 35 -189q53 -92 169 -92q157 0 243 94q85 94 111 256q21 203 66 455q99 5 196 15q-119 -551 -120 -1099q-53 5 -162 11q5 84 17 194q-62 -97 -159 -155
q-103 -61 -209 -61h-9h-18q-87 0 -153 28q-78 33 -111 98q-40 93 -40 211q0 46 5 104zM566 1621h138q32 -60 47 -90q49 -100 98 -176q20 -34 58 -83q-10 0 -29 1t-29 2q-21 0 -59 2q-49 60 -86 120q-13 21 -39 62t-39 62q-34 -42 -100 -124q-47 -59 -107 -120q-38 -2 -58 -2
q-9 -1 -28.5 -2t-29.5 -1q63 66 137 171q12 17 34.5 49.5t27.5 39.5q42 60 64 89z" />
    <glyph glyph-name="udieresis" unicode="&#xfc;" horiz-adv-x="1340" 
d="M237 442q32 297 32 579v45q-1 15 -1 45q42 -6 66 -7q33 -2 66 -6q-4 -234 -23 -492v-16q-1 -6 -1 -18q0 -118 35 -189q53 -92 169 -92q157 0 243 94q85 94 111 256q21 203 66 455q99 5 196 15q-119 -551 -120 -1099q-53 5 -162 11q5 84 17 194q-62 -97 -159 -155
q-103 -61 -209 -61h-9h-18q-87 0 -153 28q-78 33 -111 98q-40 93 -40 211q0 46 5 104zM911 1455q68 2 100 2q33 0 99 2q-31 -58 -31 -123q0 -42 13 -75q-66 2 -98 2q-33 0 -99 2q-2 14 -2 23v23q0 65 18 144zM492 1459q66 -2 99 -2q16 -1 48.5 -1.5t48.5 -0.5q1 -7 1 -19
v-20q0 -77 -16 -151q-33 -1 -99 -1q-66 -2 -100 -3q29 57 29 122q0 43 -11 76z" />
    <glyph glyph-name="yacute" unicode="&#xfd;" horiz-adv-x="1361" 
d="M754 -83q-4 -7 -18.5 -33t-21.5 -40q-46 -80 -96 -137q-67 -76 -148 -100q-80 -24 -187 -29q-35 -2 -95 -8q10 53 18 112q5 37 17 111q21 2 63 4q69 0 122 16q46 14 108 78q1 1 49 52q9 16 25.5 43.5t20.5 35.5t20.5 35.5t25.5 43.5q-252 685 -389 1009q99 -14 171 -19
q197 -357 344 -649q242 439 370 650q83 7 177 18q-125 -227 -297 -592q-94 -200 -140 -300q-77 -170 -139 -301zM713 1620q113 2 194 8q-74 -69 -190 -195q-115 -125 -190 -197q-75 -2 -145 -6q87 93 167 194q86 107 164 196z" />
    <glyph glyph-name="thorn" unicode="&#xfe;" horiz-adv-x="1382" 
d="M441 182l-18 -6q-45 -405 -68 -571q-43 -3 -83 -9q-27 -4 -83 -12q148 975 172 1962q58 -12 162 -25q-24 -448 -37 -621q55 93 152 152q96 58 202 58h14h13q86 0 160.5 -37t118.5 -104q82 -124 82 -316q0 -143 -31 -262q-40 -146 -123 -243q-52 -66 -139 -107
q-81 -38 -167 -38h-12h-15q-99 0 -180 46q-86 48 -120 133zM1064 558q4 36 4 81q0 151 -64 241q-73 101 -215 101q-65 0 -124.5 -29.5t-100.5 -82.5q-60 -76 -87 -192q-23 -92 -23 -201q0 -145 55 -233q29 -56 93 -85q56 -26 128 -26q105 0 184 69q68 59 107 162
q35 91 43 195z" />
    <glyph glyph-name="Cacute" unicode="&#x106;" horiz-adv-x="1521" 
d="M1392 1377q-17 -91 -31 -190q-74 74 -176.5 113t-215.5 39q-120 0 -219 -29q-116 -34 -195 -113q-96 -105 -139 -256q-36 -127 -36 -271q0 -92 20 -157q25 -81 80 -129q66 -55 183 -81q80 -18 205 -18q117 0 222 41q112 42 198 118q-8 -155 -8 -290v-33
q-182 -112 -438 -112q-157 0 -284 41q-148 46 -236 147q-67 85 -97 202q-27 99 -27 229q0 194 43 346q54 196 175 316q105 105 265 153q132 38 297 38q114 0 220 -25q108 -26 196 -87zM820 1884q93 0 159 5q-64 -60 -117 -118q-59 -66 -116 -121q-42 -2 -64 -2
q-11 0 -32.5 -1t-31.5 -2q55 56 103 118q43 55 99 121z" />
    <glyph glyph-name="cacute" unicode="&#x107;" horiz-adv-x="1204" 
d="M1039 1075q-10 -52 -13 -73q-8 -48 -12 -73q-125 64 -273 64q-89 0 -159 -26q-85 -33 -136 -93q-55 -63 -83 -150q-24 -75 -32 -167q0 -65 16 -112q18 -60 60 -91q49 -33 107 -46t141 -20l152 -3h12q69 0 131 30q-4 -73 -4 -161q0 -34 2 -104q-134 -49 -291 -49
q-128 0 -223 28q-118 34 -184 117q-94 113 -94 320q0 146 33 263q41 152 134 241q83 80 211 117q102 29 234 29q144 0 275 -49q-3 4 -4 8zM698 1620q113 2 194 8q-74 -69 -190 -195q-115 -125 -190 -197q-75 -2 -145 -6q87 93 167 194q86 107 164 196z" />
    <glyph glyph-name="Ccaron" unicode="&#x10c;" horiz-adv-x="1521" 
d="M1392 1377q-17 -91 -31 -190q-74 74 -176.5 113t-215.5 39q-120 0 -219 -29q-116 -34 -195 -113q-96 -105 -139 -256q-36 -127 -36 -271q0 -92 20 -157q25 -81 80 -129q66 -55 183 -81q80 -18 205 -18q117 0 222 41q112 42 198 118q-8 -155 -8 -290v-33
q-182 -112 -438 -112q-157 0 -284 41q-148 46 -236 147q-67 85 -97 202q-27 99 -27 229q0 194 43 346q54 196 175 316q105 105 265 153q132 38 297 38q114 0 220 -25q108 -26 196 -87zM739 1549q-42 63 -81 126q-42 63 -93 116q9 -1 28 -1t29 -1q18 -1 56 -1
q47 -47 154 -178q136 136 187 178q38 0 57 1q9 1 28 1t29 1q-20 -17 -41 -38t-36 -36.5t-38 -42.5t-32.5 -39t-35.5 -44.5t-33 -41.5q-15 1 -44 1h-45h-45q-29 0 -44 -1z" />
    <glyph glyph-name="ccaron" unicode="&#x10d;" horiz-adv-x="1239" 
d="M1074 1075q-10 -52 -13 -73q-8 -48 -12 -73q-125 64 -273 64q-89 0 -159 -26q-85 -33 -136 -93q-55 -63 -83 -150q-24 -75 -32 -167q0 -65 16 -112q18 -60 60 -91q49 -33 107 -46t141 -20l152 -3h12q70 0 131 30q-4 -73 -4 -161q0 -34 2 -104q-134 -49 -291 -49
q-128 0 -223 28q-118 34 -184 117q-94 113 -94 320q0 146 33 263q41 152 134 241q83 80 211 117q101 29 234 29q144 0 275 -49q-3 4 -4 8zM697 1180h-138q-53 98 -95 179q-46 88 -107 170q40 -3 115 -5q59 -75 164 -244q53 64 101 125q54 67 106 119l60 3q20 0 58 2
q-24 -26 -49.5 -56t-44 -53.5t-46 -61.5t-40.5 -56.5t-43.5 -63t-40.5 -58.5z" />
    <glyph glyph-name="dcroat" unicode="&#x111;" horiz-adv-x="1322" 
d="M962 943q26 265 35 332q-105 -4 -315 -4q1 9 2.5 26t1.5 25t1.5 24.5t2.5 25.5q212 0 319 5q4 24 10 72t10 72q54 2 82 4q54 4 82 6q-9 -56 -22 -146q92 7 151 13q-2 -8 -4 -26t-4 -26q-6 -36 -8 -53q-50 -4 -74 -6q-50 -4 -75 -5q-92 -702 -97 -1258q-27 1 -81 5
q-26 2 -82 4q1 16 2.5 48t1.5 48q0 15 1.5 47t2.5 48q-61 -101 -157 -157q-100 -58 -210 -58h-12h-10q-3 -1 -10 -1q-88 0 -160 36q-78 36 -120 105q-73 108 -73 289q0 150 32 275q40 158 128 261q52 68 137 108q79 38 166 38h12h14q101 0 181 -47q87 -51 121 -135q8 4 18 5
zM323 605q-4 -32 -4 -72q0 -129 54 -211q32 -49 87.5 -74.5t120.5 -25.5q160 0 248 103q58 68 84 163q22 81 22 176q0 141 -59 225q-68 103 -222 103q-65 0 -125 -26t-102 -76q-84 -100 -104 -285z" />
    <glyph glyph-name="Gbreve" unicode="&#x11e;" horiz-adv-x="1614" 
d="M1184 382q1 28 5 84q2 27 6 83q-100 2 -150 2h-151l16 189q166 0 248 1h248q-28 -329 -28 -596q-114 -74 -252 -105q-127 -30 -269 -30q-172 0 -292 36q-154 45 -242 148q-67 78 -98 195q-26 94 -26 225q0 124 16 232q20 137 65 241q51 121 139 206q101 101 262 149
q134 39 293 39q134 0 250 -23q130 -28 226 -89q-3 -14 -7.5 -42t-6.5 -42q-8 -42 -12 -84q-88 79 -204 119q-111 38 -239 38q-124 0 -223 -27q-121 -35 -200 -111q-94 -99 -138 -251q-35 -123 -35 -267q0 -105 18 -167q26 -91 83 -139q72 -53 183 -73q88 -17 203 -19
q13 1 40 1.5t41 0.5q93 2 164 29q36 13 63 40q0 1 1 2t1 2t1 1zM720 1889q17 -52 70 -82q48 -28 108 -28q5 0 8 1h7h7q2 -1 7 -1q59 0 112.5 29t83.5 81q34 2 49 2q32 0 49 1l-21 -42q-23 -52 -47 -83q-34 -44 -86 -66q-49 -22 -109 -25q-28 -2 -54 -3q-133 2 -194 49
q-36 32 -58 87q-7 15 -17 47t-15 47q-2 -10 10 -11q14 -2 28 -2q22 0 34 1q14 0 28 -2z" />
    <glyph glyph-name="gbreve" unicode="&#x11f;" horiz-adv-x="1292" 
d="M861 575q4 36 4 78q0 166 -79 253q-73 80 -206 80q-67 0 -129.5 -26t-102.5 -76q-47 -58 -73 -147q-17 -60 -25 -159q0 -10 1.5 -32t2.5 -34q5 -80 25 -128q12 -30 35 -53q61 -42 203 -42q132 0 231 42q58 33 85 109q18 50 28 135zM1042 141q-26 -190 -40 -247
q-37 -143 -114 -227q-75 -75 -197 -102q-85 -20 -217 -20q-174 0 -306 36q16 97 40 301q123 -67 291 -67q84 2 145 22q78 25 126 78q88 93 116 195q2 32 4 47q2 30 2 46q-131 -181 -365 -181q-86 0 -161 37t-119 106q-83 123 -83 332q0 136 26 245q34 141 113 228
q59 69 144 103q80 32 170 32h15h16q107 0 195 -54q88 -55 128 -149l24 96q8 31 24 95q56 6 83 9q42 3 83 9q-83 -415 -143 -970zM494 1594q12 -62 62 -105q48 -42 114 -42q5 0 7 1h7h7q2 -1 6 -1q66 0 123 43q56 43 80 105q1 0 97 3q-16 -32 -23 -49q-28 -64 -49 -98
q-18 -27 -34 -43q-42 -39 -106 -59q-44 -13 -110 -13q-132 0 -194 57q-38 44 -56 106q-10 31 -15 56l-15 54q-2 -10 10 -11q11 -3 27 -3q22 0 34 1q14 0 28 -2z" />
    <glyph glyph-name="Idot" unicode="&#x130;" horiz-adv-x="697" 
d="M368 1468q39 -14 78 -14q53 0 94 20q-71 -794 -108 -1464q-47 28 -107 28t-115 -28q70 546 158 1458zM428 1837l-1 26h31q15 0 45.5 -1t45.5 -1q14 0 29.5 0.5t25.5 0.5l10 1q-17 -79 -17 -148v-19q0 -12 1 -19h-32q-14 0 -43 0.5t-44 0.5h-19h-18t-15 -0.5t-11 -0.5h-4
q16 74 16 160z" />
    <glyph glyph-name="dotlessi" unicode="&#x131;" horiz-adv-x="600" 
d="M268 1110q35 -23 78 -23q45 0 86 23q-63 -592 -97 -1100q-35 21 -78 21q-45 0 -86 -21q63 592 97 1100z" />
    <glyph glyph-name="Lslash" unicode="&#x141;" horiz-adv-x="1468" 
d="M418 1463q15 -1 45.5 -2.5t46.5 -1.5q15 -1 45.5 -2t46.5 -1q-21 -330 -44 -603q108 72 161 108q53 35 161 107q4 -7 28 -44q4 -8 13.5 -23t14.5 -22q-173 -117 -194 -131q-33 -22 -98.5 -66t-97.5 -66q-20 -239 -53 -534q27 1 79 1h79q297 0 550 -22q1 -25 1 -75
q0 -51 1 -76q-271 28 -553 28q-186 0 -357 -10q38 256 69 565q-40 -25 -78 -54q-52 -38 -79 -57q-16 26 -25 46q-3 6 -26 44q103 74 221 155q32 344 43 736z" />
    <glyph glyph-name="lslash" unicode="&#x142;" horiz-adv-x="789" 
d="M427 1517h1q26 -2 41 -2h41h42q13 0 41 2q-37 -371 -56 -590q44 32 67 48q31 20 67 48q10 -21 25 -43q9 -13 27 -41q-119 -86 -199 -139q-36 -398 -60 -763h-31q-13 0 -38 0.5t-37 0.5h-18h-16t-13 -0.5t-9 -0.5h-4q32 307 62 650l-132 -93q-11 24 -24 44q-9 14 -27 44
q64 46 97 68q64 44 97 67q36 420 56 700z" />
    <glyph glyph-name="OE" unicode="&#x152;" horiz-adv-x="2269" 
d="M2115 1483q-15 -49 -28 -111q-310 -19 -731 -24q-27 -223 -45 -416q377 2 688 7q-7 -49 -17 -147l-684 -3q-23 -260 -39 -501q481 -6 727 -17q6 -162 18 -261q-427 28 -1052 28q-194 0 -321 28q-176 38 -283 131q-80 78 -119 202q-31 100 -31 231q0 186 42 337
q55 197 177 306q142 116 354 157q129 24 367 24q562 0 977 29zM1177 1347h-137q-147 0 -251 -25q-137 -33 -230 -111q-88 -78 -132 -215q-29 -91 -45 -248q-2 -26 -2 -40q0 -79 32 -153t88 -130q78 -78 208 -111q98 -25 242 -25h134q8 96 23.5 274t22.5 255q32 369 47 529z
" />
    <glyph glyph-name="oe" unicode="&#x153;" horiz-adv-x="2109" 
d="M1771 785q1 3 1 10v9q0 68 -55 144q-62 87 -190 87q-166 0 -272 -91q-98 -83 -124 -166q161 0 320 3q53 0 159.5 1.5t160.5 2.5zM1922 754q-4 -26 -5 -39q-1 -15 -5 -40q-445 -5 -795 -5q0 -43 -1 -66t-1 -68q0 -94 14 -149q18 -80 65 -128q55 -39 137 -57
q62 -14 152 -14q196 0 363 87v-22q0 -97 10 -187q-179 -69 -363 -69q-162 0 -281 50q-140 57 -213 173q-78 -113 -206 -170q-116 -52 -257 -52q-97 0 -176 32q-89 36 -132 109q-69 107 -69 292q0 160 24 276q35 171 117 271q57 73 155 109q83 31 183 31q138 0 245 -53
q115 -59 172 -171q87 112 225 171q129 54 271 54q93 0 167 -30q84 -35 127 -101q35 -55 54 -97q25 -57 25 -110q0 -9 -2 -27zM658 1014h-11q-66 0 -125.5 -26t-99.5 -78q-55 -72 -77 -177q-17 -82 -17 -185q0 -134 52 -219q31 -50 85.5 -76.5t117.5 -26.5q164 0 257 108
q56 62 86 159q25 79 25 173q0 139 -63 238q-88 110 -230 110z" />
    <glyph glyph-name="Scedilla" unicode="&#x15e;" horiz-adv-x="1375" 
d="M1212 1435q-2 -15 -6.5 -45t-7.5 -45q-5 -30 -13 -90q-202 85 -382 85q-152 0 -249 -53q-111 -71 -111 -206q0 -90 48 -137q28 -22 67 -39t67.5 -24.5t77.5 -17.5q33 -8 90 -19q103 -21 176 -50q40 -16 80 -43q141 -100 141 -299q0 -103 -29 -186q-35 -100 -112 -155
q-93 -62 -211 -83q-91 -16 -218 -18q-234 0 -450 64q30 185 43 293q190 -112 430 -112q165 0 265 65q45 30 70 60q33 40 33 82q0 80 -75 135q-57 41 -158 69q-40 10 -80 18q-81 14 -142 33q-89 25 -149 64q-93 60 -120 160q-17 63 -17 126q0 93 32 174q36 91 110 143
q80 56 184 78q84 18 197 18q219 0 424 -54q-1 1 -1 2q-1 2 -1 3l-2 2t-1 2zM558 85q74 -106 74 -190q0 -41 -18 -82q-20 -46 -57 -62q-61 -29 -169 -29q-75 0 -147 15q4 17 10 53q4 36 7 54q44 -23 121 -23h13q3 -1 12 -1q47 0 82 29q37 30 37 76q0 28 -10.5 59.5t-19 47
t-29.5 51.5q32 0 94 2z" />
    <glyph glyph-name="scedilla" unicode="&#x15f;" horiz-adv-x="1154" 
d="M980 1072l-4 8q-3 -23 -11 -69t-11 -69q-131 61 -325 61q-111 0 -185 -39q-95 -49 -95 -154q0 -66 56 -110q47 -37 121 -57q56 -15 116 -25q91 -23 131 -39q69 -28 114 -70q63 -60 63 -176q0 -77 -29 -141q-33 -74 -96 -113q-72 -45 -171 -63q-71 -13 -179 -13
q-166 0 -355 46q13 73 36 245q157 -84 337 -84h22q5 -1 14 -1h13q89 0 151 33q77 39 81 121q-30 63 -49 88q-42 33 -120 54q-15 4 -65 16q-35 7 -115 27q-64 16 -113 44q-75 43 -91 113q-11 47 -11 92q0 89 36 158q39 78 120 111q122 48 269 48q212 0 345 -42zM492 85
q74 -106 74 -190q0 -41 -18 -82q-20 -46 -57 -62q-61 -29 -169 -29q-75 0 -147 15q4 17 10 53q4 36 7 54q44 -23 121 -23h13q3 -1 12 -1q47 0 82 29q37 30 37 76q0 28 -10.5 59.5t-19 47t-29.5 51.5q32 0 94 2z" />
    <glyph glyph-name="Scaron" unicode="&#x160;" horiz-adv-x="1574" 
d="M1411 1435q-3 -15 -7.5 -45t-6.5 -45q-5 -30 -13 -90q-202 85 -382 85q-152 0 -249 -53q-111 -71 -111 -206q0 -90 48 -137q28 -22 67 -39t67.5 -24.5t77.5 -17.5q33 -8 90 -19q103 -21 176 -50q40 -16 80 -43q141 -100 141 -299q0 -103 -29 -186q-35 -100 -112 -155
q-93 -62 -211 -83q-91 -16 -218 -18q-234 0 -450 64q30 185 43 293q190 -112 430 -112q165 0 265 65q45 30 70 60q33 40 33 82q0 80 -75 135q-57 41 -158 69q-40 10 -80 18q-81 14 -142 33q-89 25 -149 64q-93 60 -120 160q-17 63 -17 126q0 93 32 174q36 91 110 143
q80 56 184 78q84 18 197 18q218 0 424 -54q-1 1 -1 2q-1 2 -1 3t-1 2zM608 1649q-42 63 -81 126q-42 63 -93 116q10 -1 29 -1t28 -1q18 -1 56 -1q47 -47 154 -178q136 136 187 178q38 0 57 1q9 1 28 1t29 1q-20 -17 -41 -38t-36 -36.5t-38 -42.5t-32.5 -39t-35.5 -44.5
t-33 -41.5q-15 1 -44 1h-45h-45q-29 0 -44 -1z" />
    <glyph glyph-name="scaron" unicode="&#x161;" horiz-adv-x="1507" 
d="M1333 1072l-4 8q-3 -23 -11 -69t-11 -69q-131 61 -325 61q-111 0 -185 -39q-95 -49 -95 -154q0 -66 56 -110q47 -37 121 -57q56 -15 116 -25q91 -23 131 -39q69 -28 114 -70q63 -60 63 -176q0 -77 -29 -141q-33 -74 -96 -113q-72 -45 -171 -63q-71 -13 -179 -13
q-166 0 -355 46q13 73 36 245q157 -84 337 -84h22q5 -1 14 -1h13q89 0 151 33q77 39 81 121q-30 63 -49 88q-42 33 -120 54q-15 4 -65 16q-35 7 -115 27q-64 16 -113 44q-75 43 -91 113q-11 47 -11 92q0 89 36 158q39 78 120 111q122 48 269 48q212 0 345 -42zM718 1279
h-138q-53 98 -95 179q-46 88 -107 170q40 -3 115 -5q59 -75 164 -244q53 64 101 125q54 67 106 119l60 3q20 0 58 2q-24 -26 -49.5 -56t-44 -53.5t-46 -61.5t-40.5 -56.5t-43.5 -63t-40.5 -58.5z" />
    <glyph glyph-name="Ydieresis" unicode="&#x178;" horiz-adv-x="1361" 
d="M754 -83q-4 -7 -18.5 -33t-21.5 -40q-46 -80 -96 -137q-67 -76 -148 -100q-80 -24 -187 -29q-35 -2 -95 -8q10 53 18 112q5 37 17 111q21 2 63 4q69 0 122 16q46 14 108 78q1 1 49 52q9 16 25.5 43.5t20.5 35.5t20.5 35.5t25.5 43.5q-252 685 -389 1009q99 -14 171 -19
q197 -357 344 -649q242 439 370 650q83 7 177 18q-125 -227 -297 -592q-94 -200 -140 -300q-77 -170 -139 -301zM961 1455q68 2 100 2q33 0 99 2q-31 -58 -31 -123q0 -42 13 -75q-66 2 -98 2q-33 0 -99 2q-2 14 -2 23v23q0 65 18 144zM542 1459q66 -2 99 -2q16 -1 48.5 -1.5
t48.5 -0.5q1 -7 1 -19v-20q0 -77 -16 -151q-33 -1 -99 -1q-66 -2 -100 -3q29 57 29 122q0 43 -11 76z" />
    <glyph glyph-name="Zcaron" unicode="&#x17d;" horiz-adv-x="1734" 
d="M421 1330v101v50q266 -27 559 -27q302 0 595 28q-5 -23 -13 -71t-13 -71q-258 -260 -510 -519q-338 -346 -511 -520q226 7 385 7q292 0 554 -17q-1 -17 -1 -50v-50q0 -91 3 -181q-293 28 -597 28t-603 -28q16 76 48 271q513 536 1015 1035q-200 -8 -370 -8
q-294 0 -541 22zM608 1649q-42 63 -81 126q-42 63 -93 116q10 -1 29 -1t28 -1q18 -1 56 -1q47 -47 154 -178q136 136 187 178q38 0 57 1q9 1 28 1t29 1q-20 -17 -41 -38t-36 -36.5t-38 -42.5t-32.5 -39t-35.5 -44.5t-33 -41.5q-15 1 -44 1h-45h-45q-29 0 -44 -1z" />
    <glyph glyph-name="zcaron" unicode="&#x17e;" horiz-adv-x="1571" 
d="M568 988v78v39q195 -18 393 -18q220 0 453 23q-12 -56 -29 -155q-225 -233 -341 -354q-198 -206 -343 -353q108 3 215 3q196 0 390 -12q-1 -15 -1 -43v-44q0 -47 2 -141q-191 20 -430 20q-225 0 -450 -21q16 70 44 254q289 281 760 717q-173 -7 -293 -7q-213 0 -370 14z
M718 1279h-138q-53 98 -95 179q-46 88 -107 170q40 -3 115 -5q59 -75 164 -244q53 64 101 125q54 67 106 119l60 3q20 0 58 2q-24 -26 -49.5 -56t-44 -53.5t-46 -61.5t-40.5 -56.5t-43.5 -63t-40.5 -58.5z" />
    <glyph glyph-name="florin" unicode="&#x192;" horiz-adv-x="1294" 
d="M1343 1519q-1 -11 -5 -32t-5 -31q-8 -42 -11 -63q-50 33 -119 33q-112 0 -195 -81q-73 -72 -101 -189q-62 -217 -91 -333q92 8 137 13q49 5 136 13l-12 -120q-114 -9 -298 -22q-8 -39 -26 -118t-26 -119q-36 -158 -53 -237q-40 -167 -73 -252q-56 -143 -137 -227
q-152 -152 -380 -152q-75 0 -132 20q28 75 51 150q21 70 48 151q76 -47 162 -47q116 0 191 100q48 64 94 207q78 336 121 524q-40 -3 -118 -9q-19 -1 -58.5 -4.5t-60.5 -5.5q1 19 5 59q1 10 2.5 30t1.5 29q45 3 133 9q64 5 132 9l45 162q4 14 13.5 52t14 55t13.5 48.5
t16.5 51.5t19 45.5t23.5 46.5q79 137 213 203q68 33 143 36q6 0 17 1t16 1q11 1 32 1q69 0 126 -17q-2 2 -2 5q0 1 -1 2z" />
    <glyph glyph-name="circumflex" unicode="&#x2c6;" horiz-adv-x="903" 
d="M566 1621h138q32 -60 47 -90q49 -100 98 -176q20 -34 58 -83q-10 0 -29 1t-29 2q-21 0 -59 2q-49 60 -86 120q-13 21 -39 62t-39 62q-34 -42 -100 -124q-47 -59 -107 -120q-38 -2 -58 -2q-9 -1 -28.5 -2t-29.5 -1q63 66 137 171q12 17 34.5 49.5t27.5 39.5q42 60 64 89z
" />
    <glyph glyph-name="caron" unicode="&#x2c7;" horiz-adv-x="903" 
d="M718 1279h-138q-53 98 -95 179q-46 88 -107 170q40 -3 115 -5q59 -75 164 -244q53 64 101 125q54 67 106 119l60 3q20 0 58 2q-24 -26 -49.5 -56t-44 -53.5t-46 -61.5t-40.5 -56.5t-43.5 -63t-40.5 -58.5z" />
    <glyph glyph-name="breve" unicode="&#x2d8;" horiz-adv-x="903" 
d="M473 1594q12 -62 62 -105q48 -42 114 -42q5 0 7 1h7h7q2 -1 6 -1q66 0 123 43q56 43 80 105q1 0 97 3q-16 -32 -23 -49q-28 -64 -49 -98q-18 -27 -34 -43q-42 -39 -106 -59q-44 -13 -110 -13q-132 0 -194 57q-38 44 -56 106q-10 31 -15 56l-15 54q-2 -10 10 -11
q10 -3 27 -3q22 0 34 1q14 0 28 -2z" />
    <glyph glyph-name="dotaccent" unicode="&#x2d9;" horiz-adv-x="506" 
d="M360 1542h-1h31q16 0 46 -1t46 -1q14 0 29 0.5t25 1.5h10q-17 -82 -17 -158q0 -9 1 -13v-13h-33q-14 0 -42.5 0.5t-43.5 0.5h-19t-18 -0.5t-15 -0.5h-11h-4q17 79 17 150v17q-1 6 -1 17z" />
    <glyph glyph-name="ring" unicode="&#x2da;" horiz-adv-x="799" 
d="M758 1524q0 5 1 8v8q0 60 -39 98t-100 40q-72 0 -119 -50q-47 -52 -47 -124q0 -61 40 -99q37 -37 98 -37q65 0 112 45q46 45 54 111zM854 1525q-11 -114 -85 -184q-77 -72 -189 -72q-101 0 -160 61q-63 61 -63 162q0 121 74 201q78 85 202 85q96 0 159 -61
q64 -62 64 -161q0 -9 -2 -31z" />
    <glyph glyph-name="ogonek" unicode="&#x2db;" horiz-adv-x="659" 
d="M90 -17q17 -1 50 -1h50q-4 -5 -14.5 -19l-16.5 -22q-36 -49 -51 -91q-9 -24 -9 -49q0 -37 28 -59.5t66 -22.5q75 0 122 23q-2 -54 -2 -77q0 -11 1 -16v-16q-70 -12 -125 -12q-4 0 -18.5 1t-19 1.5t-18 1.5t-19.5 2t-17.5 3t-19 4t-17 5t-17.5 7q-58 32 -58 110
q0 59 37 129q26 52 68 98z" />
    <glyph glyph-name="tilde" unicode="&#x2dc;" horiz-adv-x="907" 
d="M640 1380l-48 53q-37 37 -69 40q-45 -5 -70 -58q-13 -28 -19 -48q-7 -23 -17 -45q-17 -1 -52 -1q-8 -1 -25.5 -1t-26.5 -1q22 46 34 83q13 38 21.5 59.5t27 49.5t40.5 43q37 23 74 23q78 0 137 -57l49 -53q32 -36 66 -40q48 5 73 59q11 24 18 47q7 25 18 45l105 3
q-20 -40 -37 -88q-38 -105 -87 -145q-28 -25 -75 -25q-83 0 -137 57z" />
    <glyph glyph-name="hungarumlaut" unicode="&#x2dd;" horiz-adv-x="925" 
d="M849 1623q70 0 155 5q-116 -120 -267 -350q-7 1 -21 1h-21h-45h-26q74 116 109 175q54 91 116 169zM513 1622q25 -1 73 -1h73q-69 -100 -116 -175q-58 -91 -126 -170q-19 -1 -57 -1l-57 -3q41 50 81.5 114.5t65.5 112t63 123.5z" />
    <glyph glyph-name="Delta" unicode="&#x394;" horiz-adv-x="1653" 
d="M830 1382q-86 -180 -127 -271q-28 -60 -79 -171t-93 -201.5t-80 -170.5q-79 -167 -131 -270q200 7 427 7q201 0 402 -6q-64 191 -162 540q-59 207 -77 272q-26 91 -80 271zM731 1435h47h85h39q26 0 39 1q53 -178 102 -360q124 -451 214 -718q57 -171 131 -348
q-328 27 -661 27q-347 0 -693 -27q168 290 363 707q56 119 166 359q88 192 168 359z" />
    <glyph glyph-name="mu" unicode="&#x3bc;" horiz-adv-x="1504" 
d="M153 -414q115 689 115 1432v92q28 -2 80 -4q13 0 39.5 -1.5t40.5 -2.5q-2 -270 -12 -476q-2 -26 -2 -40q0 -109 46 -173q38 -47 97 -67q45 -15 112 -15q133 0 215 82q46 54 66.5 113.5t30.5 136.5q30 251 58 421q54 2 82 4q54 4 82 5q-62 -370 -107 -833v-5q0 -35 39 -55
q31 -17 72 -17q13 0 27 6q5 1 14 5t13 5q-1 -10 -2 -31t-2 -32q-1 -10 -2 -31t-2 -32q-6 -3 -44 -26q-51 -34 -89 -48q-22 -9 -45 -9q-62 0 -99 56q-34 52 -36 115q-51 -76 -125 -119q-81 -47 -163 -47h-9h-15q-81 0 -143 37q-69 40 -94 109l-17 -4q-24 -292 -57 -537
q-91 -5 -164 -14z" />
    <glyph glyph-name="pi" unicode="&#x3c0;" horiz-adv-x="1438" 
d="M1339 931q-6 0 -178 -9q-67 -183 -158 -492q-15 -61 -28 -103q-17 -54 -17 -103q0 -39 27 -66q26 -28 66 -28q9 0 12 1h11q32 0 72 5q-10 -57 -24 -187q-56 -10 -86 -10q-108 0 -190 68q-87 72 -87 172q0 76 32 177q21 67 66 176q59 159 152 385q-142 -2 -211 -2h-64
q-44 0 -65 1q-148 -591 -241 -891q-173 -6 -264 -11q94 194 189 448q34 90 82 228q13 38 40 114t40 114h-8q-12 0 -18 1h-19h-8h-12q-58 0 -91 -51q-23 -35 -29 -84q-44 2 -65 3q-44 2 -65 3q18 78 29 109q22 58 60 94q47 35 111 45q33 5 117 5q121 -4 270 -4q315 0 610 23
q-9 -21 -29 -65t-29 -66z" />
    <glyph glyph-name="endash" unicode="&#x2013;" horiz-adv-x="1319" 
d="M165 623h-1h168q83 0 250.5 -0.5t251.5 -0.5h71h68.5h62t54.5 0.5t42 0.5h28h10q-39 -25 -39 -70q0 -36 28 -54h-168q-85 0 -251.5 0.5t-250.5 0.5h-55.5h-54.5h-51.5h-47t-41.5 -0.5t-35 -0.5h-26.5h-17.5h-6q36 24 36 68q0 35 -25 56z" />
    <glyph glyph-name="emdash" unicode="&#x2014;" horiz-adv-x="2343" 
d="M165 623h-1h338q169 0 507 -0.5t507 -0.5h112h110h103.5h96t84 0.5t71 0.5h54h35.5h12q-4 -1 -11 -4.5t-10 -5.5q-23 -11 -39 -27q-8 -9 -12 -21q1 -26 23 -44q13 -11 38 -22h-340q-170 0 -507 0.5t-507 0.5q-4 0 -675 -1q21 10 29.5 14.5t21.5 17t17 26.5
q-3 19 -13.5 33t-19 19.5t-24.5 13.5z" />
    <glyph glyph-name="quoteleft" unicode="&#x2018;" horiz-adv-x="785" 
d="M552 1621q21 -29 59 -87q54 -87 115 -176q30 -44 63 -84q-126 7 -214 7h-32q-36 77 -78 175q-39 92 -87 172q57 -5 174 -7z" />
    <glyph glyph-name="quoteright" unicode="&#x2019;" horiz-adv-x="573" 
d="M376 1491q11 -1 35 -1h34q101 0 169 11q-12 -66 -25 -173q-48 -81 -108 -185q-50 -89 -111 -184q-11 -1 -34 -2t-34 -1q-22 -1 -68 -7q29 71 68 184q32 91 63 186q1 14 3 43t3 43q4 59 5 86z" />
    <glyph glyph-name="quotesinglbase" unicode="&#x201a;" horiz-adv-x="522" 
d="M103 235q9 -1 27 -1h26q72 0 139 10q-8 -41 -12 -79q-1 -13 -4.5 -40t-5.5 -40q-60 -102 -89 -153t-91 -151l-54 -3q-28 -1 -55 -6q58 148 108 305q5 55 11 158z" />
    <glyph glyph-name="quotedblleft" unicode="&#x201c;" horiz-adv-x="1077" 
d="M465 900l-120 -3q-60 -1 -122 -6q28 100 42 202q94 154 208 381q46 -2 71 -1q24 0 70 -2q-30 -87 -60 -185q-32 -103 -61 -186q-8 -74 -28 -200zM976 896q-41 1 -121 3t-121 3q6 127 11 194q8 14 36.5 62.5t40 68t37 61t42 66.5t39.5 59t45 63q11 0 35 2t35 2t34.5 1
t35.5 2q-83 -152 -151 -383q-3 -50 -3 -98q0 -62 5 -106z" />
    <glyph glyph-name="quotedblright" unicode="&#x201d;" horiz-adv-x="1024" 
d="M369 1478q57 -3 113 -3q37 -1 113 -3q-3 -60 -11 -180q-8 -13 -35 -59t-37.5 -63.5t-34.5 -56.5t-39.5 -62.5t-37 -55t-41.5 -58.5q-11 -1 -32.5 -2t-31.5 -1q-44 -2 -65 -3q72 131 140 358q2 46 2 68q0 1 -3 121zM846 1474q73 1 226 9q-18 -59 -40 -188
q-116 -191 -195 -356q-21 1 -65 1t-65 1q59 196 112 347q15 115 27 186z" />
    <glyph glyph-name="quotedblbase" unicode="&#x201e;" horiz-adv-x="1084" 
d="M650 360q199 7 246 10q-24 -83 -44 -204q-104 -169 -211 -386q-46 2 -70 2q-48 0 -71 1q53 181 121 375q15 131 29 202zM134 364q123 -4 246 -6q-8 -135 -13 -196q-78 -130 -116 -195q-57 -97 -126 -189q-71 -2 -141 -6q78 146 151 388q2 70 2 102q0 51 -3 102z" />
    <glyph glyph-name="dagger" unicode="&#x2020;" horiz-adv-x="1159" 
d="M637 1450q15 -1 45 -1h45h33q22 0 33 1q-6 -61 -19 -203q-4 -35 -10.5 -103t-9.5 -100q231 6 349 17q-10 -84 -14 -133q-174 -10 -347 -12q-64 -699 -89 -1073q-11 1 -33 1h-33h-45q-15 -1 -45 -1q49 504 98 1073q-179 0 -345 13q4 44 5 67l3 66q158 -16 347 -18
q5 74 17 203q5 67 15 203z" />
    <glyph glyph-name="daggerdbl" unicode="&#x2021;" horiz-adv-x="1259" 
d="M1027 164q-135 14 -312 16q-3 -86 -3 -169q0 -56 1 -84v-85q-94 2 -139 2q-69 0 -138 -3q4 29 14 85t14 85q18 112 27 169q-190 -5 -313 -16q4 51 12 102q8 63 11 101q81 5 163 6q108 2 163 3q12 85 35 270q16 134 33 270q-179 0 -345 13q4 44 5 67l3 66q158 -16 347 -18
q5 74 17 203q5 67 15 203q15 -1 45 -1h45h33q22 0 33 1q-6 -61 -19 -203q-4 -35 -10.5 -103t-9.5 -100q231 6 349 17q-10 -84 -14 -133q-174 -10 -347 -12q-8 -136 -15 -270t-15 -270q218 -2 327 -9q-4 -68 -6 -101q-5 -51 -6 -102z" />
    <glyph glyph-name="bullet" unicode="&#x2022;" horiz-adv-x="842" 
d="M197 762q12 128 87 197q81 76 212 76q104 0 172 -65t68 -174q0 -145 -90 -234q-77 -76 -204 -76q-110 0 -176 63q-70 65 -70 182v16q0 10 1 15z" />
    <glyph glyph-name="ellipsis" unicode="&#x2026;" horiz-adv-x="2008" 
d="M789 347h302q-31 -136 -31 -266v-32q0 -11 2 -33h-302q29 153 29 331zM1471 350q167 0 302 4q-71 -89 -71 -202q0 -82 41 -142l-150 3q-100 0 -151 1q-24 62 -24 130q0 109 53 206zM107 354q100 -2 151 -2l150 -3q20 -65 20 -129q0 -107 -49 -206q-50 -1 -150 -1
q-26 -1 -76 -2t-76 -1q68 85 68 198q0 85 -38 146z" />
    <glyph glyph-name="perthousand" unicode="&#x2030;" horiz-adv-x="2803" 
d="M2305 669h-10h-13q-73 0 -130 -60q-55 -60 -55 -135v-9q-2 -16 -2 -24q0 -75 51 -128q52 -55 125 -55h10q3 -1 10 -1h9q70 0 120 60q47 56 47 129v8q-1 2 -1 7q1 3 1 11v11q0 73 -44 128q-46 58 -118 58zM2303 774q145 0 220 -105q74 -105 74 -291q0 -89 -12 -148
q-17 -82 -61 -139q-32 -48 -86.5 -72t-115.5 -24q-182 0 -274 111q-86 96 -86 256q0 86 23 162q26 86 81 147v-1q88 104 237 104zM589 1495q151 -4 242 -110q89 -103 89 -254q0 -88 -22 -164q-28 -90 -83 -149q-89 -101 -244 -101q-63 0 -120 27.5t-92 76.5q-68 103 -73 292
q0 80 14 149q16 79 59 138q34 47 95 73q55 23 114 23h11q3 -1 10 -1zM1499 1480h137q-124 -168 -262 -371q-327 -487 -514 -750q-134 -185 -279 -360l-102 -3q-18 -1 -52 -2.5t-51 -1.5q250 279 578 733q148 205 270 379q123 175 275 376zM595 1389h-10q-80 0 -128 -59
q-41 -68 -41 -147v-14v-7q-1 -3 -1 -8q0 -83 44 -144q49 -68 128 -68h7q3 -1 15 -1q74 0 128 66q50 61 50 139v14q0 7 1 10v9q0 85 -53 146q-56 64 -140 64zM1552 772q144 0 219 -102q67 -91 67 -242q0 -93 -20 -166q-25 -91 -80 -152q-41 -50 -103 -75t-129 -25
q-79 0 -138 22q-69 26 -108 80q-63 80 -63 211q0 95 26 182q29 97 90 165q91 102 239 102zM1555 670h-12h-13q-89 0 -143 -77q-49 -70 -49 -160q0 -67 45 -117t113 -50q12 0 15 1q3 -1 14 -1q88 0 140 76q46 65 46 155q0 70 -42 120q-46 53 -114 53z" />
    <glyph glyph-name="guilsinglleft" unicode="&#x2039;" horiz-adv-x="794" 
d="M638 1037q-10 -56 -13 -83t-11 -83q-76 -72 -156 -138q-53 -44 -161 -134q183 -177 269 -271q-4 -75 -4 -165q-80 87 -200 201q-125 119 -201 199l6 73q65 58 238 198q131 106 233 203z" />
    <glyph glyph-name="guilsinglright" unicode="&#x203a;" horiz-adv-x="794" 
d="M253 1038q75 -85 197 -203l102 -99q68 -66 101 -99l-6 -73q-39 -34 -117 -100q-108 -88 -238 -198q-68 -58 -115 -102q10 56 13 83q6 54 10 82q83 78 157 137q71 57 159 134q-46 46 -136 134q-69 64 -132 138q5 93 5 166z" />
    <glyph glyph-name="fraction" unicode="&#x2044;" horiz-adv-x="1163" 
d="M1079 1497q103 9 138 14q-195 -264 -528 -758q-353 -523 -525 -759q-47 -4 -68 -5q-20 -2 -68 -8q181 248 525 758q355 526 526 758z" />
    <glyph glyph-name="Euro" unicode="&#x20ac;" horiz-adv-x="1484" 
d="M1354 1377q-7 -38 -22 -136q-70 79 -129 112q-78 43 -174 43q-82 0 -157.5 -32.5t-131.5 -95.5q-109 -124 -156 -314h271q149 0 270 4l-27 -51l-27 -51q-200 -2 -298 -2h-105q-70 0 -105 1q-19 -105 -19 -219q69 1 208 1h208q-9 -23 -29 -69t-29 -69q-48 0 -72 1h-73
q-69 0 -205 -2q5 -31 22.5 -63.5t33 -51.5t43.5 -51q91 -102 253 -102q97 0 189 47q78 41 157 116q-7 -140 -7 -237v-35q-158 -115 -336 -115q-119 0 -212 32q-113 38 -179 107q-133 133 -135 350q-68 -2 -101 -2l-102 -3q20 48 31 72q17 40 29 71q44 0 66 1h66q8 74 13 113
q6 57 6 109q-58 2 -87 2t-87 2q22 42 26 50q11 26 24 51q80 -5 147 -5q25 114 74 210q53 104 137 177q82 71 198 108q102 33 217 33q193 0 318 -115z" />
    <glyph glyph-name="trademark" unicode="&#x2122;" horiz-adv-x="1690" 
d="M986 1472h158q11 -31 31 -86.5t27 -76.5q28 -83 63 -162q115 198 230 331q25 0 77 2q13 0 38.5 0.5t38.5 1.5q-60 -160 -60 -330q0 -121 31 -227l-75 3q-26 0 -76 2q-7 55 -7 116q0 171 58 351q-6 2 -8 3q-3 0 -9 2q-115 -174 -201 -419h-27h-53q-12 28 -23.5 56
t-23.5 61t-20 56t-20.5 62.5t-17.5 56.5t-19 63t-18 59q-5 -2 -19 -5q-9 -202 -9 -333v-61q0 -20 2 -62h-152q28 162 84 536zM844 1472v-36q-1 -12 -1 -36q-33 1 -99 1q-34 -1 -100 1q7 -89 7 -151q0 -155 -29 -318q-25 -1 -76 -1q-12 0 -38 -1t-38 -1q80 204 85 474
q-107 0 -194 4q-3 15 -7 38q-4 24 -7 37q87 -4 497 -11z" />
    <glyph glyph-name="Ohm" unicode="&#x2126;" horiz-adv-x="1738" 
d="M1467 229q0 -109 6 -219q-286 25 -577 27q4 72 6 107q1 52 6 106q138 44 235 156q85 98 129 244q39 130 39 277q0 192 -85 307q-58 73 -145 107q-80 31 -184 31q-101 0 -191 -32q-96 -34 -167 -108q-86 -92 -125 -238q-32 -117 -32 -259q0 -175 75 -299q81 -135 230 -186
q-2 -19 -5.5 -54t-4.5 -52q-8 -67 -11 -107q-291 -3 -583 -27q21 97 43 219q136 9 323 14q-143 143 -203 261h1q-40 86 -40 215q0 158 48 302q53 158 158 272q102 93 239 139q124 40 267 40q133 0 246 -41q122 -47 198 -137q123 -148 123 -385q0 -114 -18 -204
q-23 -116 -75 -200q-31 -48 -77 -98t-79.5 -81t-93.5 -82q162 -4 324 -15z" />
    <glyph glyph-name="partialdiff" unicode="&#x2202;" horiz-adv-x="1056" 
d="M751 619q64 258 64 396q0 81 -25 124q-33 55 -102 55q-26 -4 -54 -6q-60 -3 -109 -20q-26 -9 -48 -28q-11 -30 -44 -30l-10 1q-17 1 -24 6q-16 5 -16 18q-1 3 -1 11q4 72 97 111q75 31 163 31q78 0 142 -35q67 -37 100 -100q58 -103 58 -269q0 -183 -38 -342
q-47 -194 -143 -330q-62 -95 -159 -149t-206 -54q-153 0 -225 91q-63 70 -63 194t48 234q52 119 140 188q99 76 224 76q77 0 138 -50q56 -46 74 -125q3 1 10 1q6 0 9 1zM662 541q3 18 3 36q0 69 -42 119q-45 53 -111 53q-143 0 -231 -131q-69 -102 -91 -267q-3 -22 -3 -46
q0 -82 52 -124q40 -32 105 -32q141 0 229 129q75 109 89 263z" />
    <glyph glyph-name="product" unicode="&#x220f;" horiz-adv-x="1748" 
d="M343 1463q274 -38 590 -38q307 0 628 38q-161 -925 -161 -1846q-55 8 -109 12q-19 2 -55.5 5.5t-53.5 4.5q18 755 131 1619q-198 -12 -395 -12q-174 0 -367 11q-36 -815 -150 -1619q-106 -7 -219 -21q156 902 161 1846z" />
    <glyph glyph-name="summation" unicode="&#x2211;" horiz-adv-x="1793" 
d="M342 1423v36q296 -34 602 -34q312 0 636 35q-4 -33 -12 -67q-8 -36 -12 -68q-280 -29 -605 -29q-167 0 -357 8q500 -470 780 -742q-238 -180 -460 -339q-231 -165 -462 -336q206 8 385 8q340 0 607 -25v-72q-1 -24 -1 -73q0 -36 2 -108q-318 36 -641 36q-309 0 -653 -36
q27 150 37 215q173 139 476 364q16 12 104.5 77.5t136.5 100.5q131 97 239 180l-201 195q-136 128 -404 388q-101 97 -198 198q1 15 1 44v44z" />
    <glyph glyph-name="minus" unicode="&#x2212;" horiz-adv-x="1580" 
d="M185 717h211q105 0 315 -0.5t316 -0.5h89h86h78t68 0.5t52.5 0.5h35.5h13q-48 -29 -48 -84q0 -44 35 -66h-210q-106 0 -316.5 0.5t-314.5 0.5h-89.5h-86.5h-78t-68 -0.5t-53 -0.5h-36h-12q45 28 45 83q0 45 -32 67z" />
    <glyph glyph-name="bulletoperator" unicode="&#x2219;" horiz-adv-x="589" 
d="M224 902h43q21 0 61 -1.5t61 -1.5q19 0 40.5 0.5t35.5 1.5t15 1q-28 -152 -28 -274q0 -12 1 -17v-17h-42q-21 0 -63 1t-62 1q-19 0 -40 -0.5t-34.5 -1t-14.5 -0.5q27 139 27 308z" />
    <glyph glyph-name="radical" unicode="&#x221a;" horiz-adv-x="1386" 
d="M1294 1634q103 9 175 17q-4 -26 -7 -38q-6 -26 -8 -39q-72 -8 -111 -11q-167 -323 -368 -778q-59 -131 -175 -393q-90 -203 -180 -392h-28q-19 0 -28 -1q-52 195 -109 427q-76 307 -107 426q-12 -5 -58 -22l-60 -21q-2 11 -6 31q-3 12 -7 31q42 14 126 44q66 23 127 42
q54 -199 92 -348q37 -147 92 -349q80 172 156 345q199 446 315 690q85 180 169 339z" />
    <glyph glyph-name="infinity" unicode="&#x221e;" horiz-adv-x="1480" 
d="M806 652l-1 -9q33 -81 98.5 -129t153.5 -48q111 0 179 95q61 85 61 200q0 83 -41 133q-45 53 -119 53q-103 0 -197 -97q-59 -62 -134 -198zM707 641v9q-30 69 -98 171q-63 91 -167 91q-101 0 -162 -81q-56 -73 -56 -177q0 -91 41 -151q47 -69 129 -69q87 0 157 25
q50 23 92 78q15 20 34 51q20 36 30 53zM760 493h-10h-7q-58 -109 -142 -175q-97 -77 -205 -77q-115 0 -175 95q-54 82 -54 208q0 101 21 186q25 109 81 174q64 77 167 77q116 0 200 -84q65 -65 115 -186q64 118 146 189q100 85 214 85q112 0 175 -95q53 -84 53 -210
q0 -95 -21 -185q-27 -110 -82 -173q-67 -77 -167 -77q-101 0 -178 58q-41 34 -69.5 79t-61.5 111z" />
    <glyph glyph-name="integral" unicode="&#x222b;" horiz-adv-x="1031" 
d="M231 -245q34 7 57 46q13 22 31 69q17 44 24 76q3 10 8 31t8 32q28 138 48 295q4 29 33 285q37 290 60 397q50 238 141 370q114 163 301 163q50 0 84 -24q37 -27 37 -77q0 -56 -39 -97q-42 -42 -99 -42q-43 0 -61.5 26.5t-18.5 78.5q0 43 -25 43q-58 -27 -88 -108
q-12 -31 -22 -72q-10 -43 -19 -69q-37 -153 -57 -334q-11 -82 -18 -160q-15 -145 -44 -340q-32 -219 -91 -378q-71 -187 -207 -266q-71 -41 -168 -41q-51 0 -85 25q-37 26 -37 74q0 60 43 101q42 40 102 40q74 0 74 -97q0 -47 28 -47z" />
    <glyph glyph-name="approxequal" unicode="&#x2248;" horiz-adv-x="1552" 
d="M1380 508v-29q0 -20 1 -29q-160 -133 -335 -133q-112 0 -267 59l-26 10l-4 2q-1 1 -2 1q-2 0 -3 1q-50 22 -78 33t-73.5 22.5t-85.5 11.5q-89 0 -194 -49q-65 -31 -178 -105q24 71 41 153q92 66 177 101q103 43 193 43q137 -19 238 -68q1 -1 4 -1q0 -1 2 -1t2 -1l15 -7
l6 -2q147 -61 246 -61q86 0 180 48q74 36 159 109q-12 -11 -16 -48q-2 -22 -2 -32v-28zM1459 1012q-31 -92 -46 -174q-90 -64 -176 -101q-99 -42 -194 -42q-113 4 -231 55q-18 6 -29 12l-6 2q-49 23 -79 35t-76 23.5t-87 11.5q-82 0 -172 -41q-72 -32 -154 -100q3 35 3 101
v51q164 132 354 132q117 -18 246 -68l15 -6h-1l22 -9h-1q131 -54 235 -58q96 0 214 58q106 53 163 118z" />
    <glyph glyph-name="notequal" unicode="&#x2260;" horiz-adv-x="1566" 
d="M228 919q251 -12 563 -12q54 0 81 1h82q50 56 288 308q24 -19 47 -41q30 -28 46 -41q-54 -56 -105 -111q-34 -37 -104 -113q296 9 299 9q-2 -13 -5.5 -37.5t-4.5 -35.5q-1 -12 -4 -37t-5 -37q-204 -4 -408 -6q-117 -129 -221 -249q334 0 605 -4q-5 -78 -6 -150
q-238 9 -553 9h-176q-166 -182 -288 -305q-72 63 -92 84q100 106 205 220q-50 -2 -147.5 -4.5t-145.5 -3.5q15 93 19 149q136 2 203 3q135 0 203 1q74 84 111 125t111 125q-431 0 -605 6q1 13 2 37t2 37q2 48 3 73z" />
    <glyph glyph-name="lessequal" unicode="&#x2264;" horiz-adv-x="1628" 
d="M1431 1022q-301 -101 -974 -288q208 -64 454 -136q218 -66 451 -141q0 -13 -2 -39t-2 -39q-2 -52 -2 -78q-247 84 -578 183q-417 125 -580 179q0 12 1.5 38t2.5 39q0 13 2 38.5t2 37.5q23 6 154 40.5t166 44t150.5 40.5t165.5 45t150 42.5t165 49t149 47.5t160 53
q-14 -52 -19 -78q-2 -13 -8 -39t-8 -39zM134 161q307 16 626 16q307 0 596 -16q0 -37 3 -75q1 -13 2 -38.5t2 -37.5q-304 22 -618 22q-327 0 -644 -22q19 74 33 151z" />
    <glyph glyph-name="greaterequal" unicode="&#x2265;" horiz-adv-x="1707" 
d="M288 1023q-2 103 -5 155q235 -88 592 -193q200 -58 301 -85q200 -56 300 -85q-1 -13 -4 -38t-5 -38q-2 -14 -5.5 -40t-4.5 -37q-345 -104 -611 -178q-302 -84 -610 -183q13 87 20 156q254 78 477 140q204 57 477 137q-47 14 -179.5 52.5t-198 58t-172.5 52.5t-196.5 63.5
t-175.5 62.5zM1435 161q0 -37 3 -75q0 -13 2 -38.5t2 -37.5q-304 22 -618 22q-327 0 -644 -22q19 74 33 151q307 16 626 16q307 0 596 -16z" />
    <glyph glyph-name="lozenge" unicode="&#x25ca;" horiz-adv-x="1215" 
d="M687 1395q-226 -400 -443 -807q83 -151 160 -279q12 -21 71.5 -122.5t91.5 -155.5q35 46 105.5 139t106.5 140q102 134 208 280q-180 494 -300 805zM704 1587q155 -398 370 -996q-280 -530 -545 -1005q-214 546 -371 1005q272 513 546 996z" />
    <glyph glyph-name="glyph258" horiz-adv-x="897" 
d="M739 1484q15 0 45.5 1t46.5 1q30 0 92 2q-28 -55 -28 -114q0 -37 12 -70q-62 2 -91 2q-61 0 -92 1q-2 30 -2 44q0 63 17 133zM349 1488q62 -2 91 -2q15 -1 45 -1.5t45 -0.5q0 -11 1 -16v-17q0 -74 -16 -144q-31 -1 -91 -1q-29 0 -91 -2q27 50 27 113q0 33 -11 71z" />
    <glyph glyph-name="glyph259" horiz-adv-x="609" 
d="M505 1511q93 0 159 5q-64 -60 -117 -118q-59 -66 -116 -121q-42 -2 -64 -2q-11 -1 -32.5 -2t-31.5 -1q55 56 103 118q43 55 99 121z" />
    <glyph glyph-name="glyph260" horiz-adv-x="905" 
d="M628 1348q-16 8 -29 18q-33 23 -59 33q-16 6 -34 6q-37 0 -63 -35q-19 -24 -34 -68q0 6 -30 4q-40 -2 -70 -2q5 10 14 31.5t13 32.5q34 91 88 116q33 16 68 16h9h8q11 0 21.5 -1t22.5 -4.5t19.5 -5t21 -7.5t18.5 -8t20.5 -10.5t18 -10t19.5 -11.5t18 -11q44 -25 71 -25
q17 -13 46 16q20 20 39 56q5 10 7 20q0 7 -7 3q38 2 57 2q38 0 57 1q-9 -18 -31 -64q-36 -79 -86 -113q-29 -20 -68 -20q-65 0 -145 41z" />
    <glyph glyph-name="glyph261" horiz-adv-x="671" 
d="M514 1511q28 -39 78 -121q42 -70 83 -118q-11 0 -32.5 1t-31.5 2q-11 1 -32.5 1t-31.5 1q-49 59 -96 120q-44 58 -97 119q66 -5 160 -5z" />
    <glyph glyph-name="glyph262" horiz-adv-x="867" 
d="M519 1513h178q14 -21 40 -63t40 -63q40 -63 94 -115q-9 0 -28 1t-29 1q-19 1 -57 1q-45 42 -80 87q-25 31 -75 91q-137 -137 -186 -178q-38 0 -56 -1q-9 0 -28 -1t-29 -1q62 54 113 116q15 18 49.5 60t53.5 65z" />
    <glyph glyph-name="glyph263" horiz-adv-x="867" 
d="M529 1276q-42 63 -81 126q-42 63 -93 116q10 0 29 -1t28 -1q18 -1 56 -1q47 -47 154 -178q136 136 187 178q38 0 57 1q9 0 28 1t29 1q-20 -17 -41 -38t-36 -36.5t-38 -42.5t-32.5 -39t-35.5 -44.5t-33 -41.5q-15 1 -44 1h-45h-45q-29 0 -44 -1z" />
    <glyph glyph-name="glyph264" horiz-adv-x="949" 
d="M669 1400q-103 -120 -183 -221q-65 -82 -180 -224q158 2 235 2h86q21 255 42 443zM650 1478q12 0 37.5 1t38.5 1q12 0 37.5 1t38.5 2q-36 -225 -58 -527q21 -1 64 -1q21 0 63 -2q-2 -30 -2 -44q-1 -8 -2 -22t-1 -22q-44 3 -127 5q-6 -92 -6 -182q-55 4 -124 4q1 45 6 90
l6 90h-81q-147 0 -315 -8q4 36 14 108q208 268 411 506z" />
    <glyph glyph-name="glyph265" horiz-adv-x="902" 
d="M457 1516q17 -52 70 -82q48 -28 108 -28q5 0 8 1h7h7q2 -1 7 -1q59 0 112.5 29t83.5 81q34 2 49 2q32 0 49 1l-21 -42q-23 -52 -47 -83q-34 -44 -86 -66q-49 -22 -109 -25q-29 -1 -54 -3q-133 2 -194 49q-36 32 -58 87q-7 15 -17 47t-15 47q-2 -10 10 -11q14 -2 28 -2
q22 0 34 1q14 0 28 -2z" />
    <glyph glyph-name="glyph266" horiz-adv-x="507" 
d="M349 1464l-1 26h31q15 0 45 -1t46 -1q14 0 29.5 0.5t25.5 1.5h10q-17 -79 -17 -148v-19q0 -12 1 -19h-32q-15 0 -44 0.5t-43 0.5h-19t-18 -0.5t-15 -0.5h-11h-4q16 74 16 160z" />
    </font>
</defs>
</svg>
