<?xml version="1.0" encoding="utf-8"?>
<!-- Generator: Adobe Illustrator 26.0.2, SVG Export Plug-In . SVG Version: 6.00 Build 0)  -->
<svg version="1.1" id="Ebene_1" xmlns="http://www.w3.org/2000/svg" xmlns:xlink="http://www.w3.org/1999/xlink" x="0px" y="0px"
	 viewBox="0 0 2221.1 512" style="enable-background:new 0 0 2221.1 512;" xml:space="preserve">
<style type="text/css">
	.st0{fill:none;stroke:#000000;stroke-width:32;stroke-linecap:round;stroke-linejoin:round;}
	.st1{enable-background:new    ;}
</style>
<path class="st0" d="M45,192L269,64l224,128L269,320L45,192z"/>
<path class="st0" d="M125,240v128l144,80l144-80V240 M493,368V192 M269,320v128"/>
<g class="st1">
	<path d="M743,306.4c0,17.2-6.2,30.8-18.6,40.7c-12.4,9.9-29.6,14.9-51.7,14.9c-20.3,0-38.3-3.8-54-11.5v-37.5
		c12.9,5.7,23.7,9.8,32.7,12.1c8.9,2.3,17.1,3.5,24.4,3.5c8.9,0,15.7-1.7,20.4-5.1c4.7-3.4,7.1-8.4,7.1-15.1c0-3.7-1-7.1-3.1-10
		c-2.1-2.9-5.1-5.7-9.2-8.4c-4-2.7-12.3-7-24.7-12.9c-11.6-5.5-20.4-10.7-26.2-15.8c-5.8-5-10.5-10.9-13.9-17.6
		c-3.5-6.7-5.2-14.5-5.2-23.5c0-16.9,5.7-30.1,17.1-39.8c11.4-9.6,27.2-14.5,47.4-14.5c9.9,0,19.4,1.2,28.4,3.5
		c9,2.3,18.4,5.7,28.2,9.9l-13,31.4c-10.2-4.2-18.6-7.1-25.2-8.7c-6.6-1.7-13.2-2.5-19.6-2.5c-7.6,0-13.5,1.8-17.6,5.3
		c-4.1,3.6-6.1,8.2-6.1,13.9c0,3.6,0.8,6.7,2.5,9.3c1.6,2.7,4.3,5.2,7.9,7.7c3.6,2.5,12.1,6.9,25.6,13.4c17.8,8.5,30,17.1,36.6,25.6
		C739.7,283.4,743,293.9,743,306.4z"/>
	<path d="M851.1,359.3h-40.4v-157h-51.8v-33.6h143.9v33.6h-51.8V359.3z"/>
	<path d="M1087.3,168.7V292c0,14.1-3.2,26.4-9.5,37c-6.3,10.6-15.4,18.7-27.3,24.4c-11.9,5.7-26,8.5-42.2,8.5
		c-24.5,0-43.5-6.3-57.1-18.8c-13.6-12.6-20.3-29.7-20.3-51.6V168.7h40.3v116.7c0,14.7,3,25.5,8.9,32.3c5.9,6.9,15.7,10.3,29.3,10.3
		c13.2,0,22.8-3.5,28.7-10.4c6-6.9,8.9-17.8,8.9-32.5V168.7H1087.3z"/>
	<path d="M1292.1,262.2c0,31.4-8.9,55.4-26.8,72.1s-43.7,25-77.4,25h-54V168.7h59.8c31.1,0,55.3,8.2,72.5,24.6
		C1283.5,209.8,1292.1,232.7,1292.1,262.2z M1250.1,263.2c0-40.9-18.1-61.4-54.2-61.4h-21.5v124.1h17.3
		C1230.7,325.9,1250.1,305,1250.1,263.2z"/>
	<path d="M1331.6,359.3V168.7h40.4v190.6H1331.6z"/>
</g>
<g class="st1">
	<path d="M1511.3,263.2h70.3v87c-18.4,7.8-39.2,11.7-62.2,11.7c-30.1,0-53.1-8.5-69.2-25.5c-16-17-24.1-41-24.1-72.2
		c0-19.4,4-36.6,11.9-51.6c8-15,19.3-26.6,34.2-34.7c14.8-8.2,31.8-12.3,51-12.3c20.8,0,39.4,3.8,55.9,11.5l-5.3,12
		c-16.5-7.6-33.6-11.5-51.4-11.5c-25.1,0-45,7.8-59.8,23.3c-14.7,15.5-22.1,36.4-22.1,62.8c0,28.7,7,50.3,21,64.7
		c14,14.5,34.5,21.7,61.7,21.7c17.6,0,32.5-2.5,44.7-7.4v-67h-56.7V263.2z"/>
	<path d="M1769.5,168.7V292c0,21.9-6.3,39-19,51.4c-12.7,12.3-30.4,18.5-53.1,18.5c-22.1,0-39.3-6.2-51.7-18.6
		c-12.4-12.4-18.6-29.7-18.6-51.8V168.7h13.4V292c0,18.3,5.1,32.6,15.3,42.8c10.2,10.2,24.6,15.3,43.2,15.3c18.2,0,32.2-5,42.2-15.1
		c10-10,15-24,15-41.8V168.7H1769.5z"/>
	<path d="M1821.4,359.3V168.7h13.3v190.6H1821.4z"/>
	<path d="M2033.4,262.2c0,32-8.4,56.2-25.2,72.6c-16.8,16.4-41.4,24.6-73.9,24.6h-45.6V168.7h51.5c30.4,0,53.6,8,69.4,23.9
		C2025.5,208.5,2033.4,231.7,2033.4,262.2z M2018.9,262.7c0-27.3-6.9-47.8-20.8-61.6c-13.9-13.8-34.2-20.7-61.1-20.7H1902v167.1
		h31.5C1990.5,347.6,2018.9,319.3,2018.9,262.7z"/>
	<path d="M2181.4,359.3h-104.2V168.7h104.2v12.3h-90.9V253h85.8v12.3h-85.8V347h90.9V359.3z"/>
</g>
</svg>
